<?xml version="1.0" standalone="no"?>
<!DOCTYPE svg PUBLIC "-//W3C//DTD SVG 1.1//EN" "http://www.w3.org/Graphics/SVG/1.1/DTD/svg11.dtd">
<svg width="52mm" height="130mm" viewBox="-26 -65 52 130" xmlns="http://www.w3.org/2000/svg" version="1.1">
<title>OpenSCAD Model</title>
<path d="
M 25.1,-64.5 L -25.1,-64.5 L -25.1,64.5 L 25.1,64.5 z
M -18.4635,-59.8234 L -18.8817,-60.0365 L -19.2135,-60.3683 L -19.4266,-60.7865 L -19.5,-61.25 L -19.4266,-61.7135
 L -19.2135,-62.1317 L -18.8817,-62.4635 L -18.4635,-62.6766 L -18,-62.75 L -17.5365,-62.6766 L -17.1183,-62.4635
 L -16.7865,-62.1317 L -16.5734,-61.7135 L -16.5,-61.25 L -16.5734,-60.7865 L -16.7865,-60.3683 L -17.1183,-60.0365
 L -17.5365,-59.8234 L -18,-59.75 z
M 17.5365,-59.8234 L 17.1183,-60.0365 L 16.7865,-60.3683 L 16.5734,-60.7865 L 16.5,-61.25 L 16.5734,-61.7135
 L 16.7865,-62.1317 L 17.1183,-62.4635 L 17.5365,-62.6766 L 18,-62.75 L 18.4635,-62.6766 L 18.8817,-62.4635
 L 19.2135,-62.1317 L 19.4266,-61.7135 L 19.5,-61.25 L 19.4266,-60.7865 L 19.2135,-60.3683 L 18.8817,-60.0365
 L 18.4635,-59.8234 L 18,-59.75 z
M -8.67642,-43.9337 L -8.85115,-43.9596 L -9.02251,-44.0025 L -9.18883,-44.062 L -9.34851,-44.1375 L -9.50002,-44.2283
 L -9.64191,-44.3336 L -9.77278,-44.4522 L -9.89142,-44.5831 L -9.99664,-44.725 L -10.0874,-44.8765 L -10.163,-45.0362
 L -10.2225,-45.2025 L -10.2654,-45.3738 L -10.2913,-45.5486 L -10.3,-45.725 L -10.2913,-45.9014 L -10.2654,-46.0762
 L -10.2225,-46.2475 L -10.163,-46.4138 L -10.0874,-46.5735 L -9.99664,-46.725 L -9.89142,-46.8669 L -9.77278,-46.9978
 L -9.64191,-47.1164 L -9.50002,-47.2216 L -9.34851,-47.3125 L -9.18883,-47.388 L -9.02251,-47.4475 L -8.85115,-47.4904
 L -8.67642,-47.5163 L -8.5,-47.525 L -8.32358,-47.5163 L -8.14885,-47.4904 L -7.97749,-47.4475 L -7.81117,-47.388
 L -7.65149,-47.3125 L -7.49998,-47.2216 L -7.35809,-47.1164 L -7.22722,-46.9978 L -7.10858,-46.8669 L -7.00336,-46.725
 L -6.91255,-46.5735 L -6.83702,-46.4138 L -6.77751,-46.2475 L -6.73459,-46.0762 L -6.70868,-45.9014 L -6.70001,-45.725
 L -6.70868,-45.5486 L -6.73459,-45.3738 L -6.77751,-45.2025 L -6.83702,-45.0362 L -6.91255,-44.8765 L -7.00336,-44.725
 L -7.10858,-44.5831 L -7.22722,-44.4522 L -7.35809,-44.3336 L -7.49998,-44.2283 L -7.65149,-44.1375 L -7.81117,-44.062
 L -7.97749,-44.0025 L -8.14885,-43.9596 L -8.32358,-43.9337 L -8.5,-43.925 z
M 8.32358,-43.9337 L 8.14885,-43.9596 L 7.97749,-44.0025 L 7.81117,-44.062 L 7.65149,-44.1375 L 7.49998,-44.2283
 L 7.35809,-44.3336 L 7.22722,-44.4522 L 7.10858,-44.5831 L 7.00336,-44.725 L 6.91255,-44.8765 L 6.83702,-45.0362
 L 6.77751,-45.2025 L 6.73459,-45.3738 L 6.70868,-45.5486 L 6.70001,-45.725 L 6.70868,-45.9014 L 6.73459,-46.0762
 L 6.77751,-46.2475 L 6.83702,-46.4138 L 6.91255,-46.5735 L 7.00336,-46.725 L 7.10858,-46.8669 L 7.22722,-46.9978
 L 7.35809,-47.1164 L 7.49998,-47.2216 L 7.65149,-47.3125 L 7.81117,-47.388 L 7.97749,-47.4475 L 8.14885,-47.4904
 L 8.32358,-47.5163 L 8.5,-47.525 L 8.67642,-47.5163 L 8.85115,-47.4904 L 9.02251,-47.4475 L 9.18883,-47.388
 L 9.34851,-47.3125 L 9.50002,-47.2216 L 9.64191,-47.1164 L 9.77278,-46.9978 L 9.89142,-46.8669 L 9.99664,-46.725
 L 10.0874,-46.5735 L 10.163,-46.4138 L 10.2225,-46.2475 L 10.2654,-46.0762 L 10.2913,-45.9014 L 10.3,-45.725
 L 10.2913,-45.5486 L 10.2654,-45.3738 L 10.2225,-45.2025 L 10.163,-45.0362 L 10.0874,-44.8765 L 9.99664,-44.725
 L 9.89142,-44.5831 L 9.77278,-44.4522 L 9.64191,-44.3336 L 9.50002,-44.2283 L 9.34851,-44.1375 L 9.18883,-44.062
 L 9.02251,-44.0025 L 8.85115,-43.9596 L 8.67642,-43.9337 L 8.5,-43.925 z
M -10.4982,-15.4816 L -10.8331,-15.5313 L -11.1615,-15.6135 L -11.4803,-15.7276 L -11.7863,-15.8724 L -12.0767,-16.0464
 L -12.3486,-16.2481 L -12.5995,-16.4755 L -12.8269,-16.7263 L -13.0286,-16.9983 L -13.2026,-17.2887 L -13.3474,-17.5947
 L -13.4614,-17.9135 L -13.5437,-18.2419 L -13.5934,-18.5768 L -13.61,-18.915 L -13.61,-39.085 L -13.5934,-39.4232
 L -13.5437,-39.7581 L -13.4614,-40.0865 L -13.3474,-40.4052 L -13.2026,-40.7113 L -13.0286,-41.0017 L -12.8269,-41.2737
 L -12.5995,-41.5245 L -12.3486,-41.7519 L -12.0767,-41.9536 L -11.7863,-42.1276 L -11.4803,-42.2724 L -11.1615,-42.3864
 L -10.8331,-42.4687 L -10.4982,-42.5184 L -10.16,-42.535 L -9.82184,-42.5184 L -9.48692,-42.4687 L -9.15851,-42.3864
 L -5.83852,-41.3864 L -5.51973,-41.2724 L -5.21367,-41.1276 L -4.92328,-40.9536 L -4.65134,-40.7519 L -4.40047,-40.5245
 L -4.17311,-40.2737 L -3.97142,-40.0017 L -3.79736,-39.7113 L -3.6526,-39.4052 L -3.53854,-39.0865 L -3.45628,-38.7581
 L -3.4066,-38.4232 L -3.39,-38.085 L -3.39,-19.915 L -3.4066,-19.5768 L -3.45628,-19.2419 L -3.53854,-18.9135
 L -3.6526,-18.5947 L -3.79736,-18.2887 L -3.97142,-17.9983 L -4.17311,-17.7263 L -4.40047,-17.4755 L -4.65134,-17.2481
 L -4.92328,-17.0464 L -5.21367,-16.8724 L -5.51973,-16.7276 L -5.83852,-16.6135 L -9.15851,-15.6135 L -9.48692,-15.5313
 L -9.82184,-15.4816 L -10.16,-15.465 z
M 6.50183,-15.4816 L 6.16693,-15.5313 L 5.83852,-15.6135 L 5.51973,-15.7276 L 5.21367,-15.8724 L 4.92328,-16.0464
 L 4.65134,-16.2481 L 4.40047,-16.4755 L 4.17311,-16.7263 L 3.97142,-16.9983 L 3.79736,-17.2887 L 3.6526,-17.5947
 L 3.53854,-17.9135 L 3.45628,-18.2419 L 3.4066,-18.5768 L 3.39,-18.915 L 3.39,-39.085 L 3.4066,-39.4232
 L 3.45628,-39.7581 L 3.53854,-40.0865 L 3.6526,-40.4052 L 3.79736,-40.7113 L 3.97142,-41.0017 L 4.17311,-41.2737
 L 4.40047,-41.5245 L 4.65134,-41.7519 L 4.92328,-41.9536 L 5.21367,-42.1276 L 5.51973,-42.2724 L 5.83852,-42.3864
 L 6.16693,-42.4687 L 6.50183,-42.5184 L 6.84001,-42.535 L 7.17816,-42.5184 L 7.51308,-42.4687 L 7.84149,-42.3864
 L 11.1615,-41.3864 L 11.4803,-41.2724 L 11.7863,-41.1276 L 12.0767,-40.9536 L 12.3486,-40.7519 L 12.5995,-40.5245
 L 12.8269,-40.2737 L 13.0286,-40.0017 L 13.2026,-39.7113 L 13.3474,-39.4052 L 13.4614,-39.0865 L 13.5437,-38.7581
 L 13.5934,-38.4232 L 13.61,-38.085 L 13.61,-19.915 L 13.5934,-19.5768 L 13.5437,-19.2419 L 13.4614,-18.9135
 L 13.3474,-18.5947 L 13.2026,-18.2887 L 13.0286,-17.9983 L 12.8269,-17.7263 L 12.5995,-17.4755 L 12.3486,-17.2481
 L 12.0767,-17.0464 L 11.7863,-16.8724 L 11.4803,-16.7276 L 11.1615,-16.6135 L 7.84148,-15.6135 L 7.51306,-15.5313
 L 7.17815,-15.4816 L 6.84,-15.465 z
M -8.67642,-10.4837 L -8.85115,-10.5096 L -9.02251,-10.5525 L -9.18883,-10.612 L -9.34851,-10.6875 L -9.50002,-10.7784
 L -9.64191,-10.8836 L -9.77278,-11.0022 L -9.89142,-11.1331 L -9.99664,-11.275 L -10.0874,-11.4265 L -10.163,-11.5862
 L -10.2225,-11.7525 L -10.2654,-11.9238 L -10.2913,-12.0986 L -10.3,-12.275 L -10.2913,-12.4514 L -10.2654,-12.6262
 L -10.2225,-12.7975 L -10.163,-12.9638 L -10.0874,-13.1235 L -9.99664,-13.275 L -9.89142,-13.4169 L -9.77278,-13.5478
 L -9.64191,-13.6664 L -9.50002,-13.7717 L -9.34851,-13.8625 L -9.18883,-13.938 L -9.02251,-13.9975 L -8.85115,-14.0404
 L -8.67642,-14.0663 L -8.5,-14.075 L -8.32358,-14.0663 L -8.14885,-14.0404 L -7.97749,-13.9975 L -7.81117,-13.938
 L -7.65149,-13.8625 L -7.49998,-13.7717 L -7.35809,-13.6664 L -7.22722,-13.5478 L -7.10858,-13.4169 L -7.00336,-13.275
 L -6.91255,-13.1235 L -6.83702,-12.9638 L -6.77751,-12.7975 L -6.73459,-12.6262 L -6.70868,-12.4514 L -6.70001,-12.275
 L -6.70868,-12.0986 L -6.73459,-11.9238 L -6.77751,-11.7525 L -6.83702,-11.5862 L -6.91255,-11.4265 L -7.00336,-11.275
 L -7.10858,-11.1331 L -7.22722,-11.0022 L -7.35809,-10.8836 L -7.49998,-10.7784 L -7.65149,-10.6875 L -7.81117,-10.612
 L -7.97749,-10.5525 L -8.14885,-10.5096 L -8.32358,-10.4837 L -8.5,-10.475 z
M 8.32358,-10.4837 L 8.14885,-10.5096 L 7.97749,-10.5525 L 7.81117,-10.612 L 7.65149,-10.6875 L 7.49998,-10.7784
 L 7.35809,-10.8836 L 7.22722,-11.0022 L 7.10858,-11.1331 L 7.00336,-11.275 L 6.91255,-11.4265 L 6.83702,-11.5862
 L 6.77751,-11.7525 L 6.73459,-11.9238 L 6.70868,-12.0986 L 6.70001,-12.275 L 6.70868,-12.4514 L 6.73459,-12.6262
 L 6.77751,-12.7975 L 6.83702,-12.9638 L 6.91255,-13.1235 L 7.00336,-13.275 L 7.10858,-13.4169 L 7.22722,-13.5478
 L 7.35809,-13.6664 L 7.49998,-13.7717 L 7.65149,-13.8625 L 7.81117,-13.938 L 7.97749,-13.9975 L 8.14885,-14.0404
 L 8.32358,-14.0663 L 8.5,-14.075 L 8.67642,-14.0663 L 8.85115,-14.0404 L 9.02251,-13.9975 L 9.18883,-13.938
 L 9.34851,-13.8625 L 9.50002,-13.7717 L 9.64191,-13.6664 L 9.77278,-13.5478 L 9.89142,-13.4169 L 9.99664,-13.275
 L 10.0874,-13.1235 L 10.163,-12.9638 L 10.2225,-12.7975 L 10.2654,-12.6262 L 10.2913,-12.4514 L 10.3,-12.275
 L 10.2913,-12.0986 L 10.2654,-11.9238 L 10.2225,-11.7525 L 10.163,-11.5862 L 10.0874,-11.4265 L 9.99664,-11.275
 L 9.89142,-11.1331 L 9.77278,-11.0022 L 9.64191,-10.8836 L 9.50002,-10.7784 L 9.34851,-10.6875 L 9.18883,-10.612
 L 9.02251,-10.5525 L 8.85115,-10.5096 L 8.67642,-10.4837 L 8.5,-10.475 z
M -1.94113,15.2444 L -3.75,14.4952 L -5.3033,13.3033 L -6.49518,11.75 L -7.24443,9.94113 L -7.5,8
 L -7.24443,6.05887 L -6.49518,4.25 L -5.3033,2.6967 L -3.75,1.50482 L -1.94113,0.755569 L 0,0.5
 L 1.94113,0.755569 L 3.75,1.50482 L 5.3033,2.6967 L 6.49518,4.25 L 6.7,4.74448 L 6.7,11.2555
 L 6.49518,11.75 L 5.3033,13.3033 L 3.75,14.4952 L 1.94113,15.2444 L 0,15.5 z
M 11.6128,49.6539 L 10.993,49.4525 L 10.4427,49.1033 L 9.99655,48.6282 L 9.68257,48.0571 L 9.52049,47.4259
 L 9.52049,46.7741 L 9.68257,46.1429 L 9.99655,45.5717 L 10.4427,45.0967 L 10.993,44.7474 L 11.6128,44.5461
 L 12.2632,44.5051 L 12.9034,44.6272 L 13.4931,44.9047 L 13.9953,45.3202 L 14.3784,45.8474 L 14.6183,46.4534
 L 14.7,47.1 L 14.6183,47.7466 L 14.3784,48.3526 L 13.9953,48.8798 L 13.4931,49.2952 L 12.9034,49.5727
 L 12.2632,49.6949 z
M -18.4635,62.6766 L -18.8817,62.4635 L -19.2135,62.1317 L -19.4266,61.7135 L -19.5,61.25 L -19.4266,60.7865
 L -19.2135,60.3683 L -18.8817,60.0365 L -18.4635,59.8234 L -18,59.75 L -17.5365,59.8234 L -17.1183,60.0365
 L -16.7865,60.3683 L -16.5734,60.7865 L -16.5,61.25 L -16.5734,61.7135 L -16.7865,62.1317 L -17.1183,62.4635
 L -17.5365,62.6766 L -18,62.75 z
M 17.5365,62.6766 L 17.1183,62.4635 L 16.7865,62.1317 L 16.5734,61.7135 L 16.5,61.25 L 16.5734,60.7865
 L 16.7865,60.3683 L 17.1183,60.0365 L 17.5365,59.8234 L 18,59.75 L 18.4635,59.8234 L 18.8817,60.0365
 L 19.2135,60.3683 L 19.4266,60.7865 L 19.5,61.25 L 19.4266,61.7135 L 19.2135,62.1317 L 18.8817,62.4635
 L 18.4635,62.6766 L 18,62.75 z
" stroke="black" fill="lightgray" stroke-width="0.5"/>
</svg>
