<?xml version="1.0" standalone="no"?>
<!DOCTYPE svg PUBLIC "-//W3C//DTD SVG 1.1//EN" "http://www.w3.org/Graphics/SVG/1.1/DTD/svg11.dtd">
<svg width="52mm" height="130mm" viewBox="-26 -65 52 130" xmlns="http://www.w3.org/2000/svg" version="1.1">
<title>OpenSCAD Model</title>
<path d="
M 25.4,-64.5 L -25.4,-64.5 L -25.4,64.5 L 25.4,64.5 z
M 17.8365,-59.8234 L 17.4183,-60.0365 L 17.0865,-60.3683 L 16.8734,-60.7865 L 16.8,-61.25 L 16.8734,-61.7135
 L 17.0865,-62.1317 L 17.4183,-62.4635 L 17.8365,-62.6766 L 18.3,-62.75 L 18.7635,-62.6766 L 19.1817,-62.4635
 L 19.5135,-62.1317 L 19.7266,-61.7135 L 19.8,-61.25 L 19.7266,-60.7865 L 19.5135,-60.3683 L 19.1817,-60.0365
 L 18.7635,-59.8234 L 18.3,-59.75 z
M -18.7635,-59.8234 L -19.1817,-60.0365 L -19.5135,-60.3683 L -19.7266,-60.7865 L -19.8,-61.25 L -19.7266,-61.7135
 L -19.5135,-62.1317 L -19.1817,-62.4635 L -18.7635,-62.6766 L -18.3,-62.75 L -17.8365,-62.6766 L -17.4183,-62.4635
 L -17.0865,-62.1317 L -16.8734,-61.7135 L -16.8,-61.25 L -16.8734,-60.7865 L -17.0865,-60.3683 L -17.4183,-60.0365
 L -17.8365,-59.8234 L -18.3,-59.75 z
M 5.82454,-43.361 L 5.48463,-43.4483 L 5.17711,-43.6174 L 4.9213,-43.8576 L 4.73325,-44.1539 L 4.6248,-44.4877
 L 4.60277,-44.8379 L 4.66853,-45.1826 L 4.81795,-45.5002 L 5.04164,-45.7706 L 5.32555,-45.9768 L 5.65184,-46.106
 L 6,-46.15 L 6.34816,-46.106 L 6.67445,-45.9768 L 6.95836,-45.7706 L 7.18205,-45.5002 L 7.33147,-45.1826
 L 7.39723,-44.8379 L 7.3752,-44.4877 L 7.26675,-44.1539 L 7.0787,-43.8576 L 6.82289,-43.6174 L 6.51537,-43.4483
 L 6.17546,-43.361 z
M -6.17546,-43.361 L -6.51537,-43.4483 L -6.82289,-43.6174 L -7.0787,-43.8576 L -7.26675,-44.1539 L -7.3752,-44.4877
 L -7.39723,-44.8379 L -7.33147,-45.1826 L -7.18205,-45.5002 L -6.95836,-45.7706 L -6.67445,-45.9768 L -6.34816,-46.106
 L -6,-46.15 L -5.65184,-46.106 L -5.32555,-45.9768 L -5.04164,-45.7706 L -4.81795,-45.5002 L -4.66853,-45.1826
 L -4.60277,-44.8379 L -4.6248,-44.4877 L -4.73325,-44.1539 L -4.9213,-43.8576 L -5.17711,-43.6174 L -5.48463,-43.4483
 L -5.82454,-43.361 z
M 2.83112,-32.4705 L 2.64948,-33.0295 L 2.64948,-41.7795 L 3.125,-42.125 L 8.875,-42.125 L 9.35052,-41.7795
 L 9.35052,-33.0295 L 9.16888,-32.4705 z
M -9.16888,-32.4705 L -9.35052,-33.0295 L -9.35052,-41.7795 L -8.875,-42.125 L -3.125,-42.125 L -2.64948,-41.7795
 L -2.64948,-33.0295 L -2.83112,-32.4705 z
M -18.1755,-33.361 L -18.5154,-33.4483 L -18.8229,-33.6174 L -19.0787,-33.8576 L -19.2668,-34.1539 L -19.3752,-34.4877
 L -19.3972,-34.8379 L -19.3315,-35.1826 L -19.1821,-35.5002 L -18.9584,-35.7706 L -18.6745,-35.9768 L -18.3482,-36.106
 L -18,-36.15 L -17.6518,-36.106 L -17.3255,-35.9768 L -17.0416,-35.7706 L -16.8179,-35.5002 L -16.6685,-35.1826
 L -16.6028,-34.8379 L -16.6248,-34.4877 L -16.7332,-34.1539 L -16.9213,-33.8576 L -17.1771,-33.6174 L -17.4846,-33.4483
 L -17.8245,-33.361 z
M 17.8245,-33.361 L 17.4846,-33.4483 L 17.1771,-33.6174 L 16.9213,-33.8576 L 16.7332,-34.1539 L 16.6248,-34.4877
 L 16.6028,-34.8379 L 16.6685,-35.1826 L 16.8179,-35.5002 L 17.0416,-35.7706 L 17.3255,-35.9768 L 17.6518,-36.106
 L 18,-36.15 L 18.3482,-36.106 L 18.6745,-35.9768 L 18.9584,-35.7706 L 19.1821,-35.5002 L 19.3315,-35.1826
 L 19.3972,-34.8379 L 19.3752,-34.4877 L 19.2668,-34.1539 L 19.0787,-33.8576 L 18.8229,-33.6174 L 18.5154,-33.4483
 L 18.1755,-33.361 z
M -21.1689,-22.4705 L -21.3505,-23.0295 L -21.3505,-31.7795 L -20.875,-32.125 L -15.125,-32.125 L -14.6495,-31.7795
 L -14.6495,-23.0295 L -14.8311,-22.4705 z
M 14.8311,-22.4705 L 14.6495,-23.0295 L 14.6495,-31.7795 L 15.125,-32.125 L 20.875,-32.125 L 21.3505,-31.7795
 L 21.3505,-23.0295 L 21.1689,-22.4705 z
M -6.17546,-28.3611 L -6.51537,-28.4483 L -6.82289,-28.6174 L -7.0787,-28.8576 L -7.26675,-29.1539 L -7.3752,-29.4877
 L -7.39723,-29.8379 L -7.33147,-30.1826 L -7.18205,-30.5002 L -6.95836,-30.7706 L -6.67445,-30.9768 L -6.34816,-31.106
 L -6,-31.15 L -5.65184,-31.106 L -5.32555,-30.9768 L -5.04164,-30.7706 L -4.81795,-30.5002 L -4.66853,-30.1826
 L -4.60277,-29.8379 L -4.6248,-29.4877 L -4.73325,-29.1539 L -4.9213,-28.8576 L -5.17711,-28.6174 L -5.48463,-28.4483
 L -5.82454,-28.3611 z
M 5.82454,-28.3611 L 5.48463,-28.4483 L 5.17711,-28.6174 L 4.9213,-28.8576 L 4.73325,-29.1539 L 4.6248,-29.4877
 L 4.60277,-29.8379 L 4.66853,-30.1826 L 4.81795,-30.5002 L 5.04164,-30.7706 L 5.32555,-30.9768 L 5.65184,-31.106
 L 6,-31.15 L 6.34816,-31.106 L 6.67445,-30.9768 L 6.95836,-30.7706 L 7.18205,-30.5002 L 7.33147,-30.1826
 L 7.39723,-29.8379 L 7.3752,-29.4877 L 7.26675,-29.1539 L 7.0787,-28.8576 L 6.82289,-28.6174 L 6.51537,-28.4483
 L 6.17546,-28.3611 z
M -18.1755,-18.3611 L -18.5154,-18.4483 L -18.8229,-18.6174 L -19.0787,-18.8576 L -19.2668,-19.1539 L -19.3752,-19.4877
 L -19.3972,-19.8379 L -19.3315,-20.1826 L -19.1821,-20.5002 L -18.9584,-20.7706 L -18.6745,-20.9768 L -18.3482,-21.106
 L -18,-21.15 L -17.6518,-21.106 L -17.3255,-20.9768 L -17.0416,-20.7706 L -16.8179,-20.5002 L -16.6685,-20.1826
 L -16.6028,-19.8379 L -16.6248,-19.4877 L -16.7332,-19.1539 L -16.9213,-18.8576 L -17.1771,-18.6174 L -17.4846,-18.4483
 L -17.8245,-18.3611 z
M 17.8245,-18.3611 L 17.4846,-18.4483 L 17.1771,-18.6174 L 16.9213,-18.8576 L 16.7332,-19.1539 L 16.6248,-19.4877
 L 16.6028,-19.8379 L 16.6685,-20.1826 L 16.8179,-20.5002 L 17.0416,-20.7706 L 17.3255,-20.9768 L 17.6518,-21.106
 L 18,-21.15 L 18.3482,-21.106 L 18.6745,-20.9768 L 18.9584,-20.7706 L 19.1821,-20.5002 L 19.3315,-20.1826
 L 19.3972,-19.8379 L 19.3752,-19.4877 L 19.2668,-19.1539 L 19.0787,-18.8576 L 18.8229,-18.6174 L 18.5154,-18.4483
 L 18.1755,-18.3611 z
M -0.749512,11.1791 L -1.70311,10.8693 L -2.54968,10.332 L -3.23605,9.60114 L -3.7191,8.72249 L -3.96844,7.75133
 L -3.96844,6.74866 L -3.7191,5.7775 L -3.23605,4.89885 L -2.54968,4.16794 L -1.70311,3.63069 L -0.749512,3.32085
 L 0.25116,3.25789 L 1.23605,3.44577 L 2.1433,3.87268 L 2.91586,4.51181 L 3.50522,5.32298 L 3.87433,6.25523
 L 4,7.25 L 3.87433,8.24475 L 3.50522,9.177 L 2.91586,9.98817 L 2.1433,10.6273 L 1.23605,11.0542
 L 0.25116,11.2421 z
M -7.77499,45.775 L -7.9295,45.7505 L -8.06888,45.6795 L -8.1795,45.5689 L -8.25052,45.4295 L -8.27499,45.275
 L -8.27499,31.725 L -8.25052,31.5705 L -8.1795,31.4311 L -8.06888,31.3205 L -7.9295,31.2495 L -7.77499,31.225
 L 7.77499,31.225 L 7.9295,31.2495 L 8.06888,31.3205 L 8.1795,31.4311 L 8.25052,31.5705 L 8.27499,31.725
 L 8.27499,45.275 L 8.25052,45.4295 L 8.1795,45.5689 L 8.06888,45.6795 L 7.9295,45.7505 L 7.77499,45.775
 z
M -12.3045,35.5962 L -12.6919,35.4704 L -13.0358,35.2521 L -13.3147,34.9552 L -13.5109,34.5982 L -13.6122,34.2037
 L -13.6122,33.7963 L -13.5109,33.4018 L -13.3147,33.0449 L -13.0358,32.7479 L -12.6919,32.5297 L -12.3045,32.4038
 L -11.898,32.3782 L -11.4978,32.4545 L -11.1293,32.628 L -10.8154,32.8876 L -10.576,33.2172 L -10.426,33.5959
 L -10.375,34 L -10.426,34.4041 L -10.576,34.7829 L -10.8154,35.1124 L -11.1293,35.372 L -11.4978,35.5455
 L -11.898,35.6218 z
M 11.6955,44.5962 L 11.3081,44.4703 L 10.9642,44.2521 L 10.6853,43.9551 L 10.4891,43.5982 L 10.3878,43.2037
 L 10.3878,42.7963 L 10.4891,42.4018 L 10.6853,42.0448 L 10.9642,41.7479 L 11.3081,41.5296 L 11.6955,41.4038
 L 12.102,41.3782 L 12.5022,41.4545 L 12.8707,41.628 L 13.1846,41.8876 L 13.424,42.2171 L 13.5739,42.5959
 L 13.625,43 L 13.5739,43.4041 L 13.424,43.7828 L 13.1846,44.1124 L 12.8707,44.372 L 12.5022,44.5455
 L 12.102,44.6218 z
M -18.7635,62.6766 L -19.1817,62.4635 L -19.5135,62.1317 L -19.7266,61.7135 L -19.8,61.25 L -19.7266,60.7865
 L -19.5135,60.3683 L -19.1817,60.0365 L -18.7635,59.8234 L -18.3,59.75 L -17.8365,59.8234 L -17.4183,60.0365
 L -17.0865,60.3683 L -16.8734,60.7865 L -16.8,61.25 L -16.8734,61.7135 L -17.0865,62.1317 L -17.4183,62.4635
 L -17.8365,62.6766 L -18.3,62.75 z
M 17.8365,62.6766 L 17.4183,62.4635 L 17.0865,62.1317 L 16.8734,61.7135 L 16.8,61.25 L 16.8734,60.7865
 L 17.0865,60.3683 L 17.4183,60.0365 L 17.8365,59.8234 L 18.3,59.75 L 18.7635,59.8234 L 19.1817,60.0365
 L 19.5135,60.3683 L 19.7266,60.7865 L 19.8,61.25 L 19.7266,61.7135 L 19.5135,62.1317 L 19.1817,62.4635
 L 18.7635,62.6766 L 18.3,62.75 z
" stroke="black" fill="lightgray" stroke-width="0.5"/>
</svg>
