<?xml version="1.0" standalone="no"?>
<!DOCTYPE svg PUBLIC "-//W3C//DTD SVG 1.1//EN" "http://www.w3.org/Graphics/SVG/1.1/DTD/svg11.dtd">
<svg width="32mm" height="130mm" viewBox="-16 -65 32 130" xmlns="http://www.w3.org/2000/svg" version="1.1">
<title>OpenSCAD Model</title>
<path d="
M 15.24,-64.5 L -15.24,-64.5 L -15.24,64.5 L 15.24,64.5 z
M -8.60352,-59.8234 L -9.02167,-60.0365 L -9.35352,-60.3683 L -9.56657,-60.7865 L -9.64,-61.25 L -9.56657,-61.7135
 L -9.35352,-62.1317 L -9.02167,-62.4635 L -8.60352,-62.6766 L -8.14,-62.75 L -7.67647,-62.6766 L -7.25832,-62.4635
 L -6.92647,-62.1317 L -6.71341,-61.7135 L -6.64,-61.25 L -6.71341,-60.7865 L -6.92647,-60.3683 L -7.25832,-60.0365
 L -7.67647,-59.8234 L -8.14,-59.75 z
M 7.67647,-59.8234 L 7.25832,-60.0365 L 6.92647,-60.3683 L 6.71341,-60.7865 L 6.64,-61.25 L 6.71341,-61.7135
 L 6.92647,-62.1317 L 7.25832,-62.4635 L 7.67647,-62.6766 L 8.14,-62.75 L 8.60352,-62.6766 L 9.02167,-62.4635
 L 9.35352,-62.1317 L 9.56657,-61.7135 L 9.64,-61.25 L 9.56657,-60.7865 L 9.35352,-60.3683 L 9.02167,-60.0365
 L 8.60352,-59.8234 L 8.14,-59.75 z
M -0.175461,-48.611 L -0.515366,-48.6983 L -0.822891,-48.8674 L -1.0787,-49.1076 L -1.26675,-49.4039 L -1.3752,-49.7377
 L -1.39723,-50.0879 L -1.33147,-50.4326 L -1.18205,-50.7502 L -0.958359,-51.0206 L -0.674454,-51.2268 L -0.34816,-51.356
 L 0,-51.4 L 0.34816,-51.356 L 0.674454,-51.2268 L 0.958359,-51.0206 L 1.18205,-50.7502 L 1.33147,-50.4326
 L 1.39723,-50.0879 L 1.3752,-49.7377 L 1.26675,-49.4039 L 1.0787,-49.1076 L 0.822891,-48.8674 L 0.515366,-48.6983
 L 0.175461,-48.611 z
M -3.16888,-37.7205 L -3.35052,-38.2795 L -3.35052,-47.0295 L -2.875,-47.375 L 2.875,-47.375 L 3.35052,-47.0295
 L 3.35052,-38.2795 L 3.16888,-37.7205 z
M -0.175461,-33.6111 L -0.515366,-33.6983 L -0.822891,-33.8674 L -1.0787,-34.1076 L -1.26675,-34.4039 L -1.3752,-34.7377
 L -1.39723,-35.0879 L -1.33147,-35.4326 L -1.18205,-35.7502 L -0.958359,-36.0206 L -0.674454,-36.2268 L -0.34816,-36.356
 L 0,-36.4 L 0.34816,-36.356 L 0.674454,-36.2268 L 0.958359,-36.0206 L 1.18205,-35.7502 L 1.33147,-35.4326
 L 1.39723,-35.0879 L 1.3752,-34.7377 L 1.26675,-34.4039 L 1.0787,-34.1076 L 0.822891,-33.8674 L 0.515366,-33.6983
 L 0.175461,-33.6111 z
M 4.29633,-3.6378 L 3.90179,-3.73911 L 3.54485,-3.93533 L 3.24791,-4.21417 L 3.02965,-4.55811 L 2.90378,-4.9455
 L 2.8782,-5.35202 L 2.95453,-5.75215 L 3.12796,-6.12071 L 3.3876,-6.43457 L 3.71715,-6.674 L 4.09587,-6.82394
 L 4.5,-6.875 L 4.90411,-6.82394 L 5.28284,-6.674 L 5.61238,-6.43457 L 5.87202,-6.12071 L 6.04546,-5.75215
 L 6.12178,-5.35202 L 6.09621,-4.9455 L 5.97034,-4.55811 L 5.75208,-4.21417 L 5.45514,-3.93533 L 5.09819,-3.73911
 L 4.70366,-3.6378 z
M -8.575,15.075 L -8.72951,15.0505 L -8.86888,14.9795 L -8.97951,14.8689 L -9.05052,14.7295 L -9.075,14.575
 L -9.075,-1.075 L -9.05052,-1.22951 L -8.97951,-1.36888 L -8.86888,-1.47951 L -8.72951,-1.55052 L -8.575,-1.575
 L 8.575,-1.575 L 8.72951,-1.55052 L 8.86888,-1.47951 L 8.97951,-1.36888 L 9.05052,-1.22951 L 9.075,-1.075
 L 9.075,14.575 L 9.05052,14.7295 L 8.97951,14.8689 L 8.86888,14.9795 L 8.72951,15.0505 L 8.575,15.075
 z
M -4.70366,20.3622 L -5.09819,20.2609 L -5.45514,20.0647 L -5.75208,19.7858 L -5.97034,19.4419 L -6.09621,19.0545
 L -6.12178,18.648 L -6.04546,18.2478 L -5.87202,17.8793 L -5.61238,17.5654 L -5.28284,17.326 L -4.90411,17.176
 L -4.5,17.125 L -4.09587,17.176 L -3.71715,17.326 L -3.3876,17.5654 L -3.12796,17.8793 L -2.95453,18.2478
 L -2.8782,18.648 L -2.90378,19.0545 L -3.02965,19.4419 L -3.24791,19.7858 L -3.54485,20.0647 L -3.90179,20.2609
 L -4.29633,20.3622 z
M 4.29633,21.8622 L 3.90179,21.7609 L 3.54485,21.5647 L 3.24791,21.2858 L 3.02965,20.9419 L 2.90378,20.5545
 L 2.8782,20.148 L 2.95453,19.7478 L 3.12796,19.3793 L 3.3876,19.0654 L 3.71715,18.826 L 4.09587,18.6761
 L 4.5,18.625 L 4.90411,18.6761 L 5.28284,18.826 L 5.61238,19.0654 L 5.87202,19.3793 L 6.04546,19.7478
 L 6.12178,20.148 L 6.09621,20.5545 L 5.97034,20.9419 L 5.75208,21.2858 L 5.45514,21.5647 L 5.09819,21.7609
 L 4.70366,21.8622 z
M -8.575,40.575 L -8.72951,40.5505 L -8.86888,40.4795 L -8.97951,40.3689 L -9.05052,40.2295 L -9.075,40.075
 L -9.075,24.425 L -9.05052,24.2705 L -8.97951,24.1311 L -8.86888,24.0205 L -8.72951,23.9495 L -8.575,23.925
 L 8.575,23.925 L 8.72951,23.9495 L 8.86888,24.0205 L 8.97951,24.1311 L 9.05052,24.2705 L 9.075,24.425
 L 9.075,40.075 L 9.05052,40.2295 L 8.97951,40.3689 L 8.86888,40.4795 L 8.72951,40.5505 L 8.575,40.575
 z
M -4.70366,45.8622 L -5.09819,45.7609 L -5.45514,45.5647 L -5.75208,45.2858 L -5.97034,44.9419 L -6.09621,44.5545
 L -6.12178,44.148 L -6.04546,43.7478 L -5.87202,43.3793 L -5.61238,43.0654 L -5.28284,42.826 L -4.90411,42.676
 L -4.5,42.625 L -4.09587,42.676 L -3.71715,42.826 L -3.3876,43.0654 L -3.12796,43.3793 L -2.95453,43.7478
 L -2.8782,44.148 L -2.90378,44.5545 L -3.02965,44.9419 L -3.24791,45.2858 L -3.54485,45.5647 L -3.90179,45.7609
 L -4.29633,45.8622 z
M -8.60352,62.6766 L -9.02167,62.4635 L -9.35352,62.1317 L -9.56657,61.7135 L -9.64,61.25 L -9.56657,60.7865
 L -9.35352,60.3683 L -9.02167,60.0365 L -8.60352,59.8234 L -8.14,59.75 L -7.67647,59.8234 L -7.25832,60.0365
 L -6.92647,60.3683 L -6.71341,60.7865 L -6.64,61.25 L -6.71341,61.7135 L -6.92647,62.1317 L -7.25832,62.4635
 L -7.67647,62.6766 L -8.14,62.75 z
M 7.67647,62.6766 L 7.25832,62.4635 L 6.92647,62.1317 L 6.71341,61.7135 L 6.64,61.25 L 6.71341,60.7865
 L 6.92647,60.3683 L 7.25832,60.0365 L 7.67647,59.8234 L 8.14,59.75 L 8.60352,59.8234 L 9.02167,60.0365
 L 9.35352,60.3683 L 9.56657,60.7865 L 9.64,61.25 L 9.56657,61.7135 L 9.35352,62.1317 L 9.02167,62.4635
 L 8.60352,62.6766 L 8.14,62.75 z
" stroke="black" fill="lightgray" stroke-width="0.5"/>
</svg>
