<?xml version="1.0" standalone="no"?>
 <!DOCTYPE svg PUBLIC "-//W3C//DTD SVG 1.1//EN" 
 "http://www.w3.org/Graphics/SVG/1.1/DTD/svg11.dtd"> 
<svg
  xmlns:svg="http://www.w3.org/2000/svg"
  xmlns="http://www.w3.org/2000/svg"
  xmlns:xlink="http://www.w3.org/1999/xlink"
  version="1.1"
  width="29.700220cm" height="21.000720cm" viewBox="0 0 11693000 8268000">
<title>SVG Picture created as usbmini_breakout-B_Cu.svg date 2023/02/21 13:27:51 </title>
  <desc>Picture generated by PCBNEW </desc>
<g style="fill:#000000; fill-opacity:1.000000;stroke:#000000; stroke-opacity:1.000000;
stroke-linecap:round; stroke-linejoin:round;"
 transform="translate(0 0) scale(1 1)">
</g>
<g style="fill:#000000; fill-opacity:0.0; 
stroke:#000000; stroke-width:0.000000; stroke-opacity:1; 
stroke-linecap:round; stroke-linejoin:round;">
</g>
<g style="fill:#000000; fill-opacity:0.0; 
stroke:#000000; stroke-width:7874.015748; stroke-opacity:1; 
stroke-linecap:round; stroke-linejoin:round;">
<circle cx="1780000.000000" cy="1300000.000000" r="43307.086614" /> 
<circle cx="1040000.000000" cy="1300000.000000" r="43307.086614" /> 
</g>
<g style="fill:#000000; fill-opacity:0.0; 
stroke:#000000; stroke-width:5905.511811; stroke-opacity:1; 
stroke-linecap:round; stroke-linejoin:round;">
<text x="1245000.000000" y="1434763.779528"
transform="scale(-1 1) translate(-2490000.000000 0)"
textLength="84083.228346" font-size="39370.078740" lengthAdjust="spacingAndGlyphs"
text-anchor="middle" opacity="0">GND</text>
<g class="stroked-text"><desc>GND</desc>
<path d="M1267497 1405236
L1270309 1403830
L1274527 1403830
L1278745 1405236
L1281557 1408048
L1282963 1410860
L1284370 1416484
L1284370 1420703
L1282963 1426327
L1281557 1429139
L1278745 1431951
L1274527 1433357
L1271715 1433357
L1267497 1431951
L1266091 1430545
L1266091 1420703
L1271715 1420703
" />
<path d="M1253436 1433357
L1253436 1403830
L1236563 1433357
L1236563 1403830
" />
<path d="M1222502 1433357
L1222502 1403830
L1215472 1403830
L1211254 1405236
L1208442 1408048
L1207035 1410860
L1205629 1416484
L1205629 1420703
L1207035 1426327
L1208442 1429139
L1211254 1431951
L1215472 1433357
L1222502 1433357
" />
</g><text x="1353254.566929" y="1434763.779528"
transform="scale(-1 1) translate(-2706509.133858 0)"
textLength="58408.307087" font-size="39370.078740" lengthAdjust="spacingAndGlyphs"
text-anchor="middle" opacity="0">D+</text>
<g class="stroked-text"><desc>D+</desc>
<path d="M1379266 1433357
L1379266 1403830
L1372236 1403830
L1368018 1405236
L1365206 1408048
L1363800 1410860
L1362394 1416484
L1362394 1420703
L1363800 1426327
L1365206 1429139
L1368018 1431951
L1372236 1433357
L1379266 1433357
" />
<path d="M1349739 1422109
L1327242 1422109
" />
<path d="M1338490 1433357
L1338490 1410860
" />
</g><text x="1449557.519685" y="1434763.779528"
transform="scale(-1 1) translate(-2899115.039370 0)"
textLength="58408.307087" font-size="39370.078740" lengthAdjust="spacingAndGlyphs"
text-anchor="middle" opacity="0">D-</text>
<g class="stroked-text"><desc>D-</desc>
<path d="M1475569 1433357
L1475569 1403830
L1468539 1403830
L1464321 1405236
L1461509 1408048
L1460103 1410860
L1458696 1416484
L1458696 1420703
L1460103 1426327
L1461509 1429139
L1464321 1431951
L1468539 1433357
L1475569 1433357
" />
<path d="M1446042 1422109
L1423545 1422109
" />
</g><text x="1555000.000000" y="1434763.779528"
transform="scale(-1 1) translate(-3110000.000000 0)"
textLength="76687.283465" font-size="39370.078740" lengthAdjust="spacingAndGlyphs"
text-anchor="middle" opacity="0">VCC</text>
<g class="stroked-text"><desc>VCC</desc>
<path d="M1594370 1403830
L1584527 1433357
L1574685 1403830
" />
<path d="M1547969 1430545
L1549375 1431951
L1553593 1433357
L1556406 1433357
L1560624 1431951
L1563436 1429139
L1564842 1426327
L1566248 1420703
L1566248 1416484
L1564842 1410860
L1563436 1408048
L1560624 1405236
L1556406 1403830
L1553593 1403830
L1549375 1405236
L1547969 1406642
" />
<path d="M1518442 1430545
L1519848 1431951
L1524066 1433357
L1526878 1433357
L1531096 1431951
L1533908 1429139
L1535314 1426327
L1536721 1420703
L1536721 1416484
L1535314 1410860
L1533908 1408048
L1531096 1405236
L1526878 1403830
L1524066 1403830
L1519848 1405236
L1518442 1406642
" />
</g></g>
<g style="fill:#000000; fill-opacity:0.0; 
stroke:#000000; stroke-width:3937.007874; stroke-opacity:1; 
stroke-linecap:round; stroke-linejoin:round;">
<path d="M965000 1480000
L1855000 1480000
" />
<path d="M1855000 1480000
L1855000 920000
" />
<path d="M1855000 920000
L965000 920000
" />
<path d="M965000 920000
L965000 1480000
" />
<g >
</g>
<g style="fill:#000000; fill-opacity:0.0; 
stroke:#000000; stroke-width:0.039370; stroke-opacity:1; 
stroke-linecap:round; stroke-linejoin:round;">
</g>
<g style="fill:#000000; fill-opacity:1.0; 
stroke:#000000; stroke-width:0.039370; stroke-opacity:1; 
stroke-linecap:round; stroke-linejoin:round;">
<path style="fill:#000000; fill-opacity:1.0; 
stroke:#000000; stroke-width:0.039370; stroke-opacity:1; 
stroke-linecap:round; stroke-linejoin:round;fill-rule:evenodd;"
d="M 1520019.685039,1288897.637795
1586948.818898,1288897.637795
1586948.818898,1355826.771654
1520019.685039,1355826.771654
Z" /> 
<circle cx="1453484.251969" cy="1322362.204724" r="33464.566929" /> 
<circle cx="1353484.251969" cy="1322362.204724" r="33464.566929" /> 
<circle cx="1253484.251969" cy="1322362.204724" r="33464.566929" /> 
</g>
<g >
</g>
<g style="fill:#000000; fill-opacity:1.0; 
stroke:#000000; stroke-width:0.039370; stroke-opacity:1; 
stroke-linecap:round; stroke-linejoin:round;">
<circle cx="1477992.125984" cy="1093622.047244" r="24763.779528" /> 
</g>
<g style="fill:#000000; fill-opacity:1.0; 
stroke:#000000; stroke-width:834.645669; stroke-opacity:1; 
stroke-linecap:round; stroke-linejoin:round;">
</g>
<g style="fill:#000000; fill-opacity:1.0; 
stroke:#000000; stroke-width:0.039370; stroke-opacity:1; 
stroke-linecap:round; stroke-linejoin:round;">
<circle cx="1446496.062992" cy="1046377.952756" r="24763.779528" /> 
</g>
<g style="fill:#000000; fill-opacity:1.0; 
stroke:#000000; stroke-width:834.645669; stroke-opacity:1; 
stroke-linecap:round; stroke-linejoin:round;">
</g>
<g style="fill:#000000; fill-opacity:1.0; 
stroke:#000000; stroke-width:0.039370; stroke-opacity:1; 
stroke-linecap:round; stroke-linejoin:round;">
<circle cx="1415000.000000" cy="1093622.047244" r="24763.779528" /> 
</g>
<g style="fill:#000000; fill-opacity:1.0; 
stroke:#000000; stroke-width:834.645669; stroke-opacity:1; 
stroke-linecap:round; stroke-linejoin:round;">
</g>
<g style="fill:#000000; fill-opacity:1.0; 
stroke:#000000; stroke-width:0.039370; stroke-opacity:1; 
stroke-linecap:round; stroke-linejoin:round;">
<circle cx="1383503.937008" cy="1046377.952756" r="24763.779528" /> 
</g>
<g style="fill:#000000; fill-opacity:1.0; 
stroke:#000000; stroke-width:834.645669; stroke-opacity:1; 
stroke-linecap:round; stroke-linejoin:round;">
</g>
<g style="fill:#000000; fill-opacity:1.0; 
stroke:#000000; stroke-width:0.039370; stroke-opacity:1; 
stroke-linecap:round; stroke-linejoin:round;">
<circle cx="1352007.874016" cy="1093622.047244" r="24763.779528" /> 
</g>
<g style="fill:#000000; fill-opacity:1.0; 
stroke:#000000; stroke-width:834.645669; stroke-opacity:1; 
stroke-linecap:round; stroke-linejoin:round;">
</g>
<g style="fill:#000000; fill-opacity:1.0; 
stroke:#000000; stroke-width:70866.141732; stroke-opacity:1; 
stroke-linecap:round; stroke-linejoin:round;">
</g>
<g style="fill:#000000; fill-opacity:0.0; 
stroke:#000000; stroke-width:70866.141732; stroke-opacity:1; 
stroke-linecap:round; stroke-linejoin:round;">
<path d="M1582322 1105433
L1582322 1034566
" />
<path d="M1247677 1105433
L1247677 1034566
" />
</g>
<g >
</g>
<g >
</g>
<g style="fill:#000000; fill-opacity:0.0; 
stroke:#000000; stroke-width:70866.141732; stroke-opacity:1; 
stroke-linecap:round; stroke-linejoin:round;">
</g>
<g style="fill:#000000; fill-opacity:0.0; 
stroke:#000000; stroke-width:19685.039370; stroke-opacity:1; 
stroke-linecap:round; stroke-linejoin:round;">
<path d="M1515000 977874
L1515000 970000
" />
<path d="M1446496 1046377
L1515000 977874
" />
<path d="M1504665 1373543
L1453484 1322362
" />
<path d="M1515000 970000
L1592920 970000
" />
<path d="M1592920 970000
L1635472 1012551
" />
<path d="M1635472 1012551
L1635472 1349527
" />
<path d="M1635472 1349527
L1611456 1373543
" />
<path d="M1611456 1373543
L1504665 1373543
" />
<path d="M1415000 1093622
L1353484 1155137
" />
<path d="M1353484 1155137
L1353484 1322362
" />
<path d="M1352007 1093622
L1253484 1192145
" />
<path d="M1253484 1192145
L1253484 1322362
" />
<path d="M1477992 1093622
L1553484 1169114
" />
<path d="M1553484 1169114
L1553484 1322362
" />
</g>
<g >
</g>
</g> 
</svg>
