  0
SECTION
  2
HEADER
  9
$ANGBASE
  50
0.0
  9
$ANGDIR
  70
1
  9
$MEASUREMENT
  70
0
  0
ENDSEC
  0
SECTION
  2
TABLES
  0
TABLE
  2
LTYPE
  70
4
  0
LTYPE
  5
40F
  2
CONTINUOUS
  70
0
  3
Solid line
  72
65
  73
0
  40
0.0
  0
LTYPE
  5
410
  2
DASHDOT
 70
0
  3
Dash Dot ____ _ ____ _
 72
65
 73
4
 40
2.0
 49
1.25
 49
-0.25
 49
0.25
 49
-0.25
  0
LTYPE
  5
411
  2
DASHED
 70
0
  3
Dashed __ __ __ __ __
 72
65
 73
2
 40
0.75
 49
0.5
 49
-0.25
  0
LTYPE
  5
43B
  2
DOTTED
 70
0
  3
Dotted .  .  .  .
 72
65
 73
2
 40
0.2
 49
0.0
 49
-0.2
  0
ENDTAB
  0
TABLE
  2
STYLE
  70
4
  0
STYLE
  2
KICAD
  70
0
  40
0
  41
1
  42
1
  50
0
  71
0
  3
isocp.shx
  0
STYLE
  2
KICADB
  70
0
  40
0
  41
1
  42
1
  50
0
  71
0
  3
isocp.shx
  0
STYLE
  2
KICADI
  70
0
  40
0
  41
1
  42
1
  50
15
  71
0
  3
isocp.shx
  0
STYLE
  2
KICADBI
  70
0
  40
0
  41
1
  42
1
  50
15
  71
0
  3
isocp.shx
  0
ENDTAB
  0
TABLE
  2
LAYER
  70
1
  0
LAYER
  2
BLACK
  70
0
  62
7
  6
CONTINUOUS
  0
ENDTAB
  0
ENDSEC
  0
SECTION
  2
ENTITIES
0
LINE
8
BLACK
6
CONTINUOUS
10
0.963608
20
-1.48139
11
0.963031
21
-1.48
0
LINE
8
BLACK
6
CONTINUOUS
10
0.963031
20
-1.48
11
0.963031
21
-0.92
0
LINE
8
BLACK
6
CONTINUOUS
10
0.963031
20
-0.92
11
0.963608
21
-0.918608
0
LINE
8
BLACK
6
CONTINUOUS
10
0.963608
20
-0.918608
11
0.965
21
-0.918031
0
LINE
8
BLACK
6
CONTINUOUS
10
0.965
20
-0.918031
11
1.855
21
-0.918031
0
LINE
8
BLACK
6
CONTINUOUS
10
1.855
20
-0.918031
11
1.85639
21
-0.918608
0
LINE
8
BLACK
6
CONTINUOUS
10
1.85639
20
-0.918608
11
1.85697
21
-0.92
0
LINE
8
BLACK
6
CONTINUOUS
10
1.85697
20
-0.92
11
1.85697
21
-1.48
0
LINE
8
BLACK
6
CONTINUOUS
10
1.85697
20
-1.48
11
1.85639
21
-1.48139
0
LINE
8
BLACK
6
CONTINUOUS
10
1.85639
20
-1.48139
11
1.855
21
-1.48197
0
LINE
8
BLACK
6
CONTINUOUS
10
1.855
20
-1.48197
11
0.965
21
-1.48197
0
LINE
8
BLACK
6
CONTINUOUS
10
0.965
20
-1.48197
11
0.963608
21
-1.48139
0
LINE
8
BLACK
6
CONTINUOUS
10
0.966969
20
-0.921969
11
0.966969
21
-1.47803
0
LINE
8
BLACK
6
CONTINUOUS
10
0.966969
20
-1.47803
11
1.85303
21
-1.47803
0
LINE
8
BLACK
6
CONTINUOUS
10
1.85303
20
-1.47803
11
1.85303
21
-0.921969
0
LINE
8
BLACK
6
CONTINUOUS
10
1.85303
20
-0.921969
11
0.966969
21
-0.921969
0
LINE
8
BLACK
6
CONTINUOUS
10
1.37965
20
-1.40094
11
1.37978
21
-1.40092
0
LINE
8
BLACK
6
CONTINUOUS
10
1.37978
20
-1.40092
11
1.37989
21
-1.40099
0
LINE
8
BLACK
6
CONTINUOUS
10
1.37989
20
-1.40099
11
1.38028
21
-1.40106
0
LINE
8
BLACK
6
CONTINUOUS
10
1.38028
20
-1.40106
11
1.38086
21
-1.40155
0
LINE
8
BLACK
6
CONTINUOUS
10
1.38086
20
-1.40155
11
1.38153
21
-1.40193
0
LINE
8
BLACK
6
CONTINUOUS
10
1.38153
20
-1.40193
11
1.38162
21
-1.40218
0
LINE
8
BLACK
6
CONTINUOUS
10
1.38162
20
-1.40218
11
1.38182
21
-1.40235
0
LINE
8
BLACK
6
CONTINUOUS
10
1.38182
20
-1.40235
11
1.38196
21
-1.40311
0
LINE
8
BLACK
6
CONTINUOUS
10
1.38196
20
-1.40311
11
1.38222
21
-1.40383
0
LINE
8
BLACK
6
CONTINUOUS
10
1.38222
20
-1.40383
11
1.38222
21
-1.43336
0
LINE
8
BLACK
6
CONTINUOUS
10
1.38222
20
-1.43336
11
1.38215
21
-1.43374
0
LINE
8
BLACK
6
CONTINUOUS
10
1.38215
20
-1.43374
11
1.38217
21
-1.43387
0
LINE
8
BLACK
6
CONTINUOUS
10
1.38217
20
-1.43387
11
1.38211
21
-1.43398
0
LINE
8
BLACK
6
CONTINUOUS
10
1.38211
20
-1.43398
11
1.38204
21
-1.43437
0
LINE
8
BLACK
6
CONTINUOUS
10
1.38204
20
-1.43437
11
1.38155
21
-1.43496
0
LINE
8
BLACK
6
CONTINUOUS
10
1.38155
20
-1.43496
11
1.38116
21
-1.43562
0
LINE
8
BLACK
6
CONTINUOUS
10
1.38116
20
-1.43562
11
1.38091
21
-1.43571
0
LINE
8
BLACK
6
CONTINUOUS
10
1.38091
20
-1.43571
11
1.38074
21
-1.43591
0
LINE
8
BLACK
6
CONTINUOUS
10
1.38074
20
-1.43591
11
1.37999
21
-1.43605
0
LINE
8
BLACK
6
CONTINUOUS
10
1.37999
20
-1.43605
11
1.37927
21
-1.43631
0
LINE
8
BLACK
6
CONTINUOUS
10
1.37927
20
-1.43631
11
1.37224
21
-1.43631
0
LINE
8
BLACK
6
CONTINUOUS
10
1.37224
20
-1.43631
11
1.37137
21
-1.43616
0
LINE
8
BLACK
6
CONTINUOUS
10
1.37137
20
-1.43616
11
1.3713
21
-1.43616
0
LINE
8
BLACK
6
CONTINUOUS
10
1.3713
20
-1.43616
11
1.36708
21
-1.43475
0
LINE
8
BLACK
6
CONTINUOUS
10
1.36708
20
-1.43475
11
1.36618
21
-1.43426
0
LINE
8
BLACK
6
CONTINUOUS
10
1.36618
20
-1.43426
11
1.36609
21
-1.43411
0
LINE
8
BLACK
6
CONTINUOUS
10
1.36609
20
-1.43411
11
1.36593
21
-1.43404
0
LINE
8
BLACK
6
CONTINUOUS
10
1.36593
20
-1.43404
11
1.36312
21
-1.43123
0
LINE
8
BLACK
6
CONTINUOUS
10
1.36312
20
-1.43123
11
1.36261
21
-1.4305
0
LINE
8
BLACK
6
CONTINUOUS
10
1.36261
20
-1.4305
11
1.36257
21
-1.43046
0
LINE
8
BLACK
6
CONTINUOUS
10
1.36257
20
-1.43046
11
1.36116
21
-1.42765
0
LINE
8
BLACK
6
CONTINUOUS
10
1.36116
20
-1.42765
11
1.36101
21
-1.42716
0
LINE
8
BLACK
6
CONTINUOUS
10
1.36101
20
-1.42716
11
1.36094
21
-1.42704
0
LINE
8
BLACK
6
CONTINUOUS
10
1.36094
20
-1.42704
11
1.35953
21
-1.42142
0
LINE
8
BLACK
6
CONTINUOUS
10
1.35953
20
-1.42142
11
1.35949
21
-1.42083
0
LINE
8
BLACK
6
CONTINUOUS
10
1.35949
20
-1.42083
11
1.35944
21
-1.4207
0
LINE
8
BLACK
6
CONTINUOUS
10
1.35944
20
-1.4207
11
1.35944
21
-1.41648
0
LINE
8
BLACK
6
CONTINUOUS
10
1.35944
20
-1.41648
11
1.35954
21
-1.4159
0
LINE
8
BLACK
6
CONTINUOUS
10
1.35954
20
-1.4159
11
1.35953
21
-1.41577
0
LINE
8
BLACK
6
CONTINUOUS
10
1.35953
20
-1.41577
11
1.36094
21
-1.41014
0
LINE
8
BLACK
6
CONTINUOUS
10
1.36094
20
-1.41014
11
1.36114
21
-1.40968
0
LINE
8
BLACK
6
CONTINUOUS
10
1.36114
20
-1.40968
11
1.36116
21
-1.40954
0
LINE
8
BLACK
6
CONTINUOUS
10
1.36116
20
-1.40954
11
1.36257
21
-1.40673
0
LINE
8
BLACK
6
CONTINUOUS
10
1.36257
20
-1.40673
11
1.36309
21
-1.40602
0
LINE
8
BLACK
6
CONTINUOUS
10
1.36309
20
-1.40602
11
1.36312
21
-1.40596
0
LINE
8
BLACK
6
CONTINUOUS
10
1.36312
20
-1.40596
11
1.36593
21
-1.40315
0
LINE
8
BLACK
6
CONTINUOUS
10
1.36593
20
-1.40315
11
1.36677
21
-1.40256
0
LINE
8
BLACK
6
CONTINUOUS
10
1.36677
20
-1.40256
11
1.36695
21
-1.40254
0
LINE
8
BLACK
6
CONTINUOUS
10
1.36695
20
-1.40254
11
1.36708
21
-1.40243
0
LINE
8
BLACK
6
CONTINUOUS
10
1.36708
20
-1.40243
11
1.3713
21
-1.40103
0
LINE
8
BLACK
6
CONTINUOUS
10
1.3713
20
-1.40103
11
1.37218
21
-1.4009
0
LINE
8
BLACK
6
CONTINUOUS
10
1.37218
20
-1.4009
11
1.37224
21
-1.40088
0
LINE
8
BLACK
6
CONTINUOUS
10
1.37224
20
-1.40088
11
1.37927
21
-1.40088
0
LINE
8
BLACK
6
CONTINUOUS
10
1.37927
20
-1.40088
11
1.37965
21
-1.40094
0
LINE
8
BLACK
6
CONTINUOUS
10
1.37272
20
-1.40678
11
1.36961
21
-1.40782
0
LINE
8
BLACK
6
CONTINUOUS
10
1.36961
20
-1.40782
11
1.36763
21
-1.4098
0
LINE
8
BLACK
6
CONTINUOUS
10
1.36763
20
-1.4098
11
1.36659
21
-1.41189
0
LINE
8
BLACK
6
CONTINUOUS
10
1.36659
20
-1.41189
11
1.36535
21
-1.41685
0
LINE
8
BLACK
6
CONTINUOUS
10
1.36535
20
-1.41685
11
1.36535
21
-1.42034
0
LINE
8
BLACK
6
CONTINUOUS
10
1.36535
20
-1.42034
11
1.36659
21
-1.4253
0
LINE
8
BLACK
6
CONTINUOUS
10
1.36659
20
-1.4253
11
1.36763
21
-1.42739
0
LINE
8
BLACK
6
CONTINUOUS
10
1.36763
20
-1.42739
11
1.36961
21
-1.42937
0
LINE
8
BLACK
6
CONTINUOUS
10
1.36961
20
-1.42937
11
1.37272
21
-1.4304
0
LINE
8
BLACK
6
CONTINUOUS
10
1.37272
20
-1.4304
11
1.37631
21
-1.4304
0
LINE
8
BLACK
6
CONTINUOUS
10
1.37631
20
-1.4304
11
1.37631
21
-1.40678
0
LINE
8
BLACK
6
CONTINUOUS
10
1.37631
20
-1.40678
11
1.37272
21
-1.40678
0
LINE
8
BLACK
6
CONTINUOUS
10
1.2754
20
-1.40103
11
1.27546
21
-1.40103
0
LINE
8
BLACK
6
CONTINUOUS
10
1.27546
20
-1.40103
11
1.27968
21
-1.40243
0
LINE
8
BLACK
6
CONTINUOUS
10
1.27968
20
-1.40243
11
1.28058
21
-1.40292
0
LINE
8
BLACK
6
CONTINUOUS
10
1.28058
20
-1.40292
11
1.28067
21
-1.40307
0
LINE
8
BLACK
6
CONTINUOUS
10
1.28067
20
-1.40307
11
1.28083
21
-1.40315
0
LINE
8
BLACK
6
CONTINUOUS
10
1.28083
20
-1.40315
11
1.28365
21
-1.40596
0
LINE
8
BLACK
6
CONTINUOUS
10
1.28365
20
-1.40596
11
1.28415
21
-1.40668
0
LINE
8
BLACK
6
CONTINUOUS
10
1.28415
20
-1.40668
11
1.2842
21
-1.40673
0
LINE
8
BLACK
6
CONTINUOUS
10
1.2842
20
-1.40673
11
1.2856
21
-1.40954
0
LINE
8
BLACK
6
CONTINUOUS
10
1.2856
20
-1.40954
11
1.28575
21
-1.41003
0
LINE
8
BLACK
6
CONTINUOUS
10
1.28575
20
-1.41003
11
1.28583
21
-1.41014
0
LINE
8
BLACK
6
CONTINUOUS
10
1.28583
20
-1.41014
11
1.28723
21
-1.41577
0
LINE
8
BLACK
6
CONTINUOUS
10
1.28723
20
-1.41577
11
1.28728
21
-1.41636
0
LINE
8
BLACK
6
CONTINUOUS
10
1.28728
20
-1.41636
11
1.28732
21
-1.41648
0
LINE
8
BLACK
6
CONTINUOUS
10
1.28732
20
-1.41648
11
1.28732
21
-1.4207
0
LINE
8
BLACK
6
CONTINUOUS
10
1.28732
20
-1.4207
11
1.28722
21
-1.42128
0
LINE
8
BLACK
6
CONTINUOUS
10
1.28722
20
-1.42128
11
1.28723
21
-1.42142
0
LINE
8
BLACK
6
CONTINUOUS
10
1.28723
20
-1.42142
11
1.28583
21
-1.42704
0
LINE
8
BLACK
6
CONTINUOUS
10
1.28583
20
-1.42704
11
1.28562
21
-1.42751
0
LINE
8
BLACK
6
CONTINUOUS
10
1.28562
20
-1.42751
11
1.2856
21
-1.42765
0
LINE
8
BLACK
6
CONTINUOUS
10
1.2856
20
-1.42765
11
1.2842
21
-1.43046
0
LINE
8
BLACK
6
CONTINUOUS
10
1.2842
20
-1.43046
11
1.28367
21
-1.43117
0
LINE
8
BLACK
6
CONTINUOUS
10
1.28367
20
-1.43117
11
1.28365
21
-1.43123
0
LINE
8
BLACK
6
CONTINUOUS
10
1.28365
20
-1.43123
11
1.28083
21
-1.43404
0
LINE
8
BLACK
6
CONTINUOUS
10
1.28083
20
-1.43404
11
1.27999
21
-1.43463
0
LINE
8
BLACK
6
CONTINUOUS
10
1.27999
20
-1.43463
11
1.27982
21
-1.43464
0
LINE
8
BLACK
6
CONTINUOUS
10
1.27982
20
-1.43464
11
1.27968
21
-1.43475
0
LINE
8
BLACK
6
CONTINUOUS
10
1.27968
20
-1.43475
11
1.27546
21
-1.43616
0
LINE
8
BLACK
6
CONTINUOUS
10
1.27546
20
-1.43616
11
1.27459
21
-1.43629
0
LINE
8
BLACK
6
CONTINUOUS
10
1.27459
20
-1.43629
11
1.27453
21
-1.43631
0
LINE
8
BLACK
6
CONTINUOUS
10
1.27453
20
-1.43631
11
1.27172
21
-1.43631
0
LINE
8
BLACK
6
CONTINUOUS
10
1.27172
20
-1.43631
11
1.27085
21
-1.43616
0
LINE
8
BLACK
6
CONTINUOUS
10
1.27085
20
-1.43616
11
1.27078
21
-1.43616
0
LINE
8
BLACK
6
CONTINUOUS
10
1.27078
20
-1.43616
11
1.26656
21
-1.43475
0
LINE
8
BLACK
6
CONTINUOUS
10
1.26656
20
-1.43475
11
1.26566
21
-1.43426
0
LINE
8
BLACK
6
CONTINUOUS
10
1.26566
20
-1.43426
11
1.26557
21
-1.43411
0
LINE
8
BLACK
6
CONTINUOUS
10
1.26557
20
-1.43411
11
1.26541
21
-1.43404
0
LINE
8
BLACK
6
CONTINUOUS
10
1.26541
20
-1.43404
11
1.264
21
-1.43263
0
LINE
8
BLACK
6
CONTINUOUS
10
1.264
20
-1.43263
11
1.2639
21
-1.43248
0
LINE
8
BLACK
6
CONTINUOUS
10
1.2639
20
-1.43248
11
1.26383
21
-1.43244
0
LINE
8
BLACK
6
CONTINUOUS
10
1.26383
20
-1.43244
11
1.26378
21
-1.43232
0
LINE
8
BLACK
6
CONTINUOUS
10
1.26378
20
-1.43232
11
1.26341
21
-1.43179
0
LINE
8
BLACK
6
CONTINUOUS
10
1.26341
20
-1.43179
11
1.26336
21
-1.43115
0
LINE
8
BLACK
6
CONTINUOUS
10
1.26336
20
-1.43115
11
1.26314
21
-1.43055
0
LINE
8
BLACK
6
CONTINUOUS
10
1.26314
20
-1.43055
11
1.26314
21
-1.4207
0
LINE
8
BLACK
6
CONTINUOUS
10
1.26314
20
-1.4207
11
1.26321
21
-1.42032
0
LINE
8
BLACK
6
CONTINUOUS
10
1.26321
20
-1.42032
11
1.26318
21
-1.42019
0
LINE
8
BLACK
6
CONTINUOUS
10
1.26318
20
-1.42019
11
1.26325
21
-1.42008
0
LINE
8
BLACK
6
CONTINUOUS
10
1.26325
20
-1.42008
11
1.26332
21
-1.41969
0
LINE
8
BLACK
6
CONTINUOUS
10
1.26332
20
-1.41969
11
1.26381
21
-1.41911
0
LINE
8
BLACK
6
CONTINUOUS
10
1.26381
20
-1.41911
11
1.26419
21
-1.41844
0
LINE
8
BLACK
6
CONTINUOUS
10
1.26419
20
-1.41844
11
1.26444
21
-1.41835
0
LINE
8
BLACK
6
CONTINUOUS
10
1.26444
20
-1.41835
11
1.26461
21
-1.41815
0
LINE
8
BLACK
6
CONTINUOUS
10
1.26461
20
-1.41815
11
1.26537
21
-1.41801
0
LINE
8
BLACK
6
CONTINUOUS
10
1.26537
20
-1.41801
11
1.26609
21
-1.41775
0
LINE
8
BLACK
6
CONTINUOUS
10
1.26609
20
-1.41775
11
1.27172
21
-1.41775
0
LINE
8
BLACK
6
CONTINUOUS
10
1.27172
20
-1.41775
11
1.27273
21
-1.41793
0
LINE
8
BLACK
6
CONTINUOUS
10
1.27273
20
-1.41793
11
1.27427
21
-1.41923
0
LINE
8
BLACK
6
CONTINUOUS
10
1.27427
20
-1.41923
11
1.27462
21
-1.42122
0
LINE
8
BLACK
6
CONTINUOUS
10
1.27462
20
-1.42122
11
1.27361
21
-1.42296
0
LINE
8
BLACK
6
CONTINUOUS
10
1.27361
20
-1.42296
11
1.27172
21
-1.42366
0
LINE
8
BLACK
6
CONTINUOUS
10
1.27172
20
-1.42366
11
1.26904
21
-1.42366
0
LINE
8
BLACK
6
CONTINUOUS
10
1.26904
20
-1.42366
11
1.26904
21
-1.42932
0
LINE
8
BLACK
6
CONTINUOUS
10
1.26904
20
-1.42932
11
1.26909
21
-1.42937
0
LINE
8
BLACK
6
CONTINUOUS
10
1.26909
20
-1.42937
11
1.27219
21
-1.4304
0
LINE
8
BLACK
6
CONTINUOUS
10
1.27219
20
-1.4304
11
1.27405
21
-1.4304
0
LINE
8
BLACK
6
CONTINUOUS
10
1.27405
20
-1.4304
11
1.27715
21
-1.42937
0
LINE
8
BLACK
6
CONTINUOUS
10
1.27715
20
-1.42937
11
1.27913
21
-1.42739
0
LINE
8
BLACK
6
CONTINUOUS
10
1.27913
20
-1.42739
11
1.28018
21
-1.4253
0
LINE
8
BLACK
6
CONTINUOUS
10
1.28018
20
-1.4253
11
1.28142
21
-1.42034
0
LINE
8
BLACK
6
CONTINUOUS
10
1.28142
20
-1.42034
11
1.28142
21
-1.41685
0
LINE
8
BLACK
6
CONTINUOUS
10
1.28142
20
-1.41685
11
1.28018
21
-1.41189
0
LINE
8
BLACK
6
CONTINUOUS
10
1.28018
20
-1.41189
11
1.27913
21
-1.4098
0
LINE
8
BLACK
6
CONTINUOUS
10
1.27913
20
-1.4098
11
1.27715
21
-1.40782
0
LINE
8
BLACK
6
CONTINUOUS
10
1.27715
20
-1.40782
11
1.27405
21
-1.40678
0
LINE
8
BLACK
6
CONTINUOUS
10
1.27405
20
-1.40678
11
1.27101
21
-1.40678
0
LINE
8
BLACK
6
CONTINUOUS
10
1.27101
20
-1.40678
11
1.26882
21
-1.40788
0
LINE
8
BLACK
6
CONTINUOUS
10
1.26882
20
-1.40788
11
1.26783
21
-1.40817
0
LINE
8
BLACK
6
CONTINUOUS
10
1.26783
20
-1.40817
11
1.26587
21
-1.4077
0
LINE
8
BLACK
6
CONTINUOUS
10
1.26587
20
-1.4077
11
1.26467
21
-1.40608
0
LINE
8
BLACK
6
CONTINUOUS
10
1.26467
20
-1.40608
11
1.26479
21
-1.40406
0
LINE
8
BLACK
6
CONTINUOUS
10
1.26479
20
-1.40406
11
1.26618
21
-1.4026
0
LINE
8
BLACK
6
CONTINUOUS
10
1.26618
20
-1.4026
11
1.26899
21
-1.40119
0
LINE
8
BLACK
6
CONTINUOUS
10
1.26899
20
-1.40119
11
1.26997
21
-1.4009
0
LINE
8
BLACK
6
CONTINUOUS
10
1.26997
20
-1.4009
11
1.27014
21
-1.40094
0
LINE
8
BLACK
6
CONTINUOUS
10
1.27014
20
-1.40094
11
1.27031
21
-1.40088
0
LINE
8
BLACK
6
CONTINUOUS
10
1.27031
20
-1.40088
11
1.27453
21
-1.40088
0
LINE
8
BLACK
6
CONTINUOUS
10
1.27453
20
-1.40088
11
1.2754
21
-1.40103
0
LINE
8
BLACK
6
CONTINUOUS
10
1.22289
20
-1.40094
11
1.22302
21
-1.40092
0
LINE
8
BLACK
6
CONTINUOUS
10
1.22302
20
-1.40092
11
1.22313
21
-1.40099
0
LINE
8
BLACK
6
CONTINUOUS
10
1.22313
20
-1.40099
11
1.22351
21
-1.40106
0
LINE
8
BLACK
6
CONTINUOUS
10
1.22351
20
-1.40106
11
1.2241
21
-1.40155
0
LINE
8
BLACK
6
CONTINUOUS
10
1.2241
20
-1.40155
11
1.22476
21
-1.40193
0
LINE
8
BLACK
6
CONTINUOUS
10
1.22476
20
-1.40193
11
1.22486
21
-1.40218
0
LINE
8
BLACK
6
CONTINUOUS
10
1.22486
20
-1.40218
11
1.22506
21
-1.40235
0
LINE
8
BLACK
6
CONTINUOUS
10
1.22506
20
-1.40235
11
1.22519
21
-1.40311
0
LINE
8
BLACK
6
CONTINUOUS
10
1.22519
20
-1.40311
11
1.22546
21
-1.40383
0
LINE
8
BLACK
6
CONTINUOUS
10
1.22546
20
-1.40383
11
1.22546
21
-1.43336
0
LINE
8
BLACK
6
CONTINUOUS
10
1.22546
20
-1.43336
11
1.22539
21
-1.43374
0
LINE
8
BLACK
6
CONTINUOUS
10
1.22539
20
-1.43374
11
1.22541
21
-1.43387
0
LINE
8
BLACK
6
CONTINUOUS
10
1.22541
20
-1.43387
11
1.22535
21
-1.43398
0
LINE
8
BLACK
6
CONTINUOUS
10
1.22535
20
-1.43398
11
1.22528
21
-1.43437
0
LINE
8
BLACK
6
CONTINUOUS
10
1.22528
20
-1.43437
11
1.22478
21
-1.43496
0
LINE
8
BLACK
6
CONTINUOUS
10
1.22478
20
-1.43496
11
1.2244
21
-1.43562
0
LINE
8
BLACK
6
CONTINUOUS
10
1.2244
20
-1.43562
11
1.22415
21
-1.43571
0
LINE
8
BLACK
6
CONTINUOUS
10
1.22415
20
-1.43571
11
1.22398
21
-1.43591
0
LINE
8
BLACK
6
CONTINUOUS
10
1.22398
20
-1.43591
11
1.22322
21
-1.43605
0
LINE
8
BLACK
6
CONTINUOUS
10
1.22322
20
-1.43605
11
1.2225
21
-1.43631
0
LINE
8
BLACK
6
CONTINUOUS
10
1.2225
20
-1.43631
11
1.21547
21
-1.43631
0
LINE
8
BLACK
6
CONTINUOUS
10
1.21547
20
-1.43631
11
1.2146
21
-1.43616
0
LINE
8
BLACK
6
CONTINUOUS
10
1.2146
20
-1.43616
11
1.21454
21
-1.43616
0
LINE
8
BLACK
6
CONTINUOUS
10
1.21454
20
-1.43616
11
1.21032
21
-1.43475
0
LINE
8
BLACK
6
CONTINUOUS
10
1.21032
20
-1.43475
11
1.20942
21
-1.43426
0
LINE
8
BLACK
6
CONTINUOUS
10
1.20942
20
-1.43426
11
1.20933
21
-1.43411
0
LINE
8
BLACK
6
CONTINUOUS
10
1.20933
20
-1.43411
11
1.20917
21
-1.43404
0
LINE
8
BLACK
6
CONTINUOUS
10
1.20917
20
-1.43404
11
1.20635
21
-1.43123
0
LINE
8
BLACK
6
CONTINUOUS
10
1.20635
20
-1.43123
11
1.20585
21
-1.4305
0
LINE
8
BLACK
6
CONTINUOUS
10
1.20585
20
-1.4305
11
1.2058
21
-1.43046
0
LINE
8
BLACK
6
CONTINUOUS
10
1.2058
20
-1.43046
11
1.20439
21
-1.42765
0
LINE
8
BLACK
6
CONTINUOUS
10
1.20439
20
-1.42765
11
1.20425
21
-1.42716
0
LINE
8
BLACK
6
CONTINUOUS
10
1.20425
20
-1.42716
11
1.20417
21
-1.42704
0
LINE
8
BLACK
6
CONTINUOUS
10
1.20417
20
-1.42704
11
1.20277
21
-1.42142
0
LINE
8
BLACK
6
CONTINUOUS
10
1.20277
20
-1.42142
11
1.20272
21
-1.42083
0
LINE
8
BLACK
6
CONTINUOUS
10
1.20272
20
-1.42083
11
1.20268
21
-1.4207
0
LINE
8
BLACK
6
CONTINUOUS
10
1.20268
20
-1.4207
11
1.20268
21
-1.41648
0
LINE
8
BLACK
6
CONTINUOUS
10
1.20268
20
-1.41648
11
1.20278
21
-1.4159
0
LINE
8
BLACK
6
CONTINUOUS
10
1.20278
20
-1.4159
11
1.20277
21
-1.41577
0
LINE
8
BLACK
6
CONTINUOUS
10
1.20277
20
-1.41577
11
1.20417
21
-1.41014
0
LINE
8
BLACK
6
CONTINUOUS
10
1.20417
20
-1.41014
11
1.20438
21
-1.40968
0
LINE
8
BLACK
6
CONTINUOUS
10
1.20438
20
-1.40968
11
1.20439
21
-1.40954
0
LINE
8
BLACK
6
CONTINUOUS
10
1.20439
20
-1.40954
11
1.2058
21
-1.40673
0
LINE
8
BLACK
6
CONTINUOUS
10
1.2058
20
-1.40673
11
1.20633
21
-1.40602
0
LINE
8
BLACK
6
CONTINUOUS
10
1.20633
20
-1.40602
11
1.20635
21
-1.40596
0
LINE
8
BLACK
6
CONTINUOUS
10
1.20635
20
-1.40596
11
1.20917
21
-1.40315
0
LINE
8
BLACK
6
CONTINUOUS
10
1.20917
20
-1.40315
11
1.21001
21
-1.40256
0
LINE
8
BLACK
6
CONTINUOUS
10
1.21001
20
-1.40256
11
1.21018
21
-1.40254
0
LINE
8
BLACK
6
CONTINUOUS
10
1.21018
20
-1.40254
11
1.21032
21
-1.40243
0
LINE
8
BLACK
6
CONTINUOUS
10
1.21032
20
-1.40243
11
1.21454
21
-1.40103
0
LINE
8
BLACK
6
CONTINUOUS
10
1.21454
20
-1.40103
11
1.21541
21
-1.4009
0
LINE
8
BLACK
6
CONTINUOUS
10
1.21541
20
-1.4009
11
1.21547
21
-1.40088
0
LINE
8
BLACK
6
CONTINUOUS
10
1.21547
20
-1.40088
11
1.2225
21
-1.40088
0
LINE
8
BLACK
6
CONTINUOUS
10
1.2225
20
-1.40088
11
1.22289
21
-1.40094
0
LINE
8
BLACK
6
CONTINUOUS
10
1.21595
20
-1.40678
11
1.21285
21
-1.40782
0
LINE
8
BLACK
6
CONTINUOUS
10
1.21285
20
-1.40782
11
1.21087
21
-1.4098
0
LINE
8
BLACK
6
CONTINUOUS
10
1.21087
20
-1.4098
11
1.20982
21
-1.41189
0
LINE
8
BLACK
6
CONTINUOUS
10
1.20982
20
-1.41189
11
1.20858
21
-1.41685
0
LINE
8
BLACK
6
CONTINUOUS
10
1.20858
20
-1.41685
11
1.20858
21
-1.42034
0
LINE
8
BLACK
6
CONTINUOUS
10
1.20858
20
-1.42034
11
1.20982
21
-1.4253
0
LINE
8
BLACK
6
CONTINUOUS
10
1.20982
20
-1.4253
11
1.21087
21
-1.42739
0
LINE
8
BLACK
6
CONTINUOUS
10
1.21087
20
-1.42739
11
1.21285
21
-1.42937
0
LINE
8
BLACK
6
CONTINUOUS
10
1.21285
20
-1.42937
11
1.21595
21
-1.4304
0
LINE
8
BLACK
6
CONTINUOUS
10
1.21595
20
-1.4304
11
1.21955
21
-1.4304
0
LINE
8
BLACK
6
CONTINUOUS
10
1.21955
20
-1.4304
11
1.21955
21
-1.40678
0
LINE
8
BLACK
6
CONTINUOUS
10
1.21955
20
-1.40678
11
1.21595
21
-1.40678
0
LINE
8
BLACK
6
CONTINUOUS
10
1.47595
20
-1.40094
11
1.47608
21
-1.40092
0
LINE
8
BLACK
6
CONTINUOUS
10
1.47608
20
-1.40092
11
1.4762
21
-1.40099
0
LINE
8
BLACK
6
CONTINUOUS
10
1.4762
20
-1.40099
11
1.47658
21
-1.40106
0
LINE
8
BLACK
6
CONTINUOUS
10
1.47658
20
-1.40106
11
1.47717
21
-1.40155
0
LINE
8
BLACK
6
CONTINUOUS
10
1.47717
20
-1.40155
11
1.47783
21
-1.40193
0
LINE
8
BLACK
6
CONTINUOUS
10
1.47783
20
-1.40193
11
1.47792
21
-1.40218
0
LINE
8
BLACK
6
CONTINUOUS
10
1.47792
20
-1.40218
11
1.47813
21
-1.40235
0
LINE
8
BLACK
6
CONTINUOUS
10
1.47813
20
-1.40235
11
1.47826
21
-1.40311
0
LINE
8
BLACK
6
CONTINUOUS
10
1.47826
20
-1.40311
11
1.47852
21
-1.40383
0
LINE
8
BLACK
6
CONTINUOUS
10
1.47852
20
-1.40383
11
1.47852
21
-1.43336
0
LINE
8
BLACK
6
CONTINUOUS
10
1.47852
20
-1.43336
11
1.47846
21
-1.43374
0
LINE
8
BLACK
6
CONTINUOUS
10
1.47846
20
-1.43374
11
1.47848
21
-1.43387
0
LINE
8
BLACK
6
CONTINUOUS
10
1.47848
20
-1.43387
11
1.47841
21
-1.43398
0
LINE
8
BLACK
6
CONTINUOUS
10
1.47841
20
-1.43398
11
1.47834
21
-1.43437
0
LINE
8
BLACK
6
CONTINUOUS
10
1.47834
20
-1.43437
11
1.47785
21
-1.43496
0
LINE
8
BLACK
6
CONTINUOUS
10
1.47785
20
-1.43496
11
1.47747
21
-1.43562
0
LINE
8
BLACK
6
CONTINUOUS
10
1.47747
20
-1.43562
11
1.47722
21
-1.43571
0
LINE
8
BLACK
6
CONTINUOUS
10
1.47722
20
-1.43571
11
1.47705
21
-1.43591
0
LINE
8
BLACK
6
CONTINUOUS
10
1.47705
20
-1.43591
11
1.47629
21
-1.43605
0
LINE
8
BLACK
6
CONTINUOUS
10
1.47629
20
-1.43605
11
1.47557
21
-1.43631
0
LINE
8
BLACK
6
CONTINUOUS
10
1.47557
20
-1.43631
11
1.46854
21
-1.43631
0
LINE
8
BLACK
6
CONTINUOUS
10
1.46854
20
-1.43631
11
1.46767
21
-1.43616
0
LINE
8
BLACK
6
CONTINUOUS
10
1.46767
20
-1.43616
11
1.46761
21
-1.43616
0
LINE
8
BLACK
6
CONTINUOUS
10
1.46761
20
-1.43616
11
1.46339
21
-1.43475
0
LINE
8
BLACK
6
CONTINUOUS
10
1.46339
20
-1.43475
11
1.46249
21
-1.43426
0
LINE
8
BLACK
6
CONTINUOUS
10
1.46249
20
-1.43426
11
1.46239
21
-1.43411
0
LINE
8
BLACK
6
CONTINUOUS
10
1.46239
20
-1.43411
11
1.46223
21
-1.43404
0
LINE
8
BLACK
6
CONTINUOUS
10
1.46223
20
-1.43404
11
1.45942
21
-1.43123
0
LINE
8
BLACK
6
CONTINUOUS
10
1.45942
20
-1.43123
11
1.45891
21
-1.4305
0
LINE
8
BLACK
6
CONTINUOUS
10
1.45891
20
-1.4305
11
1.45887
21
-1.43046
0
LINE
8
BLACK
6
CONTINUOUS
10
1.45887
20
-1.43046
11
1.45746
21
-1.42765
0
LINE
8
BLACK
6
CONTINUOUS
10
1.45746
20
-1.42765
11
1.45732
21
-1.42716
0
LINE
8
BLACK
6
CONTINUOUS
10
1.45732
20
-1.42716
11
1.45724
21
-1.42704
0
LINE
8
BLACK
6
CONTINUOUS
10
1.45724
20
-1.42704
11
1.45583
21
-1.42142
0
LINE
8
BLACK
6
CONTINUOUS
10
1.45583
20
-1.42142
11
1.45579
21
-1.42083
0
LINE
8
BLACK
6
CONTINUOUS
10
1.45579
20
-1.42083
11
1.45574
21
-1.4207
0
LINE
8
BLACK
6
CONTINUOUS
10
1.45574
20
-1.4207
11
1.45574
21
-1.41648
0
LINE
8
BLACK
6
CONTINUOUS
10
1.45574
20
-1.41648
11
1.45585
21
-1.4159
0
LINE
8
BLACK
6
CONTINUOUS
10
1.45585
20
-1.4159
11
1.45583
21
-1.41577
0
LINE
8
BLACK
6
CONTINUOUS
10
1.45583
20
-1.41577
11
1.45724
21
-1.41014
0
LINE
8
BLACK
6
CONTINUOUS
10
1.45724
20
-1.41014
11
1.45745
21
-1.40968
0
LINE
8
BLACK
6
CONTINUOUS
10
1.45745
20
-1.40968
11
1.45746
21
-1.40954
0
LINE
8
BLACK
6
CONTINUOUS
10
1.45746
20
-1.40954
11
1.45887
21
-1.40673
0
LINE
8
BLACK
6
CONTINUOUS
10
1.45887
20
-1.40673
11
1.45939
21
-1.40602
0
LINE
8
BLACK
6
CONTINUOUS
10
1.45939
20
-1.40602
11
1.45942
21
-1.40596
0
LINE
8
BLACK
6
CONTINUOUS
10
1.45942
20
-1.40596
11
1.46223
21
-1.40315
0
LINE
8
BLACK
6
CONTINUOUS
10
1.46223
20
-1.40315
11
1.46307
21
-1.40256
0
LINE
8
BLACK
6
CONTINUOUS
10
1.46307
20
-1.40256
11
1.46325
21
-1.40254
0
LINE
8
BLACK
6
CONTINUOUS
10
1.46325
20
-1.40254
11
1.46339
21
-1.40243
0
LINE
8
BLACK
6
CONTINUOUS
10
1.46339
20
-1.40243
11
1.46761
21
-1.40103
0
LINE
8
BLACK
6
CONTINUOUS
10
1.46761
20
-1.40103
11
1.46848
21
-1.4009
0
LINE
8
BLACK
6
CONTINUOUS
10
1.46848
20
-1.4009
11
1.46854
21
-1.40088
0
LINE
8
BLACK
6
CONTINUOUS
10
1.46854
20
-1.40088
11
1.47557
21
-1.40088
0
LINE
8
BLACK
6
CONTINUOUS
10
1.47557
20
-1.40088
11
1.47595
21
-1.40094
0
LINE
8
BLACK
6
CONTINUOUS
10
1.46902
20
-1.40678
11
1.46592
21
-1.40782
0
LINE
8
BLACK
6
CONTINUOUS
10
1.46592
20
-1.40782
11
1.46394
21
-1.4098
0
LINE
8
BLACK
6
CONTINUOUS
10
1.46394
20
-1.4098
11
1.46289
21
-1.41189
0
LINE
8
BLACK
6
CONTINUOUS
10
1.46289
20
-1.41189
11
1.46165
21
-1.41685
0
LINE
8
BLACK
6
CONTINUOUS
10
1.46165
20
-1.41685
11
1.46165
21
-1.42034
0
LINE
8
BLACK
6
CONTINUOUS
10
1.46165
20
-1.42034
11
1.46289
21
-1.4253
0
LINE
8
BLACK
6
CONTINUOUS
10
1.46289
20
-1.4253
11
1.46394
21
-1.42739
0
LINE
8
BLACK
6
CONTINUOUS
10
1.46394
20
-1.42739
11
1.46592
21
-1.42937
0
LINE
8
BLACK
6
CONTINUOUS
10
1.46592
20
-1.42937
11
1.46902
21
-1.4304
0
LINE
8
BLACK
6
CONTINUOUS
10
1.46902
20
-1.4304
11
1.47262
21
-1.4304
0
LINE
8
BLACK
6
CONTINUOUS
10
1.47262
20
-1.4304
11
1.47262
21
-1.40678
0
LINE
8
BLACK
6
CONTINUOUS
10
1.47262
20
-1.40678
11
1.46902
21
-1.40678
0
LINE
8
BLACK
6
CONTINUOUS
10
1.52775
20
-1.40103
11
1.52781
21
-1.40103
0
LINE
8
BLACK
6
CONTINUOUS
10
1.52781
20
-1.40103
11
1.53203
21
-1.40243
0
LINE
8
BLACK
6
CONTINUOUS
10
1.53203
20
-1.40243
11
1.53293
21
-1.40292
0
LINE
8
BLACK
6
CONTINUOUS
10
1.53293
20
-1.40292
11
1.53302
21
-1.40307
0
LINE
8
BLACK
6
CONTINUOUS
10
1.53302
20
-1.40307
11
1.53318
21
-1.40315
0
LINE
8
BLACK
6
CONTINUOUS
10
1.53318
20
-1.40315
11
1.536
21
-1.40596
0
LINE
8
BLACK
6
CONTINUOUS
10
1.536
20
-1.40596
11
1.5365
21
-1.40668
0
LINE
8
BLACK
6
CONTINUOUS
10
1.5365
20
-1.40668
11
1.53655
21
-1.40673
0
LINE
8
BLACK
6
CONTINUOUS
10
1.53655
20
-1.40673
11
1.53796
21
-1.40954
0
LINE
8
BLACK
6
CONTINUOUS
10
1.53796
20
-1.40954
11
1.5381
21
-1.41003
0
LINE
8
BLACK
6
CONTINUOUS
10
1.5381
20
-1.41003
11
1.53818
21
-1.41014
0
LINE
8
BLACK
6
CONTINUOUS
10
1.53818
20
-1.41014
11
1.53959
21
-1.41577
0
LINE
8
BLACK
6
CONTINUOUS
10
1.53959
20
-1.41577
11
1.53963
21
-1.41636
0
LINE
8
BLACK
6
CONTINUOUS
10
1.53963
20
-1.41636
11
1.53967
21
-1.41648
0
LINE
8
BLACK
6
CONTINUOUS
10
1.53967
20
-1.41648
11
1.53967
21
-1.4207
0
LINE
8
BLACK
6
CONTINUOUS
10
1.53967
20
-1.4207
11
1.53957
21
-1.42128
0
LINE
8
BLACK
6
CONTINUOUS
10
1.53957
20
-1.42128
11
1.53959
21
-1.42142
0
LINE
8
BLACK
6
CONTINUOUS
10
1.53959
20
-1.42142
11
1.53818
21
-1.42704
0
LINE
8
BLACK
6
CONTINUOUS
10
1.53818
20
-1.42704
11
1.53797
21
-1.42751
0
LINE
8
BLACK
6
CONTINUOUS
10
1.53797
20
-1.42751
11
1.53796
21
-1.42765
0
LINE
8
BLACK
6
CONTINUOUS
10
1.53796
20
-1.42765
11
1.53655
21
-1.43046
0
LINE
8
BLACK
6
CONTINUOUS
10
1.53655
20
-1.43046
11
1.53602
21
-1.43117
0
LINE
8
BLACK
6
CONTINUOUS
10
1.53602
20
-1.43117
11
1.536
21
-1.43123
0
LINE
8
BLACK
6
CONTINUOUS
10
1.536
20
-1.43123
11
1.53318
21
-1.43404
0
LINE
8
BLACK
6
CONTINUOUS
10
1.53318
20
-1.43404
11
1.53234
21
-1.43463
0
LINE
8
BLACK
6
CONTINUOUS
10
1.53234
20
-1.43463
11
1.53217
21
-1.43464
0
LINE
8
BLACK
6
CONTINUOUS
10
1.53217
20
-1.43464
11
1.53203
21
-1.43475
0
LINE
8
BLACK
6
CONTINUOUS
10
1.53203
20
-1.43475
11
1.52781
21
-1.43616
0
LINE
8
BLACK
6
CONTINUOUS
10
1.52781
20
-1.43616
11
1.52694
21
-1.43629
0
LINE
8
BLACK
6
CONTINUOUS
10
1.52694
20
-1.43629
11
1.52688
21
-1.43631
0
LINE
8
BLACK
6
CONTINUOUS
10
1.52688
20
-1.43631
11
1.52407
21
-1.43631
0
LINE
8
BLACK
6
CONTINUOUS
10
1.52407
20
-1.43631
11
1.5232
21
-1.43616
0
LINE
8
BLACK
6
CONTINUOUS
10
1.5232
20
-1.43616
11
1.52313
21
-1.43616
0
LINE
8
BLACK
6
CONTINUOUS
10
1.52313
20
-1.43616
11
1.51891
21
-1.43475
0
LINE
8
BLACK
6
CONTINUOUS
10
1.51891
20
-1.43475
11
1.51801
21
-1.43426
0
LINE
8
BLACK
6
CONTINUOUS
10
1.51801
20
-1.43426
11
1.51792
21
-1.43411
0
LINE
8
BLACK
6
CONTINUOUS
10
1.51792
20
-1.43411
11
1.51776
21
-1.43404
0
LINE
8
BLACK
6
CONTINUOUS
10
1.51776
20
-1.43404
11
1.51635
21
-1.43263
0
LINE
8
BLACK
6
CONTINUOUS
10
1.51635
20
-1.43263
11
1.51577
21
-1.43179
0
LINE
8
BLACK
6
CONTINUOUS
10
1.51577
20
-1.43179
11
1.51559
21
-1.42978
0
LINE
8
BLACK
6
CONTINUOUS
10
1.51559
20
-1.42978
11
1.51675
21
-1.42813
0
LINE
8
BLACK
6
CONTINUOUS
10
1.51675
20
-1.42813
11
1.5187
21
-1.4276
0
LINE
8
BLACK
6
CONTINUOUS
10
1.5187
20
-1.4276
11
1.52053
21
-1.42846
0
LINE
8
BLACK
6
CONTINUOUS
10
1.52053
20
-1.42846
11
1.52144
21
-1.42937
0
LINE
8
BLACK
6
CONTINUOUS
10
1.52144
20
-1.42937
11
1.52455
21
-1.4304
0
LINE
8
BLACK
6
CONTINUOUS
10
1.52455
20
-1.4304
11
1.5264
21
-1.4304
0
LINE
8
BLACK
6
CONTINUOUS
10
1.5264
20
-1.4304
11
1.5295
21
-1.42937
0
LINE
8
BLACK
6
CONTINUOUS
10
1.5295
20
-1.42937
11
1.53148
21
-1.42739
0
LINE
8
BLACK
6
CONTINUOUS
10
1.53148
20
-1.42739
11
1.53253
21
-1.4253
0
LINE
8
BLACK
6
CONTINUOUS
10
1.53253
20
-1.4253
11
1.53377
21
-1.42034
0
LINE
8
BLACK
6
CONTINUOUS
10
1.53377
20
-1.42034
11
1.53377
21
-1.41685
0
LINE
8
BLACK
6
CONTINUOUS
10
1.53377
20
-1.41685
11
1.53253
21
-1.41189
0
LINE
8
BLACK
6
CONTINUOUS
10
1.53253
20
-1.41189
11
1.53148
21
-1.4098
0
LINE
8
BLACK
6
CONTINUOUS
10
1.53148
20
-1.4098
11
1.5295
21
-1.40782
0
LINE
8
BLACK
6
CONTINUOUS
10
1.5295
20
-1.40782
11
1.5264
21
-1.40678
0
LINE
8
BLACK
6
CONTINUOUS
10
1.5264
20
-1.40678
11
1.52455
21
-1.40678
0
LINE
8
BLACK
6
CONTINUOUS
10
1.52455
20
-1.40678
11
1.52144
21
-1.40782
0
LINE
8
BLACK
6
CONTINUOUS
10
1.52144
20
-1.40782
11
1.52053
21
-1.40873
0
LINE
8
BLACK
6
CONTINUOUS
10
1.52053
20
-1.40873
11
1.51969
21
-1.40932
0
LINE
8
BLACK
6
CONTINUOUS
10
1.51969
20
-1.40932
11
1.51768
21
-1.40949
0
LINE
8
BLACK
6
CONTINUOUS
10
1.51768
20
-1.40949
11
1.51602
21
-1.40834
0
LINE
8
BLACK
6
CONTINUOUS
10
1.51602
20
-1.40834
11
1.5155
21
-1.40638
0
LINE
8
BLACK
6
CONTINUOUS
10
1.5155
20
-1.40638
11
1.51635
21
-1.40455
0
LINE
8
BLACK
6
CONTINUOUS
10
1.51635
20
-1.40455
11
1.51776
21
-1.40315
0
LINE
8
BLACK
6
CONTINUOUS
10
1.51776
20
-1.40315
11
1.5186
21
-1.40256
0
LINE
8
BLACK
6
CONTINUOUS
10
1.5186
20
-1.40256
11
1.51878
21
-1.40254
0
LINE
8
BLACK
6
CONTINUOUS
10
1.51878
20
-1.40254
11
1.51891
21
-1.40243
0
LINE
8
BLACK
6
CONTINUOUS
10
1.51891
20
-1.40243
11
1.52313
21
-1.40103
0
LINE
8
BLACK
6
CONTINUOUS
10
1.52313
20
-1.40103
11
1.52401
21
-1.4009
0
LINE
8
BLACK
6
CONTINUOUS
10
1.52401
20
-1.4009
11
1.52407
21
-1.40088
0
LINE
8
BLACK
6
CONTINUOUS
10
1.52407
20
-1.40088
11
1.52688
21
-1.40088
0
LINE
8
BLACK
6
CONTINUOUS
10
1.52688
20
-1.40088
11
1.52775
21
-1.40103
0
LINE
8
BLACK
6
CONTINUOUS
10
1.55728
20
-1.40103
11
1.55734
21
-1.40103
0
LINE
8
BLACK
6
CONTINUOUS
10
1.55734
20
-1.40103
11
1.56156
21
-1.40243
0
LINE
8
BLACK
6
CONTINUOUS
10
1.56156
20
-1.40243
11
1.56246
21
-1.40292
0
LINE
8
BLACK
6
CONTINUOUS
10
1.56246
20
-1.40292
11
1.56255
21
-1.40307
0
LINE
8
BLACK
6
CONTINUOUS
10
1.56255
20
-1.40307
11
1.56271
21
-1.40315
0
LINE
8
BLACK
6
CONTINUOUS
10
1.56271
20
-1.40315
11
1.56552
21
-1.40596
0
LINE
8
BLACK
6
CONTINUOUS
10
1.56552
20
-1.40596
11
1.56603
21
-1.40668
0
LINE
8
BLACK
6
CONTINUOUS
10
1.56603
20
-1.40668
11
1.56608
21
-1.40673
0
LINE
8
BLACK
6
CONTINUOUS
10
1.56608
20
-1.40673
11
1.56748
21
-1.40954
0
LINE
8
BLACK
6
CONTINUOUS
10
1.56748
20
-1.40954
11
1.56763
21
-1.41003
0
LINE
8
BLACK
6
CONTINUOUS
10
1.56763
20
-1.41003
11
1.56771
21
-1.41014
0
LINE
8
BLACK
6
CONTINUOUS
10
1.56771
20
-1.41014
11
1.56911
21
-1.41577
0
LINE
8
BLACK
6
CONTINUOUS
10
1.56911
20
-1.41577
11
1.56915
21
-1.41636
0
LINE
8
BLACK
6
CONTINUOUS
10
1.56915
20
-1.41636
11
1.5692
21
-1.41648
0
LINE
8
BLACK
6
CONTINUOUS
10
1.5692
20
-1.41648
11
1.5692
21
-1.4207
0
LINE
8
BLACK
6
CONTINUOUS
10
1.5692
20
-1.4207
11
1.5691
21
-1.42128
0
LINE
8
BLACK
6
CONTINUOUS
10
1.5691
20
-1.42128
11
1.56911
21
-1.42142
0
LINE
8
BLACK
6
CONTINUOUS
10
1.56911
20
-1.42142
11
1.56771
21
-1.42704
0
LINE
8
BLACK
6
CONTINUOUS
10
1.56771
20
-1.42704
11
1.5675
21
-1.42751
0
LINE
8
BLACK
6
CONTINUOUS
10
1.5675
20
-1.42751
11
1.56748
21
-1.42765
0
LINE
8
BLACK
6
CONTINUOUS
10
1.56748
20
-1.42765
11
1.56608
21
-1.43046
0
LINE
8
BLACK
6
CONTINUOUS
10
1.56608
20
-1.43046
11
1.56555
21
-1.43117
0
LINE
8
BLACK
6
CONTINUOUS
10
1.56555
20
-1.43117
11
1.56552
21
-1.43123
0
LINE
8
BLACK
6
CONTINUOUS
10
1.56552
20
-1.43123
11
1.56271
21
-1.43404
0
LINE
8
BLACK
6
CONTINUOUS
10
1.56271
20
-1.43404
11
1.56187
21
-1.43463
0
LINE
8
BLACK
6
CONTINUOUS
10
1.56187
20
-1.43463
11
1.5617
21
-1.43464
0
LINE
8
BLACK
6
CONTINUOUS
10
1.5617
20
-1.43464
11
1.56156
21
-1.43475
0
LINE
8
BLACK
6
CONTINUOUS
10
1.56156
20
-1.43475
11
1.55734
21
-1.43616
0
LINE
8
BLACK
6
CONTINUOUS
10
1.55734
20
-1.43616
11
1.55647
21
-1.43629
0
LINE
8
BLACK
6
CONTINUOUS
10
1.55647
20
-1.43629
11
1.55641
21
-1.43631
0
LINE
8
BLACK
6
CONTINUOUS
10
1.55641
20
-1.43631
11
1.55359
21
-1.43631
0
LINE
8
BLACK
6
CONTINUOUS
10
1.55359
20
-1.43631
11
1.55272
21
-1.43616
0
LINE
8
BLACK
6
CONTINUOUS
10
1.55272
20
-1.43616
11
1.55266
21
-1.43616
0
LINE
8
BLACK
6
CONTINUOUS
10
1.55266
20
-1.43616
11
1.54844
21
-1.43475
0
LINE
8
BLACK
6
CONTINUOUS
10
1.54844
20
-1.43475
11
1.54754
21
-1.43426
0
LINE
8
BLACK
6
CONTINUOUS
10
1.54754
20
-1.43426
11
1.54745
21
-1.43411
0
LINE
8
BLACK
6
CONTINUOUS
10
1.54745
20
-1.43411
11
1.54729
21
-1.43404
0
LINE
8
BLACK
6
CONTINUOUS
10
1.54729
20
-1.43404
11
1.54588
21
-1.43263
0
LINE
8
BLACK
6
CONTINUOUS
10
1.54588
20
-1.43263
11
1.54529
21
-1.43179
0
LINE
8
BLACK
6
CONTINUOUS
10
1.54529
20
-1.43179
11
1.54512
21
-1.42978
0
LINE
8
BLACK
6
CONTINUOUS
10
1.54512
20
-1.42978
11
1.54628
21
-1.42813
0
LINE
8
BLACK
6
CONTINUOUS
10
1.54628
20
-1.42813
11
1.54823
21
-1.4276
0
LINE
8
BLACK
6
CONTINUOUS
10
1.54823
20
-1.4276
11
1.55006
21
-1.42846
0
LINE
8
BLACK
6
CONTINUOUS
10
1.55006
20
-1.42846
11
1.55097
21
-1.42937
0
LINE
8
BLACK
6
CONTINUOUS
10
1.55097
20
-1.42937
11
1.55407
21
-1.4304
0
LINE
8
BLACK
6
CONTINUOUS
10
1.55407
20
-1.4304
11
1.55593
21
-1.4304
0
LINE
8
BLACK
6
CONTINUOUS
10
1.55593
20
-1.4304
11
1.55903
21
-1.42937
0
LINE
8
BLACK
6
CONTINUOUS
10
1.55903
20
-1.42937
11
1.56101
21
-1.42739
0
LINE
8
BLACK
6
CONTINUOUS
10
1.56101
20
-1.42739
11
1.56206
21
-1.4253
0
LINE
8
BLACK
6
CONTINUOUS
10
1.56206
20
-1.4253
11
1.5633
21
-1.42034
0
LINE
8
BLACK
6
CONTINUOUS
10
1.5633
20
-1.42034
11
1.5633
21
-1.41685
0
LINE
8
BLACK
6
CONTINUOUS
10
1.5633
20
-1.41685
11
1.56206
21
-1.41189
0
LINE
8
BLACK
6
CONTINUOUS
10
1.56206
20
-1.41189
11
1.56101
21
-1.4098
0
LINE
8
BLACK
6
CONTINUOUS
10
1.56101
20
-1.4098
11
1.55903
21
-1.40782
0
LINE
8
BLACK
6
CONTINUOUS
10
1.55903
20
-1.40782
11
1.55593
21
-1.40678
0
LINE
8
BLACK
6
CONTINUOUS
10
1.55593
20
-1.40678
11
1.55407
21
-1.40678
0
LINE
8
BLACK
6
CONTINUOUS
10
1.55407
20
-1.40678
11
1.55097
21
-1.40782
0
LINE
8
BLACK
6
CONTINUOUS
10
1.55097
20
-1.40782
11
1.55006
21
-1.40873
0
LINE
8
BLACK
6
CONTINUOUS
10
1.55006
20
-1.40873
11
1.54922
21
-1.40932
0
LINE
8
BLACK
6
CONTINUOUS
10
1.54922
20
-1.40932
11
1.54721
21
-1.40949
0
LINE
8
BLACK
6
CONTINUOUS
10
1.54721
20
-1.40949
11
1.54555
21
-1.40834
0
LINE
8
BLACK
6
CONTINUOUS
10
1.54555
20
-1.40834
11
1.54503
21
-1.40638
0
LINE
8
BLACK
6
CONTINUOUS
10
1.54503
20
-1.40638
11
1.54588
21
-1.40455
0
LINE
8
BLACK
6
CONTINUOUS
10
1.54588
20
-1.40455
11
1.54729
21
-1.40315
0
LINE
8
BLACK
6
CONTINUOUS
10
1.54729
20
-1.40315
11
1.54813
21
-1.40256
0
LINE
8
BLACK
6
CONTINUOUS
10
1.54813
20
-1.40256
11
1.5483
21
-1.40254
0
LINE
8
BLACK
6
CONTINUOUS
10
1.5483
20
-1.40254
11
1.54844
21
-1.40243
0
LINE
8
BLACK
6
CONTINUOUS
10
1.54844
20
-1.40243
11
1.55266
21
-1.40103
0
LINE
8
BLACK
6
CONTINUOUS
10
1.55266
20
-1.40103
11
1.55353
21
-1.4009
0
LINE
8
BLACK
6
CONTINUOUS
10
1.55353
20
-1.4009
11
1.55359
21
-1.40088
0
LINE
8
BLACK
6
CONTINUOUS
10
1.55359
20
-1.40088
11
1.55641
21
-1.40088
0
LINE
8
BLACK
6
CONTINUOUS
10
1.55641
20
-1.40088
11
1.55728
21
-1.40103
0
LINE
8
BLACK
6
CONTINUOUS
10
1.25368
20
-1.40097
11
1.25395
21
-1.40092
0
LINE
8
BLACK
6
CONTINUOUS
10
1.25395
20
-1.40092
11
1.25461
21
-1.4013
0
LINE
8
BLACK
6
CONTINUOUS
10
1.25461
20
-1.4013
11
1.25532
21
-1.40156
0
LINE
8
BLACK
6
CONTINUOUS
10
1.25532
20
-1.40156
11
1.25546
21
-1.4018
0
LINE
8
BLACK
6
CONTINUOUS
10
1.25546
20
-1.4018
11
1.2557
21
-1.40193
0
LINE
8
BLACK
6
CONTINUOUS
10
1.2557
20
-1.40193
11
1.25596
21
-1.40265
0
LINE
8
BLACK
6
CONTINUOUS
10
1.25596
20
-1.40265
11
1.25634
21
-1.4033
0
LINE
8
BLACK
6
CONTINUOUS
10
1.25634
20
-1.4033
11
1.2563
21
-1.40357
0
LINE
8
BLACK
6
CONTINUOUS
10
1.2563
20
-1.40357
11
1.25639
21
-1.40383
0
LINE
8
BLACK
6
CONTINUOUS
10
1.25639
20
-1.40383
11
1.25639
21
-1.43336
0
LINE
8
BLACK
6
CONTINUOUS
10
1.25639
20
-1.43336
11
1.25621
21
-1.43437
0
LINE
8
BLACK
6
CONTINUOUS
10
1.25621
20
-1.43437
11
1.25491
21
-1.43591
0
LINE
8
BLACK
6
CONTINUOUS
10
1.25491
20
-1.43591
11
1.25292
21
-1.43627
0
LINE
8
BLACK
6
CONTINUOUS
10
1.25292
20
-1.43627
11
1.25117
21
-1.43526
0
LINE
8
BLACK
6
CONTINUOUS
10
1.25117
20
-1.43526
11
1.25048
21
-1.43336
0
LINE
8
BLACK
6
CONTINUOUS
10
1.25048
20
-1.43336
11
1.25048
21
-1.41495
0
LINE
8
BLACK
6
CONTINUOUS
10
1.25048
20
-1.41495
11
1.23913
21
-1.43482
0
LINE
8
BLACK
6
CONTINUOUS
10
1.23913
20
-1.43482
11
1.23847
21
-1.43561
0
LINE
8
BLACK
6
CONTINUOUS
10
1.23847
20
-1.43561
11
1.23822
21
-1.43571
0
LINE
8
BLACK
6
CONTINUOUS
10
1.23822
20
-1.43571
11
1.23804
21
-1.43591
0
LINE
8
BLACK
6
CONTINUOUS
10
1.23804
20
-1.43591
11
1.23729
21
-1.43605
0
LINE
8
BLACK
6
CONTINUOUS
10
1.23729
20
-1.43605
11
1.23658
21
-1.43631
0
LINE
8
BLACK
6
CONTINUOUS
10
1.23658
20
-1.43631
11
1.23632
21
-1.43622
0
LINE
8
BLACK
6
CONTINUOUS
10
1.23632
20
-1.43622
11
1.23605
21
-1.43627
0
LINE
8
BLACK
6
CONTINUOUS
10
1.23605
20
-1.43627
11
1.23539
21
-1.43589
0
LINE
8
BLACK
6
CONTINUOUS
10
1.23539
20
-1.43589
11
1.23468
21
-1.43563
0
LINE
8
BLACK
6
CONTINUOUS
10
1.23468
20
-1.43563
11
1.23454
21
-1.43539
0
LINE
8
BLACK
6
CONTINUOUS
10
1.23454
20
-1.43539
11
1.2343
21
-1.43526
0
LINE
8
BLACK
6
CONTINUOUS
10
1.2343
20
-1.43526
11
1.23404
21
-1.43454
0
LINE
8
BLACK
6
CONTINUOUS
10
1.23404
20
-1.43454
11
1.23366
21
-1.43388
0
LINE
8
BLACK
6
CONTINUOUS
10
1.23366
20
-1.43388
11
1.2337
21
-1.43361
0
LINE
8
BLACK
6
CONTINUOUS
10
1.2337
20
-1.43361
11
1.23361
21
-1.43336
0
LINE
8
BLACK
6
CONTINUOUS
10
1.23361
20
-1.43336
11
1.23361
21
-1.40383
0
LINE
8
BLACK
6
CONTINUOUS
10
1.23361
20
-1.40383
11
1.23379
21
-1.40282
0
LINE
8
BLACK
6
CONTINUOUS
10
1.23379
20
-1.40282
11
1.23509
21
-1.40127
0
LINE
8
BLACK
6
CONTINUOUS
10
1.23509
20
-1.40127
11
1.23708
21
-1.40092
0
LINE
8
BLACK
6
CONTINUOUS
10
1.23708
20
-1.40092
11
1.23883
21
-1.40193
0
LINE
8
BLACK
6
CONTINUOUS
10
1.23883
20
-1.40193
11
1.23952
21
-1.40383
0
LINE
8
BLACK
6
CONTINUOUS
10
1.23952
20
-1.40383
11
1.23952
21
-1.42224
0
LINE
8
BLACK
6
CONTINUOUS
10
1.23952
20
-1.42224
11
1.25087
21
-1.40237
0
LINE
8
BLACK
6
CONTINUOUS
10
1.25087
20
-1.40237
11
1.25153
21
-1.40158
0
LINE
8
BLACK
6
CONTINUOUS
10
1.25153
20
-1.40158
11
1.25178
21
-1.40148
0
LINE
8
BLACK
6
CONTINUOUS
10
1.25178
20
-1.40148
11
1.25196
21
-1.40127
0
LINE
8
BLACK
6
CONTINUOUS
10
1.25196
20
-1.40127
11
1.25271
21
-1.40114
0
LINE
8
BLACK
6
CONTINUOUS
10
1.25271
20
-1.40114
11
1.25342
21
-1.40088
0
LINE
8
BLACK
6
CONTINUOUS
10
1.25342
20
-1.40088
11
1.25368
21
-1.40097
0
LINE
8
BLACK
6
CONTINUOUS
10
1.57623
20
-1.40131
11
1.57749
21
-1.4029
0
LINE
8
BLACK
6
CONTINUOUS
10
1.57749
20
-1.4029
11
1.58453
21
-1.42402
0
LINE
8
BLACK
6
CONTINUOUS
10
1.58453
20
-1.42402
11
1.59157
21
-1.4029
0
LINE
8
BLACK
6
CONTINUOUS
10
1.59157
20
-1.4029
11
1.59206
21
-1.40199
0
LINE
8
BLACK
6
CONTINUOUS
10
1.59206
20
-1.40199
11
1.59378
21
-1.40094
0
LINE
8
BLACK
6
CONTINUOUS
10
1.59378
20
-1.40094
11
1.59578
21
-1.40123
0
LINE
8
BLACK
6
CONTINUOUS
10
1.59578
20
-1.40123
11
1.59712
21
-1.40274
0
LINE
8
BLACK
6
CONTINUOUS
10
1.59712
20
-1.40274
11
1.59717
21
-1.40476
0
LINE
8
BLACK
6
CONTINUOUS
10
1.59717
20
-1.40476
11
1.58733
21
-1.43429
0
LINE
8
BLACK
6
CONTINUOUS
10
1.58733
20
-1.43429
11
1.58684
21
-1.43519
0
LINE
8
BLACK
6
CONTINUOUS
10
1.58684
20
-1.43519
11
1.58677
21
-1.43524
0
LINE
8
BLACK
6
CONTINUOUS
10
1.58677
20
-1.43524
11
1.58674
21
-1.43532
0
LINE
8
BLACK
6
CONTINUOUS
10
1.58674
20
-1.43532
11
1.58592
21
-1.43576
0
LINE
8
BLACK
6
CONTINUOUS
10
1.58592
20
-1.43576
11
1.58512
21
-1.43625
0
LINE
8
BLACK
6
CONTINUOUS
10
1.58512
20
-1.43625
11
1.58504
21
-1.43624
0
LINE
8
BLACK
6
CONTINUOUS
10
1.58504
20
-1.43624
11
1.58496
21
-1.43628
0
LINE
8
BLACK
6
CONTINUOUS
10
1.58496
20
-1.43628
11
1.58405
21
-1.43609
0
LINE
8
BLACK
6
CONTINUOUS
10
1.58405
20
-1.43609
11
1.58312
21
-1.43595
0
LINE
8
BLACK
6
CONTINUOUS
10
1.58312
20
-1.43595
11
1.58307
21
-1.43589
0
LINE
8
BLACK
6
CONTINUOUS
10
1.58307
20
-1.43589
11
1.58298
21
-1.43587
0
LINE
8
BLACK
6
CONTINUOUS
10
1.58298
20
-1.43587
11
1.5824
21
-1.43514
0
LINE
8
BLACK
6
CONTINUOUS
10
1.5824
20
-1.43514
11
1.58178
21
-1.43444
0
LINE
8
BLACK
6
CONTINUOUS
10
1.58178
20
-1.43444
11
1.58178
21
-1.43436
0
LINE
8
BLACK
6
CONTINUOUS
10
1.58178
20
-1.43436
11
1.58173
21
-1.43429
0
LINE
8
BLACK
6
CONTINUOUS
10
1.58173
20
-1.43429
11
1.57188
21
-1.40476
0
LINE
8
BLACK
6
CONTINUOUS
10
1.57188
20
-1.40476
11
1.57173
21
-1.40375
0
LINE
8
BLACK
6
CONTINUOUS
10
1.57173
20
-1.40375
11
1.57248
21
-1.40187
0
LINE
8
BLACK
6
CONTINUOUS
10
1.57248
20
-1.40187
11
1.57425
21
-1.40091
0
LINE
8
BLACK
6
CONTINUOUS
10
1.57425
20
-1.40091
11
1.57623
21
-1.40131
0
LINE
8
BLACK
6
CONTINUOUS
10
1.34075
20
-1.40896
11
1.34144
21
-1.41086
0
LINE
8
BLACK
6
CONTINUOUS
10
1.34144
20
-1.41086
11
1.34144
21
-1.41916
0
LINE
8
BLACK
6
CONTINUOUS
10
1.34144
20
-1.41916
11
1.34974
21
-1.41916
0
LINE
8
BLACK
6
CONTINUOUS
10
1.34974
20
-1.41916
11
1.35075
21
-1.41933
0
LINE
8
BLACK
6
CONTINUOUS
10
1.35075
20
-1.41933
11
1.3523
21
-1.42063
0
LINE
8
BLACK
6
CONTINUOUS
10
1.3523
20
-1.42063
11
1.35265
21
-1.42262
0
LINE
8
BLACK
6
CONTINUOUS
10
1.35265
20
-1.42262
11
1.35164
21
-1.42437
0
LINE
8
BLACK
6
CONTINUOUS
10
1.35164
20
-1.42437
11
1.34974
21
-1.42506
0
LINE
8
BLACK
6
CONTINUOUS
10
1.34974
20
-1.42506
11
1.34144
21
-1.42506
0
LINE
8
BLACK
6
CONTINUOUS
10
1.34144
20
-1.42506
11
1.34144
21
-1.43336
0
LINE
8
BLACK
6
CONTINUOUS
10
1.34144
20
-1.43336
11
1.34127
21
-1.43437
0
LINE
8
BLACK
6
CONTINUOUS
10
1.34127
20
-1.43437
11
1.33997
21
-1.43591
0
LINE
8
BLACK
6
CONTINUOUS
10
1.33997
20
-1.43591
11
1.33798
21
-1.43627
0
LINE
8
BLACK
6
CONTINUOUS
10
1.33798
20
-1.43627
11
1.33623
21
-1.43526
0
LINE
8
BLACK
6
CONTINUOUS
10
1.33623
20
-1.43526
11
1.33554
21
-1.43336
0
LINE
8
BLACK
6
CONTINUOUS
10
1.33554
20
-1.43336
11
1.33554
21
-1.42506
0
LINE
8
BLACK
6
CONTINUOUS
10
1.33554
20
-1.42506
11
1.32724
21
-1.42506
0
LINE
8
BLACK
6
CONTINUOUS
10
1.32724
20
-1.42506
11
1.32623
21
-1.42488
0
LINE
8
BLACK
6
CONTINUOUS
10
1.32623
20
-1.42488
11
1.32468
21
-1.42359
0
LINE
8
BLACK
6
CONTINUOUS
10
1.32468
20
-1.42359
11
1.32433
21
-1.4216
0
LINE
8
BLACK
6
CONTINUOUS
10
1.32433
20
-1.4216
11
1.32534
21
-1.41985
0
LINE
8
BLACK
6
CONTINUOUS
10
1.32534
20
-1.41985
11
1.32724
21
-1.41916
0
LINE
8
BLACK
6
CONTINUOUS
10
1.32724
20
-1.41916
11
1.33554
21
-1.41916
0
LINE
8
BLACK
6
CONTINUOUS
10
1.33554
20
-1.41916
11
1.33554
21
-1.41086
0
LINE
8
BLACK
6
CONTINUOUS
10
1.33554
20
-1.41086
11
1.33572
21
-1.40985
0
LINE
8
BLACK
6
CONTINUOUS
10
1.33572
20
-1.40985
11
1.33701
21
-1.4083
0
LINE
8
BLACK
6
CONTINUOUS
10
1.33701
20
-1.4083
11
1.339
21
-1.40795
0
LINE
8
BLACK
6
CONTINUOUS
10
1.339
20
-1.40795
11
1.34075
21
-1.40896
0
LINE
8
BLACK
6
CONTINUOUS
10
1.44705
20
-1.41933
11
1.4486
21
-1.42063
0
LINE
8
BLACK
6
CONTINUOUS
10
1.4486
20
-1.42063
11
1.44895
21
-1.42262
0
LINE
8
BLACK
6
CONTINUOUS
10
1.44895
20
-1.42262
11
1.44794
21
-1.42437
0
LINE
8
BLACK
6
CONTINUOUS
10
1.44794
20
-1.42437
11
1.44604
21
-1.42506
0
LINE
8
BLACK
6
CONTINUOUS
10
1.44604
20
-1.42506
11
1.42355
21
-1.42506
0
LINE
8
BLACK
6
CONTINUOUS
10
1.42355
20
-1.42506
11
1.42254
21
-1.42488
0
LINE
8
BLACK
6
CONTINUOUS
10
1.42254
20
-1.42488
11
1.42099
21
-1.42359
0
LINE
8
BLACK
6
CONTINUOUS
10
1.42099
20
-1.42359
11
1.42064
21
-1.4216
0
LINE
8
BLACK
6
CONTINUOUS
10
1.42064
20
-1.4216
11
1.42165
21
-1.41985
0
LINE
8
BLACK
6
CONTINUOUS
10
1.42165
20
-1.41985
11
1.42355
21
-1.41916
0
LINE
8
BLACK
6
CONTINUOUS
10
1.42355
20
-1.41916
11
1.44604
21
-1.41916
0
LINE
8
BLACK
6
CONTINUOUS
10
1.44604
20
-1.41916
11
1.44705
21
-1.41933
0
LINE
8
BLACK
6
CONTINUOUS
10
1.50467
20
-1.38339
11
1.5009
21
-1.38264
0
LINE
8
BLACK
6
CONTINUOUS
10
1.5009
20
-1.38264
11
1.49771
21
-1.3805
0
LINE
8
BLACK
6
CONTINUOUS
10
1.49771
20
-1.3805
11
1.49771
21
-1.3805
0
LINE
8
BLACK
6
CONTINUOUS
10
1.49771
20
-1.3805
11
1.46906
21
-1.35186
0
LINE
8
BLACK
6
CONTINUOUS
10
1.46906
20
-1.35186
11
1.46383
21
-1.35419
0
LINE
8
BLACK
6
CONTINUOUS
10
1.46383
20
-1.35419
11
1.45698
21
-1.35564
0
LINE
8
BLACK
6
CONTINUOUS
10
1.45698
20
-1.35564
11
1.44999
21
-1.35564
0
LINE
8
BLACK
6
CONTINUOUS
10
1.44999
20
-1.35564
11
1.44314
21
-1.35419
0
LINE
8
BLACK
6
CONTINUOUS
10
1.44314
20
-1.35419
11
1.43675
21
-1.35134
0
LINE
8
BLACK
6
CONTINUOUS
10
1.43675
20
-1.35134
11
1.43109
21
-1.34723
0
LINE
8
BLACK
6
CONTINUOUS
10
1.43109
20
-1.34723
11
1.42641
21
-1.34203
0
LINE
8
BLACK
6
CONTINUOUS
10
1.42641
20
-1.34203
11
1.42291
21
-1.33597
0
LINE
8
BLACK
6
CONTINUOUS
10
1.42291
20
-1.33597
11
1.42075
21
-1.32932
0
LINE
8
BLACK
6
CONTINUOUS
10
1.42075
20
-1.32932
11
1.42002
21
-1.32236
0
LINE
8
BLACK
6
CONTINUOUS
10
1.42002
20
-1.32236
11
1.42075
21
-1.3154
0
LINE
8
BLACK
6
CONTINUOUS
10
1.42075
20
-1.3154
11
1.42291
21
-1.30875
0
LINE
8
BLACK
6
CONTINUOUS
10
1.42291
20
-1.30875
11
1.42641
21
-1.30269
0
LINE
8
BLACK
6
CONTINUOUS
10
1.42641
20
-1.30269
11
1.43109
21
-1.29749
0
LINE
8
BLACK
6
CONTINUOUS
10
1.43109
20
-1.29749
11
1.43675
21
-1.29338
0
LINE
8
BLACK
6
CONTINUOUS
10
1.43675
20
-1.29338
11
1.44314
21
-1.29054
0
LINE
8
BLACK
6
CONTINUOUS
10
1.44314
20
-1.29054
11
1.44999
21
-1.28908
0
LINE
8
BLACK
6
CONTINUOUS
10
1.44999
20
-1.28908
11
1.45698
21
-1.28908
0
LINE
8
BLACK
6
CONTINUOUS
10
1.45698
20
-1.28908
11
1.46383
21
-1.29054
0
LINE
8
BLACK
6
CONTINUOUS
10
1.46383
20
-1.29054
11
1.47022
21
-1.29338
0
LINE
8
BLACK
6
CONTINUOUS
10
1.47022
20
-1.29338
11
1.47588
21
-1.29749
0
LINE
8
BLACK
6
CONTINUOUS
10
1.47588
20
-1.29749
11
1.48056
21
-1.30269
0
LINE
8
BLACK
6
CONTINUOUS
10
1.48056
20
-1.30269
11
1.48406
21
-1.30875
0
LINE
8
BLACK
6
CONTINUOUS
10
1.48406
20
-1.30875
11
1.48622
21
-1.3154
0
LINE
8
BLACK
6
CONTINUOUS
10
1.48622
20
-1.3154
11
1.48695
21
-1.32236
0
LINE
8
BLACK
6
CONTINUOUS
10
1.48695
20
-1.32236
11
1.48622
21
-1.32932
0
LINE
8
BLACK
6
CONTINUOUS
10
1.48622
20
-1.32932
11
1.48406
21
-1.33597
0
LINE
8
BLACK
6
CONTINUOUS
10
1.48406
20
-1.33597
11
1.48294
21
-1.3379
0
LINE
8
BLACK
6
CONTINUOUS
10
1.48294
20
-1.3379
11
1.50874
21
-1.3637
0
LINE
8
BLACK
6
CONTINUOUS
10
1.50874
20
-1.3637
11
1.60738
21
-1.3637
0
LINE
8
BLACK
6
CONTINUOUS
10
1.60738
20
-1.3637
11
1.62563
21
-1.34545
0
LINE
8
BLACK
6
CONTINUOUS
10
1.62563
20
-1.34545
11
1.62563
21
-1.01663
0
LINE
8
BLACK
6
CONTINUOUS
10
1.62563
20
-1.01663
11
1.58884
21
-0.979843
0
LINE
8
BLACK
6
CONTINUOUS
10
1.58884
20
-0.979843
11
1.52445
21
-0.979843
0
LINE
8
BLACK
6
CONTINUOUS
10
1.52445
20
-0.979843
11
1.52409
21
-0.981641
0
LINE
8
BLACK
6
CONTINUOUS
10
1.52409
20
-0.981641
11
1.52196
21
-0.984834
0
LINE
8
BLACK
6
CONTINUOUS
10
1.52196
20
-0.984834
11
1.52196
21
-0.984834
0
LINE
8
BLACK
6
CONTINUOUS
10
1.52196
20
-0.984834
11
1.46939
21
-1.03741
0
LINE
8
BLACK
6
CONTINUOUS
10
1.46939
20
-1.03741
11
1.47054
21
-1.04047
0
LINE
8
BLACK
6
CONTINUOUS
10
1.47054
20
-1.04047
11
1.47126
21
-1.04638
0
LINE
8
BLACK
6
CONTINUOUS
10
1.47126
20
-1.04638
11
1.47125
21
-1.0469
0
LINE
8
BLACK
6
CONTINUOUS
10
1.47125
20
-1.0469
11
1.47042
21
-1.05279
0
LINE
8
BLACK
6
CONTINUOUS
10
1.47042
20
-1.05279
11
1.4682
21
-1.05831
0
LINE
8
BLACK
6
CONTINUOUS
10
1.4682
20
-1.05831
11
1.46472
21
-1.06314
0
LINE
8
BLACK
6
CONTINUOUS
10
1.46472
20
-1.06314
11
1.4602
21
-1.067
0
LINE
8
BLACK
6
CONTINUOUS
10
1.4602
20
-1.067
11
1.45488
21
-1.06968
0
LINE
8
BLACK
6
CONTINUOUS
10
1.45488
20
-1.06968
11
1.44908
21
-1.07101
0
LINE
8
BLACK
6
CONTINUOUS
10
1.44908
20
-1.07101
11
1.44314
21
-1.07091
0
LINE
8
BLACK
6
CONTINUOUS
10
1.44314
20
-1.07091
11
1.43738
21
-1.0694
0
LINE
8
BLACK
6
CONTINUOUS
10
1.43738
20
-1.0694
11
1.43215
21
-1.06656
0
LINE
8
BLACK
6
CONTINUOUS
10
1.43215
20
-1.06656
11
1.42775
21
-1.06256
0
LINE
8
BLACK
6
CONTINUOUS
10
1.42775
20
-1.06256
11
1.42443
21
-1.05762
0
LINE
8
BLACK
6
CONTINUOUS
10
1.42443
20
-1.05762
11
1.42239
21
-1.05203
0
LINE
8
BLACK
6
CONTINUOUS
10
1.42239
20
-1.05203
11
1.42173
21
-1.04612
0
LINE
8
BLACK
6
CONTINUOUS
10
1.42173
20
-1.04612
11
1.42251
21
-1.04022
0
LINE
8
BLACK
6
CONTINUOUS
10
1.42251
20
-1.04022
11
1.42467
21
-1.03468
0
LINE
8
BLACK
6
CONTINUOUS
10
1.42467
20
-1.03468
11
1.42809
21
-1.02981
0
LINE
8
BLACK
6
CONTINUOUS
10
1.42809
20
-1.02981
11
1.43258
21
-1.0259
0
LINE
8
BLACK
6
CONTINUOUS
10
1.43258
20
-1.0259
11
1.43786
21
-1.02317
0
LINE
8
BLACK
6
CONTINUOUS
10
1.43786
20
-1.02317
11
1.44365
21
-1.02178
0
LINE
8
BLACK
6
CONTINUOUS
10
1.44365
20
-1.02178
11
1.4496
21
-1.02181
0
LINE
8
BLACK
6
CONTINUOUS
10
1.4496
20
-1.02181
11
1.45537
21
-1.02326
0
LINE
8
BLACK
6
CONTINUOUS
10
1.45537
20
-1.02326
11
1.45558
21
-1.02337
0
LINE
8
BLACK
6
CONTINUOUS
10
1.45558
20
-1.02337
11
1.50516
21
-0.973797
0
LINE
8
BLACK
6
CONTINUOUS
10
1.50516
20
-0.973797
11
1.50516
21
-0.97
0
LINE
8
BLACK
6
CONTINUOUS
10
1.50516
20
-0.97
11
1.50591
21
-0.966233
0
LINE
8
BLACK
6
CONTINUOUS
10
1.50591
20
-0.966233
11
1.50804
21
-0.96304
0
LINE
8
BLACK
6
CONTINUOUS
10
1.50804
20
-0.96304
11
1.51123
21
-0.960907
0
LINE
8
BLACK
6
CONTINUOUS
10
1.51123
20
-0.960907
11
1.515
21
-0.960157
0
LINE
8
BLACK
6
CONTINUOUS
10
1.515
20
-0.960157
11
1.59292
21
-0.960157
0
LINE
8
BLACK
6
CONTINUOUS
10
1.59292
20
-0.960157
11
1.59669
21
-0.960907
0
LINE
8
BLACK
6
CONTINUOUS
10
1.59669
20
-0.960907
11
1.59988
21
-0.96304
0
LINE
8
BLACK
6
CONTINUOUS
10
1.59988
20
-0.96304
11
1.64243
21
-1.00559
0
LINE
8
BLACK
6
CONTINUOUS
10
1.64243
20
-1.00559
11
1.64457
21
-1.00879
0
LINE
8
BLACK
6
CONTINUOUS
10
1.64457
20
-1.00879
11
1.64531
21
-1.01255
0
LINE
8
BLACK
6
CONTINUOUS
10
1.64531
20
-1.01255
11
1.64531
21
-1.34953
0
LINE
8
BLACK
6
CONTINUOUS
10
1.64531
20
-1.34953
11
1.64457
21
-1.35329
0
LINE
8
BLACK
6
CONTINUOUS
10
1.64457
20
-1.35329
11
1.64243
21
-1.35649
0
LINE
8
BLACK
6
CONTINUOUS
10
1.64243
20
-1.35649
11
1.61842
21
-1.3805
0
LINE
8
BLACK
6
CONTINUOUS
10
1.61842
20
-1.3805
11
1.61522
21
-1.38264
0
LINE
8
BLACK
6
CONTINUOUS
10
1.61522
20
-1.38264
11
1.61146
21
-1.38339
0
LINE
8
BLACK
6
CONTINUOUS
10
1.61146
20
-1.38339
11
1.50467
21
-1.38339
0
LINE
8
BLACK
6
CONTINUOUS
10
1.50467
20
-1.38339
11
1.50467
21
-1.38339
0
LINE
8
BLACK
6
CONTINUOUS
10
1.4811
20
-1.06905
11
1.48687
21
-1.0705
0
LINE
8
BLACK
6
CONTINUOUS
10
1.48687
20
-1.0705
11
1.49213
21
-1.07329
0
LINE
8
BLACK
6
CONTINUOUS
10
1.49213
20
-1.07329
11
1.49657
21
-1.07725
0
LINE
8
BLACK
6
CONTINUOUS
10
1.49657
20
-1.07725
11
1.49994
21
-1.08215
0
LINE
8
BLACK
6
CONTINUOUS
10
1.49994
20
-1.08215
11
1.50204
21
-1.08772
0
LINE
8
BLACK
6
CONTINUOUS
10
1.50204
20
-1.08772
11
1.50276
21
-1.09362
0
LINE
8
BLACK
6
CONTINUOUS
10
1.50276
20
-1.09362
11
1.50275
21
-1.09414
0
LINE
8
BLACK
6
CONTINUOUS
10
1.50275
20
-1.09414
11
1.50191
21
-1.10003
0
LINE
8
BLACK
6
CONTINUOUS
10
1.50191
20
-1.10003
11
1.50088
21
-1.10259
0
LINE
8
BLACK
6
CONTINUOUS
10
1.50088
20
-1.10259
11
1.56044
21
-1.16215
0
LINE
8
BLACK
6
CONTINUOUS
10
1.56044
20
-1.16215
11
1.56044
21
-1.16215
0
LINE
8
BLACK
6
CONTINUOUS
10
1.56044
20
-1.16215
11
1.56258
21
-1.16535
0
LINE
8
BLACK
6
CONTINUOUS
10
1.56258
20
-1.16535
11
1.56258
21
-1.16535
0
LINE
8
BLACK
6
CONTINUOUS
10
1.56258
20
-1.16535
11
1.56333
21
-1.16911
0
LINE
8
BLACK
6
CONTINUOUS
10
1.56333
20
-1.16911
11
1.56333
21
-1.16911
0
LINE
8
BLACK
6
CONTINUOUS
10
1.56333
20
-1.16911
11
1.56333
21
-1.2889
0
LINE
8
BLACK
6
CONTINUOUS
10
1.56333
20
-1.2889
11
1.58695
21
-1.2889
0
LINE
8
BLACK
6
CONTINUOUS
10
1.58695
20
-1.2889
11
1.58695
21
-1.35583
0
LINE
8
BLACK
6
CONTINUOUS
10
1.58695
20
-1.35583
11
1.52002
21
-1.35583
0
LINE
8
BLACK
6
CONTINUOUS
10
1.52002
20
-1.35583
11
1.52002
21
-1.2889
0
LINE
8
BLACK
6
CONTINUOUS
10
1.52002
20
-1.2889
11
1.54364
21
-1.2889
0
LINE
8
BLACK
6
CONTINUOUS
10
1.54364
20
-1.2889
11
1.54364
21
-1.17319
0
LINE
8
BLACK
6
CONTINUOUS
10
1.54364
20
-1.17319
11
1.48704
21
-1.11659
0
LINE
8
BLACK
6
CONTINUOUS
10
1.48704
20
-1.11659
11
1.48638
21
-1.11692
0
LINE
8
BLACK
6
CONTINUOUS
10
1.48638
20
-1.11692
11
1.48058
21
-1.11825
0
LINE
8
BLACK
6
CONTINUOUS
10
1.48058
20
-1.11825
11
1.47463
21
-1.11816
0
LINE
8
BLACK
6
CONTINUOUS
10
1.47463
20
-1.11816
11
1.46888
21
-1.11665
0
LINE
8
BLACK
6
CONTINUOUS
10
1.46888
20
-1.11665
11
1.46365
21
-1.11381
0
LINE
8
BLACK
6
CONTINUOUS
10
1.46365
20
-1.11381
11
1.45925
21
-1.1098
0
LINE
8
BLACK
6
CONTINUOUS
10
1.45925
20
-1.1098
11
1.45593
21
-1.10486
0
LINE
8
BLACK
6
CONTINUOUS
10
1.45593
20
-1.10486
11
1.45388
21
-1.09928
0
LINE
8
BLACK
6
CONTINUOUS
10
1.45388
20
-1.09928
11
1.45323
21
-1.09336
0
LINE
8
BLACK
6
CONTINUOUS
10
1.45323
20
-1.09336
11
1.45401
21
-1.08746
0
LINE
8
BLACK
6
CONTINUOUS
10
1.45401
20
-1.08746
11
1.45617
21
-1.08192
0
LINE
8
BLACK
6
CONTINUOUS
10
1.45617
20
-1.08192
11
1.45959
21
-1.07705
0
LINE
8
BLACK
6
CONTINUOUS
10
1.45959
20
-1.07705
11
1.46407
21
-1.07314
0
LINE
8
BLACK
6
CONTINUOUS
10
1.46407
20
-1.07314
11
1.46936
21
-1.07041
0
LINE
8
BLACK
6
CONTINUOUS
10
1.46936
20
-1.07041
11
1.47515
21
-1.06902
0
LINE
8
BLACK
6
CONTINUOUS
10
1.47515
20
-1.06902
11
1.4811
21
-1.06905
0
LINE
8
BLACK
6
CONTINUOUS
10
1.4181
20
-1.06905
11
1.42387
21
-1.0705
0
LINE
8
BLACK
6
CONTINUOUS
10
1.42387
20
-1.0705
11
1.42913
21
-1.07329
0
LINE
8
BLACK
6
CONTINUOUS
10
1.42913
20
-1.07329
11
1.43358
21
-1.07725
0
LINE
8
BLACK
6
CONTINUOUS
10
1.43358
20
-1.07725
11
1.43695
21
-1.08215
0
LINE
8
BLACK
6
CONTINUOUS
10
1.43695
20
-1.08215
11
1.43905
21
-1.08772
0
LINE
8
BLACK
6
CONTINUOUS
10
1.43905
20
-1.08772
11
1.43976
21
-1.09362
0
LINE
8
BLACK
6
CONTINUOUS
10
1.43976
20
-1.09362
11
1.43976
21
-1.09414
0
LINE
8
BLACK
6
CONTINUOUS
10
1.43976
20
-1.09414
11
1.43892
21
-1.10003
0
LINE
8
BLACK
6
CONTINUOUS
10
1.43892
20
-1.10003
11
1.4367
21
-1.10555
0
LINE
8
BLACK
6
CONTINUOUS
10
1.4367
20
-1.10555
11
1.43323
21
-1.11038
0
LINE
8
BLACK
6
CONTINUOUS
10
1.43323
20
-1.11038
11
1.4287
21
-1.11425
0
LINE
8
BLACK
6
CONTINUOUS
10
1.4287
20
-1.11425
11
1.42339
21
-1.11692
0
LINE
8
BLACK
6
CONTINUOUS
10
1.42339
20
-1.11692
11
1.41759
21
-1.11825
0
LINE
8
BLACK
6
CONTINUOUS
10
1.41759
20
-1.11825
11
1.41164
21
-1.11816
0
LINE
8
BLACK
6
CONTINUOUS
10
1.41164
20
-1.11816
11
1.40589
21
-1.11665
0
LINE
8
BLACK
6
CONTINUOUS
10
1.40589
20
-1.11665
11
1.36333
21
-1.15921
0
LINE
8
BLACK
6
CONTINUOUS
10
1.36333
20
-1.15921
11
1.36333
21
-1.29043
0
LINE
8
BLACK
6
CONTINUOUS
10
1.36333
20
-1.29043
11
1.36383
21
-1.29054
0
LINE
8
BLACK
6
CONTINUOUS
10
1.36383
20
-1.29054
11
1.37022
21
-1.29338
0
LINE
8
BLACK
6
CONTINUOUS
10
1.37022
20
-1.29338
11
1.37588
21
-1.29749
0
LINE
8
BLACK
6
CONTINUOUS
10
1.37588
20
-1.29749
11
1.38056
21
-1.30269
0
LINE
8
BLACK
6
CONTINUOUS
10
1.38056
20
-1.30269
11
1.38406
21
-1.30875
0
LINE
8
BLACK
6
CONTINUOUS
10
1.38406
20
-1.30875
11
1.38622
21
-1.3154
0
LINE
8
BLACK
6
CONTINUOUS
10
1.38622
20
-1.3154
11
1.38695
21
-1.32236
0
LINE
8
BLACK
6
CONTINUOUS
10
1.38695
20
-1.32236
11
1.38622
21
-1.32932
0
LINE
8
BLACK
6
CONTINUOUS
10
1.38622
20
-1.32932
11
1.38406
21
-1.33597
0
LINE
8
BLACK
6
CONTINUOUS
10
1.38406
20
-1.33597
11
1.38056
21
-1.34203
0
LINE
8
BLACK
6
CONTINUOUS
10
1.38056
20
-1.34203
11
1.37588
21
-1.34723
0
LINE
8
BLACK
6
CONTINUOUS
10
1.37588
20
-1.34723
11
1.37022
21
-1.35134
0
LINE
8
BLACK
6
CONTINUOUS
10
1.37022
20
-1.35134
11
1.36383
21
-1.35419
0
LINE
8
BLACK
6
CONTINUOUS
10
1.36383
20
-1.35419
11
1.35698
21
-1.35564
0
LINE
8
BLACK
6
CONTINUOUS
10
1.35698
20
-1.35564
11
1.34999
21
-1.35564
0
LINE
8
BLACK
6
CONTINUOUS
10
1.34999
20
-1.35564
11
1.34314
21
-1.35419
0
LINE
8
BLACK
6
CONTINUOUS
10
1.34314
20
-1.35419
11
1.33675
21
-1.35134
0
LINE
8
BLACK
6
CONTINUOUS
10
1.33675
20
-1.35134
11
1.33109
21
-1.34723
0
LINE
8
BLACK
6
CONTINUOUS
10
1.33109
20
-1.34723
11
1.32641
21
-1.34203
0
LINE
8
BLACK
6
CONTINUOUS
10
1.32641
20
-1.34203
11
1.32291
21
-1.33597
0
LINE
8
BLACK
6
CONTINUOUS
10
1.32291
20
-1.33597
11
1.32075
21
-1.32932
0
LINE
8
BLACK
6
CONTINUOUS
10
1.32075
20
-1.32932
11
1.32002
21
-1.32236
0
LINE
8
BLACK
6
CONTINUOUS
10
1.32002
20
-1.32236
11
1.32075
21
-1.3154
0
LINE
8
BLACK
6
CONTINUOUS
10
1.32075
20
-1.3154
11
1.32291
21
-1.30875
0
LINE
8
BLACK
6
CONTINUOUS
10
1.32291
20
-1.30875
11
1.32641
21
-1.30269
0
LINE
8
BLACK
6
CONTINUOUS
10
1.32641
20
-1.30269
11
1.33109
21
-1.29749
0
LINE
8
BLACK
6
CONTINUOUS
10
1.33109
20
-1.29749
11
1.33675
21
-1.29338
0
LINE
8
BLACK
6
CONTINUOUS
10
1.33675
20
-1.29338
11
1.34314
21
-1.29054
0
LINE
8
BLACK
6
CONTINUOUS
10
1.34314
20
-1.29054
11
1.34364
21
-1.29043
0
LINE
8
BLACK
6
CONTINUOUS
10
1.34364
20
-1.29043
11
1.34364
21
-1.15514
0
LINE
8
BLACK
6
CONTINUOUS
10
1.34364
20
-1.15514
11
1.34439
21
-1.15137
0
LINE
8
BLACK
6
CONTINUOUS
10
1.34439
20
-1.15137
11
1.34652
21
-1.14818
0
LINE
8
BLACK
6
CONTINUOUS
10
1.34652
20
-1.14818
11
1.39211
21
-1.1026
0
LINE
8
BLACK
6
CONTINUOUS
10
1.39211
20
-1.1026
11
1.39089
21
-1.09928
0
LINE
8
BLACK
6
CONTINUOUS
10
1.39089
20
-1.09928
11
1.39024
21
-1.09336
0
LINE
8
BLACK
6
CONTINUOUS
10
1.39024
20
-1.09336
11
1.39101
21
-1.08746
0
LINE
8
BLACK
6
CONTINUOUS
10
1.39101
20
-1.08746
11
1.39318
21
-1.08192
0
LINE
8
BLACK
6
CONTINUOUS
10
1.39318
20
-1.08192
11
1.3966
21
-1.07705
0
LINE
8
BLACK
6
CONTINUOUS
10
1.3966
20
-1.07705
11
1.40108
21
-1.07314
0
LINE
8
BLACK
6
CONTINUOUS
10
1.40108
20
-1.07314
11
1.40637
21
-1.07041
0
LINE
8
BLACK
6
CONTINUOUS
10
1.40637
20
-1.07041
11
1.41215
21
-1.06902
0
LINE
8
BLACK
6
CONTINUOUS
10
1.41215
20
-1.06902
11
1.4181
21
-1.06905
0
LINE
8
BLACK
6
CONTINUOUS
10
1.35511
20
-1.06905
11
1.36088
21
-1.0705
0
LINE
8
BLACK
6
CONTINUOUS
10
1.36088
20
-1.0705
11
1.36614
21
-1.07329
0
LINE
8
BLACK
6
CONTINUOUS
10
1.36614
20
-1.07329
11
1.37058
21
-1.07725
0
LINE
8
BLACK
6
CONTINUOUS
10
1.37058
20
-1.07725
11
1.37395
21
-1.08215
0
LINE
8
BLACK
6
CONTINUOUS
10
1.37395
20
-1.08215
11
1.37606
21
-1.08772
0
LINE
8
BLACK
6
CONTINUOUS
10
1.37606
20
-1.08772
11
1.37677
21
-1.09362
0
LINE
8
BLACK
6
CONTINUOUS
10
1.37677
20
-1.09362
11
1.37677
21
-1.09414
0
LINE
8
BLACK
6
CONTINUOUS
10
1.37677
20
-1.09414
11
1.37593
21
-1.10003
0
LINE
8
BLACK
6
CONTINUOUS
10
1.37593
20
-1.10003
11
1.37371
21
-1.10555
0
LINE
8
BLACK
6
CONTINUOUS
10
1.37371
20
-1.10555
11
1.37024
21
-1.11038
0
LINE
8
BLACK
6
CONTINUOUS
10
1.37024
20
-1.11038
11
1.36571
21
-1.11425
0
LINE
8
BLACK
6
CONTINUOUS
10
1.36571
20
-1.11425
11
1.3604
21
-1.11692
0
LINE
8
BLACK
6
CONTINUOUS
10
1.3604
20
-1.11692
11
1.3546
21
-1.11825
0
LINE
8
BLACK
6
CONTINUOUS
10
1.3546
20
-1.11825
11
1.34865
21
-1.11816
0
LINE
8
BLACK
6
CONTINUOUS
10
1.34865
20
-1.11816
11
1.3429
21
-1.11665
0
LINE
8
BLACK
6
CONTINUOUS
10
1.3429
20
-1.11665
11
1.26333
21
-1.19622
0
LINE
8
BLACK
6
CONTINUOUS
10
1.26333
20
-1.19622
11
1.26333
21
-1.29043
0
LINE
8
BLACK
6
CONTINUOUS
10
1.26333
20
-1.29043
11
1.26383
21
-1.29054
0
LINE
8
BLACK
6
CONTINUOUS
10
1.26383
20
-1.29054
11
1.27022
21
-1.29338
0
LINE
8
BLACK
6
CONTINUOUS
10
1.27022
20
-1.29338
11
1.27588
21
-1.29749
0
LINE
8
BLACK
6
CONTINUOUS
10
1.27588
20
-1.29749
11
1.28056
21
-1.30269
0
LINE
8
BLACK
6
CONTINUOUS
10
1.28056
20
-1.30269
11
1.28406
21
-1.30875
0
LINE
8
BLACK
6
CONTINUOUS
10
1.28406
20
-1.30875
11
1.28622
21
-1.3154
0
LINE
8
BLACK
6
CONTINUOUS
10
1.28622
20
-1.3154
11
1.28695
21
-1.32236
0
LINE
8
BLACK
6
CONTINUOUS
10
1.28695
20
-1.32236
11
1.28622
21
-1.32932
0
LINE
8
BLACK
6
CONTINUOUS
10
1.28622
20
-1.32932
11
1.28406
21
-1.33597
0
LINE
8
BLACK
6
CONTINUOUS
10
1.28406
20
-1.33597
11
1.28056
21
-1.34203
0
LINE
8
BLACK
6
CONTINUOUS
10
1.28056
20
-1.34203
11
1.27588
21
-1.34723
0
LINE
8
BLACK
6
CONTINUOUS
10
1.27588
20
-1.34723
11
1.27022
21
-1.35134
0
LINE
8
BLACK
6
CONTINUOUS
10
1.27022
20
-1.35134
11
1.26383
21
-1.35419
0
LINE
8
BLACK
6
CONTINUOUS
10
1.26383
20
-1.35419
11
1.25698
21
-1.35564
0
LINE
8
BLACK
6
CONTINUOUS
10
1.25698
20
-1.35564
11
1.24999
21
-1.35564
0
LINE
8
BLACK
6
CONTINUOUS
10
1.24999
20
-1.35564
11
1.24314
21
-1.35419
0
LINE
8
BLACK
6
CONTINUOUS
10
1.24314
20
-1.35419
11
1.23675
21
-1.35134
0
LINE
8
BLACK
6
CONTINUOUS
10
1.23675
20
-1.35134
11
1.23109
21
-1.34723
0
LINE
8
BLACK
6
CONTINUOUS
10
1.23109
20
-1.34723
11
1.22641
21
-1.34203
0
LINE
8
BLACK
6
CONTINUOUS
10
1.22641
20
-1.34203
11
1.22291
21
-1.33597
0
LINE
8
BLACK
6
CONTINUOUS
10
1.22291
20
-1.33597
11
1.22075
21
-1.32932
0
LINE
8
BLACK
6
CONTINUOUS
10
1.22075
20
-1.32932
11
1.22002
21
-1.32236
0
LINE
8
BLACK
6
CONTINUOUS
10
1.22002
20
-1.32236
11
1.22075
21
-1.3154
0
LINE
8
BLACK
6
CONTINUOUS
10
1.22075
20
-1.3154
11
1.22291
21
-1.30875
0
LINE
8
BLACK
6
CONTINUOUS
10
1.22291
20
-1.30875
11
1.22641
21
-1.30269
0
LINE
8
BLACK
6
CONTINUOUS
10
1.22641
20
-1.30269
11
1.23109
21
-1.29749
0
LINE
8
BLACK
6
CONTINUOUS
10
1.23109
20
-1.29749
11
1.23675
21
-1.29338
0
LINE
8
BLACK
6
CONTINUOUS
10
1.23675
20
-1.29338
11
1.24314
21
-1.29054
0
LINE
8
BLACK
6
CONTINUOUS
10
1.24314
20
-1.29054
11
1.24364
21
-1.29043
0
LINE
8
BLACK
6
CONTINUOUS
10
1.24364
20
-1.29043
11
1.24364
21
-1.19215
0
LINE
8
BLACK
6
CONTINUOUS
10
1.24364
20
-1.19215
11
1.24439
21
-1.18838
0
LINE
8
BLACK
6
CONTINUOUS
10
1.24439
20
-1.18838
11
1.24652
21
-1.18519
0
LINE
8
BLACK
6
CONTINUOUS
10
1.24652
20
-1.18519
11
1.32911
21
-1.1026
0
LINE
8
BLACK
6
CONTINUOUS
10
1.32911
20
-1.1026
11
1.3279
21
-1.09928
0
LINE
8
BLACK
6
CONTINUOUS
10
1.3279
20
-1.09928
11
1.32725
21
-1.09336
0
LINE
8
BLACK
6
CONTINUOUS
10
1.32725
20
-1.09336
11
1.32802
21
-1.08746
0
LINE
8
BLACK
6
CONTINUOUS
10
1.32802
20
-1.08746
11
1.33018
21
-1.08192
0
LINE
8
BLACK
6
CONTINUOUS
10
1.33018
20
-1.08192
11
1.3336
21
-1.07705
0
LINE
8
BLACK
6
CONTINUOUS
10
1.3336
20
-1.07705
11
1.33809
21
-1.07314
0
LINE
8
BLACK
6
CONTINUOUS
10
1.33809
20
-1.07314
11
1.34338
21
-1.07041
0
LINE
8
BLACK
6
CONTINUOUS
10
1.34338
20
-1.07041
11
1.34916
21
-1.06902
0
LINE
8
BLACK
6
CONTINUOUS
10
1.34916
20
-1.06902
11
1.35511
21
-1.06905
0
LINE
8
BLACK
6
CONTINUOUS
10
1.59327
20
-1.00087
11
1.60004
21
-1.00388
0
LINE
8
BLACK
6
CONTINUOUS
10
1.60004
20
-1.00388
11
1.60603
21
-1.00824
0
LINE
8
BLACK
6
CONTINUOUS
10
1.60603
20
-1.00824
11
1.61099
21
-1.01374
0
LINE
8
BLACK
6
CONTINUOUS
10
1.61099
20
-1.01374
11
1.61469
21
-1.02015
0
LINE
8
BLACK
6
CONTINUOUS
10
1.61469
20
-1.02015
11
1.61698
21
-1.0272
0
LINE
8
BLACK
6
CONTINUOUS
10
1.61698
20
-1.0272
11
1.61776
21
-1.03457
0
LINE
8
BLACK
6
CONTINUOUS
10
1.61776
20
-1.03457
11
1.61776
21
-1.10543
0
LINE
8
BLACK
6
CONTINUOUS
10
1.61776
20
-1.10543
11
1.61698
21
-1.1128
0
LINE
8
BLACK
6
CONTINUOUS
10
1.61698
20
-1.1128
11
1.61469
21
-1.11984
0
LINE
8
BLACK
6
CONTINUOUS
10
1.61469
20
-1.11984
11
1.61099
21
-1.12626
0
LINE
8
BLACK
6
CONTINUOUS
10
1.61099
20
-1.12626
11
1.60603
21
-1.13176
0
LINE
8
BLACK
6
CONTINUOUS
10
1.60603
20
-1.13176
11
1.60004
21
-1.13612
0
LINE
8
BLACK
6
CONTINUOUS
10
1.60004
20
-1.13612
11
1.59327
21
-1.13913
0
LINE
8
BLACK
6
CONTINUOUS
10
1.59327
20
-1.13913
11
1.58603
21
-1.14067
0
LINE
8
BLACK
6
CONTINUOUS
10
1.58603
20
-1.14067
11
1.57862
21
-1.14067
0
LINE
8
BLACK
6
CONTINUOUS
10
1.57862
20
-1.14067
11
1.57137
21
-1.13913
0
LINE
8
BLACK
6
CONTINUOUS
10
1.57137
20
-1.13913
11
1.56461
21
-1.13612
0
LINE
8
BLACK
6
CONTINUOUS
10
1.56461
20
-1.13612
11
1.55861
21
-1.13176
0
LINE
8
BLACK
6
CONTINUOUS
10
1.55861
20
-1.13176
11
1.55366
21
-1.12626
0
LINE
8
BLACK
6
CONTINUOUS
10
1.55366
20
-1.12626
11
1.54995
21
-1.11984
0
LINE
8
BLACK
6
CONTINUOUS
10
1.54995
20
-1.11984
11
1.54766
21
-1.1128
0
LINE
8
BLACK
6
CONTINUOUS
10
1.54766
20
-1.1128
11
1.54689
21
-1.10543
0
LINE
8
BLACK
6
CONTINUOUS
10
1.54689
20
-1.10543
11
1.54689
21
-1.03457
0
LINE
8
BLACK
6
CONTINUOUS
10
1.54689
20
-1.03457
11
1.54766
21
-1.0272
0
LINE
8
BLACK
6
CONTINUOUS
10
1.54766
20
-1.0272
11
1.54995
21
-1.02015
0
LINE
8
BLACK
6
CONTINUOUS
10
1.54995
20
-1.02015
11
1.55366
21
-1.01374
0
LINE
8
BLACK
6
CONTINUOUS
10
1.55366
20
-1.01374
11
1.55861
21
-1.00824
0
LINE
8
BLACK
6
CONTINUOUS
10
1.55861
20
-1.00824
11
1.56461
21
-1.00388
0
LINE
8
BLACK
6
CONTINUOUS
10
1.56461
20
-1.00388
11
1.57137
21
-1.00087
0
LINE
8
BLACK
6
CONTINUOUS
10
1.57137
20
-1.00087
11
1.57862
21
-0.999328
0
LINE
8
BLACK
6
CONTINUOUS
10
1.57862
20
-0.999328
11
1.58603
21
-0.999328
0
LINE
8
BLACK
6
CONTINUOUS
10
1.58603
20
-0.999328
11
1.59327
21
-1.00087
0
LINE
8
BLACK
6
CONTINUOUS
10
1.25863
20
-1.00087
11
1.26539
21
-1.00388
0
LINE
8
BLACK
6
CONTINUOUS
10
1.26539
20
-1.00388
11
1.27139
21
-1.00824
0
LINE
8
BLACK
6
CONTINUOUS
10
1.27139
20
-1.00824
11
1.27634
21
-1.01374
0
LINE
8
BLACK
6
CONTINUOUS
10
1.27634
20
-1.01374
11
1.28005
21
-1.02015
0
LINE
8
BLACK
6
CONTINUOUS
10
1.28005
20
-1.02015
11
1.28234
21
-1.0272
0
LINE
8
BLACK
6
CONTINUOUS
10
1.28234
20
-1.0272
11
1.28311
21
-1.03457
0
LINE
8
BLACK
6
CONTINUOUS
10
1.28311
20
-1.03457
11
1.28311
21
-1.10543
0
LINE
8
BLACK
6
CONTINUOUS
10
1.28311
20
-1.10543
11
1.28234
21
-1.1128
0
LINE
8
BLACK
6
CONTINUOUS
10
1.28234
20
-1.1128
11
1.28005
21
-1.11984
0
LINE
8
BLACK
6
CONTINUOUS
10
1.28005
20
-1.11984
11
1.27634
21
-1.12626
0
LINE
8
BLACK
6
CONTINUOUS
10
1.27634
20
-1.12626
11
1.27139
21
-1.13176
0
LINE
8
BLACK
6
CONTINUOUS
10
1.27139
20
-1.13176
11
1.26539
21
-1.13612
0
LINE
8
BLACK
6
CONTINUOUS
10
1.26539
20
-1.13612
11
1.25863
21
-1.13913
0
LINE
8
BLACK
6
CONTINUOUS
10
1.25863
20
-1.13913
11
1.25138
21
-1.14067
0
LINE
8
BLACK
6
CONTINUOUS
10
1.25138
20
-1.14067
11
1.24397
21
-1.14067
0
LINE
8
BLACK
6
CONTINUOUS
10
1.24397
20
-1.14067
11
1.23673
21
-1.13913
0
LINE
8
BLACK
6
CONTINUOUS
10
1.23673
20
-1.13913
11
1.22996
21
-1.13612
0
LINE
8
BLACK
6
CONTINUOUS
10
1.22996
20
-1.13612
11
1.22397
21
-1.13176
0
LINE
8
BLACK
6
CONTINUOUS
10
1.22397
20
-1.13176
11
1.21901
21
-1.12626
0
LINE
8
BLACK
6
CONTINUOUS
10
1.21901
20
-1.12626
11
1.21531
21
-1.11984
0
LINE
8
BLACK
6
CONTINUOUS
10
1.21531
20
-1.11984
11
1.21302
21
-1.1128
0
LINE
8
BLACK
6
CONTINUOUS
10
1.21302
20
-1.1128
11
1.21224
21
-1.10543
0
LINE
8
BLACK
6
CONTINUOUS
10
1.21224
20
-1.10543
11
1.21224
21
-1.03457
0
LINE
8
BLACK
6
CONTINUOUS
10
1.21224
20
-1.03457
11
1.21302
21
-1.0272
0
LINE
8
BLACK
6
CONTINUOUS
10
1.21302
20
-1.0272
11
1.21531
21
-1.02015
0
LINE
8
BLACK
6
CONTINUOUS
10
1.21531
20
-1.02015
11
1.21901
21
-1.01374
0
LINE
8
BLACK
6
CONTINUOUS
10
1.21901
20
-1.01374
11
1.22397
21
-1.00824
0
LINE
8
BLACK
6
CONTINUOUS
10
1.22397
20
-1.00824
11
1.22996
21
-1.00388
0
LINE
8
BLACK
6
CONTINUOUS
10
1.22996
20
-1.00388
11
1.23673
21
-1.00087
0
LINE
8
BLACK
6
CONTINUOUS
10
1.23673
20
-1.00087
11
1.24397
21
-0.999328
0
LINE
8
BLACK
6
CONTINUOUS
10
1.24397
20
-0.999328
11
1.25138
21
-0.999328
0
LINE
8
BLACK
6
CONTINUOUS
10
1.25138
20
-0.999328
11
1.25863
21
-1.00087
0
LINE
8
BLACK
6
CONTINUOUS
10
1.38661
20
-1.02181
11
1.39238
21
-1.02326
0
LINE
8
BLACK
6
CONTINUOUS
10
1.39238
20
-1.02326
11
1.39764
21
-1.02604
0
LINE
8
BLACK
6
CONTINUOUS
10
1.39764
20
-1.02604
11
1.40208
21
-1.03
0
LINE
8
BLACK
6
CONTINUOUS
10
1.40208
20
-1.03
11
1.40545
21
-1.0349
0
LINE
8
BLACK
6
CONTINUOUS
10
1.40545
20
-1.0349
11
1.40755
21
-1.04047
0
LINE
8
BLACK
6
CONTINUOUS
10
1.40755
20
-1.04047
11
1.40827
21
-1.04638
0
LINE
8
BLACK
6
CONTINUOUS
10
1.40827
20
-1.04638
11
1.40826
21
-1.0469
0
LINE
8
BLACK
6
CONTINUOUS
10
1.40826
20
-1.0469
11
1.40742
21
-1.05279
0
LINE
8
BLACK
6
CONTINUOUS
10
1.40742
20
-1.05279
11
1.4052
21
-1.05831
0
LINE
8
BLACK
6
CONTINUOUS
10
1.4052
20
-1.05831
11
1.40173
21
-1.06314
0
LINE
8
BLACK
6
CONTINUOUS
10
1.40173
20
-1.06314
11
1.39721
21
-1.067
0
LINE
8
BLACK
6
CONTINUOUS
10
1.39721
20
-1.067
11
1.39189
21
-1.06968
0
LINE
8
BLACK
6
CONTINUOUS
10
1.39189
20
-1.06968
11
1.38609
21
-1.07101
0
LINE
8
BLACK
6
CONTINUOUS
10
1.38609
20
-1.07101
11
1.38014
21
-1.07091
0
LINE
8
BLACK
6
CONTINUOUS
10
1.38014
20
-1.07091
11
1.37439
21
-1.0694
0
LINE
8
BLACK
6
CONTINUOUS
10
1.37439
20
-1.0694
11
1.36916
21
-1.06656
0
LINE
8
BLACK
6
CONTINUOUS
10
1.36916
20
-1.06656
11
1.36476
21
-1.06256
0
LINE
8
BLACK
6
CONTINUOUS
10
1.36476
20
-1.06256
11
1.36144
21
-1.05762
0
LINE
8
BLACK
6
CONTINUOUS
10
1.36144
20
-1.05762
11
1.35939
21
-1.05203
0
LINE
8
BLACK
6
CONTINUOUS
10
1.35939
20
-1.05203
11
1.35874
21
-1.04612
0
LINE
8
BLACK
6
CONTINUOUS
10
1.35874
20
-1.04612
11
1.35952
21
-1.04022
0
LINE
8
BLACK
6
CONTINUOUS
10
1.35952
20
-1.04022
11
1.36168
21
-1.03468
0
LINE
8
BLACK
6
CONTINUOUS
10
1.36168
20
-1.03468
11
1.3651
21
-1.02981
0
LINE
8
BLACK
6
CONTINUOUS
10
1.3651
20
-1.02981
11
1.36958
21
-1.0259
0
LINE
8
BLACK
6
CONTINUOUS
10
1.36958
20
-1.0259
11
1.37487
21
-1.02317
0
LINE
8
BLACK
6
CONTINUOUS
10
1.37487
20
-1.02317
11
1.38066
21
-1.02178
0
LINE
8
BLACK
6
CONTINUOUS
10
1.38066
20
-1.02178
11
1.38661
21
-1.02181
0
LINE
8
BLACK
6
CONTINUOUS
10
0.993788
20
-1.29018
11
0.996352
21
-1.28192
0
LINE
8
BLACK
6
CONTINUOUS
10
0.996352
20
-1.28192
11
1.00038
21
-1.27427
0
LINE
8
BLACK
6
CONTINUOUS
10
1.00038
20
-1.27427
11
1.00573
21
-1.26748
0
LINE
8
BLACK
6
CONTINUOUS
10
1.00573
20
-1.26748
11
1.01223
21
-1.26178
0
LINE
8
BLACK
6
CONTINUOUS
10
1.01223
20
-1.26178
11
1.01966
21
-1.25736
0
LINE
8
BLACK
6
CONTINUOUS
10
1.01966
20
-1.25736
11
1.02777
21
-1.25437
0
LINE
8
BLACK
6
CONTINUOUS
10
1.02777
20
-1.25437
11
1.03629
21
-1.2529
0
LINE
8
BLACK
6
CONTINUOUS
10
1.03629
20
-1.2529
11
1.04494
21
-1.25301
0
LINE
8
BLACK
6
CONTINUOUS
10
1.04494
20
-1.25301
11
1.05342
21
-1.2547
0
LINE
8
BLACK
6
CONTINUOUS
10
1.05342
20
-1.2547
11
1.06145
21
-1.25791
0
LINE
8
BLACK
6
CONTINUOUS
10
1.06145
20
-1.25791
11
1.06876
21
-1.26252
0
LINE
8
BLACK
6
CONTINUOUS
10
1.06876
20
-1.26252
11
1.07511
21
-1.26839
0
LINE
8
BLACK
6
CONTINUOUS
10
1.07511
20
-1.26839
11
1.08028
21
-1.27532
0
LINE
8
BLACK
6
CONTINUOUS
10
1.08028
20
-1.27532
11
1.08411
21
-1.28307
0
LINE
8
BLACK
6
CONTINUOUS
10
1.08411
20
-1.28307
11
1.08645
21
-1.29139
0
LINE
8
BLACK
6
CONTINUOUS
10
1.08645
20
-1.29139
11
1.08724
21
-1.3
0
LINE
8
BLACK
6
CONTINUOUS
10
1.08724
20
-1.3
11
1.08718
21
-1.30247
0
LINE
8
BLACK
6
CONTINUOUS
10
1.08718
20
-1.30247
11
1.08594
21
-1.31103
0
LINE
8
BLACK
6
CONTINUOUS
10
1.08594
20
-1.31103
11
1.08316
21
-1.31922
0
LINE
8
BLACK
6
CONTINUOUS
10
1.08316
20
-1.31922
11
1.07894
21
-1.32676
0
LINE
8
BLACK
6
CONTINUOUS
10
1.07894
20
-1.32676
11
1.07341
21
-1.33341
0
LINE
8
BLACK
6
CONTINUOUS
10
1.07341
20
-1.33341
11
1.06676
21
-1.33894
0
LINE
8
BLACK
6
CONTINUOUS
10
1.06676
20
-1.33894
11
1.05922
21
-1.34316
0
LINE
8
BLACK
6
CONTINUOUS
10
1.05922
20
-1.34316
11
1.05103
21
-1.34594
0
LINE
8
BLACK
6
CONTINUOUS
10
1.05103
20
-1.34594
11
1.04247
21
-1.34718
0
LINE
8
BLACK
6
CONTINUOUS
10
1.04247
20
-1.34718
11
1.03383
21
-1.34684
0
LINE
8
BLACK
6
CONTINUOUS
10
1.03383
20
-1.34684
11
1.0254
21
-1.34493
0
LINE
8
BLACK
6
CONTINUOUS
10
1.0254
20
-1.34493
11
1.01746
21
-1.34152
0
LINE
8
BLACK
6
CONTINUOUS
10
1.01746
20
-1.34152
11
1.01027
21
-1.33672
0
LINE
8
BLACK
6
CONTINUOUS
10
1.01027
20
-1.33672
11
1.00408
21
-1.33068
0
LINE
8
BLACK
6
CONTINUOUS
10
1.00408
20
-1.33068
11
0.999085
21
-1.32362
0
LINE
8
BLACK
6
CONTINUOUS
10
0.999085
20
-1.32362
11
0.995466
21
-1.31577
0
LINE
8
BLACK
6
CONTINUOUS
10
0.995466
20
-1.31577
11
0.993338
21
-1.30739
0
LINE
8
BLACK
6
CONTINUOUS
10
0.993338
20
-1.30739
11
0.992817
21
-1.29945
0
LINE
8
BLACK
6
CONTINUOUS
10
0.992817
20
-1.29945
11
0.992772
21
-1.29876
0
LINE
8
BLACK
6
CONTINUOUS
10
0.992772
20
-1.29876
11
0.993788
21
-1.29018
0
LINE
8
BLACK
6
CONTINUOUS
10
1.00322
20
-1.31456
11
1.00675
21
-1.32143
0
LINE
8
BLACK
6
CONTINUOUS
10
1.00675
20
-1.32143
11
1.01154
21
-1.32748
0
LINE
8
BLACK
6
CONTINUOUS
10
1.01154
20
-1.32748
11
1.01742
21
-1.33249
0
LINE
8
BLACK
6
CONTINUOUS
10
1.01742
20
-1.33249
11
1.02416
21
-1.33625
0
LINE
8
BLACK
6
CONTINUOUS
10
1.02416
20
-1.33625
11
1.0315
21
-1.33864
0
LINE
8
BLACK
6
CONTINUOUS
10
1.0315
20
-1.33864
11
1.03917
21
-1.33955
0
LINE
8
BLACK
6
CONTINUOUS
10
1.03917
20
-1.33955
11
1.04687
21
-1.33896
0
LINE
8
BLACK
6
CONTINUOUS
10
1.04687
20
-1.33896
11
1.05431
21
-1.33688
0
LINE
8
BLACK
6
CONTINUOUS
10
1.05431
20
-1.33688
11
1.0612
21
-1.3334
0
LINE
8
BLACK
6
CONTINUOUS
10
1.0612
20
-1.3334
11
1.06728
21
-1.32865
0
LINE
8
BLACK
6
CONTINUOUS
10
1.06728
20
-1.32865
11
1.07233
21
-1.3228
0
LINE
8
BLACK
6
CONTINUOUS
10
1.07233
20
-1.3228
11
1.07614
21
-1.31609
0
LINE
8
BLACK
6
CONTINUOUS
10
1.07614
20
-1.31609
11
1.07858
21
-1.30876
0
LINE
8
BLACK
6
CONTINUOUS
10
1.07858
20
-1.30876
11
1.07955
21
-1.3011
0
LINE
8
BLACK
6
CONTINUOUS
10
1.07955
20
-1.3011
11
1.07956
21
-1.3
0
LINE
8
BLACK
6
CONTINUOUS
10
1.07956
20
-1.3
11
1.07881
21
-1.29232
0
LINE
8
BLACK
6
CONTINUOUS
10
1.07881
20
-1.29232
11
1.07658
21
-1.28492
0
LINE
8
BLACK
6
CONTINUOUS
10
1.07658
20
-1.28492
11
1.07295
21
-1.27811
0
LINE
8
BLACK
6
CONTINUOUS
10
1.07295
20
-1.27811
11
1.06807
21
-1.27212
0
LINE
8
BLACK
6
CONTINUOUS
10
1.06807
20
-1.27212
11
1.06212
21
-1.2672
0
LINE
8
BLACK
6
CONTINUOUS
10
1.06212
20
-1.2672
11
1.05533
21
-1.26353
0
LINE
8
BLACK
6
CONTINUOUS
10
1.05533
20
-1.26353
11
1.04795
21
-1.26125
0
LINE
8
BLACK
6
CONTINUOUS
10
1.04795
20
-1.26125
11
1.04028
21
-1.26044
0
LINE
8
BLACK
6
CONTINUOUS
10
1.04028
20
-1.26044
11
1.03259
21
-1.26114
0
LINE
8
BLACK
6
CONTINUOUS
10
1.03259
20
-1.26114
11
1.02518
21
-1.26332
0
LINE
8
BLACK
6
CONTINUOUS
10
1.02518
20
-1.26332
11
1.01834
21
-1.2669
0
LINE
8
BLACK
6
CONTINUOUS
10
1.01834
20
-1.2669
11
1.01232
21
-1.27174
0
LINE
8
BLACK
6
CONTINUOUS
10
1.01232
20
-1.27174
11
1.00736
21
-1.27765
0
LINE
8
BLACK
6
CONTINUOUS
10
1.00736
20
-1.27765
11
1.00364
21
-1.28442
0
LINE
8
BLACK
6
CONTINUOUS
10
1.00364
20
-1.28442
11
1.0013
21
-1.29177
0
LINE
8
BLACK
6
CONTINUOUS
10
1.0013
20
-1.29177
11
1.00044
21
-1.29945
0
LINE
8
BLACK
6
CONTINUOUS
10
1.00044
20
-1.29945
11
1.00109
21
-1.30714
0
LINE
8
BLACK
6
CONTINUOUS
10
1.00109
20
-1.30714
11
1.00322
21
-1.31456
0
LINE
8
BLACK
6
CONTINUOUS
10
1.73379
20
-1.29018
11
1.73635
21
-1.28192
0
LINE
8
BLACK
6
CONTINUOUS
10
1.73635
20
-1.28192
11
1.74038
21
-1.27427
0
LINE
8
BLACK
6
CONTINUOUS
10
1.74038
20
-1.27427
11
1.74573
21
-1.26748
0
LINE
8
BLACK
6
CONTINUOUS
10
1.74573
20
-1.26748
11
1.75223
21
-1.26178
0
LINE
8
BLACK
6
CONTINUOUS
10
1.75223
20
-1.26178
11
1.75966
21
-1.25736
0
LINE
8
BLACK
6
CONTINUOUS
10
1.75966
20
-1.25736
11
1.76777
21
-1.25437
0
LINE
8
BLACK
6
CONTINUOUS
10
1.76777
20
-1.25437
11
1.77629
21
-1.2529
0
LINE
8
BLACK
6
CONTINUOUS
10
1.77629
20
-1.2529
11
1.78494
21
-1.25301
0
LINE
8
BLACK
6
CONTINUOUS
10
1.78494
20
-1.25301
11
1.79342
21
-1.2547
0
LINE
8
BLACK
6
CONTINUOUS
10
1.79342
20
-1.2547
11
1.80145
21
-1.25791
0
LINE
8
BLACK
6
CONTINUOUS
10
1.80145
20
-1.25791
11
1.80876
21
-1.26252
0
LINE
8
BLACK
6
CONTINUOUS
10
1.80876
20
-1.26252
11
1.81511
21
-1.26839
0
LINE
8
BLACK
6
CONTINUOUS
10
1.81511
20
-1.26839
11
1.82028
21
-1.27532
0
LINE
8
BLACK
6
CONTINUOUS
10
1.82028
20
-1.27532
11
1.82411
21
-1.28307
0
LINE
8
BLACK
6
CONTINUOUS
10
1.82411
20
-1.28307
11
1.82645
21
-1.29139
0
LINE
8
BLACK
6
CONTINUOUS
10
1.82645
20
-1.29139
11
1.82724
21
-1.3
0
LINE
8
BLACK
6
CONTINUOUS
10
1.82724
20
-1.3
11
1.82718
21
-1.30247
0
LINE
8
BLACK
6
CONTINUOUS
10
1.82718
20
-1.30247
11
1.82594
21
-1.31103
0
LINE
8
BLACK
6
CONTINUOUS
10
1.82594
20
-1.31103
11
1.82316
21
-1.31922
0
LINE
8
BLACK
6
CONTINUOUS
10
1.82316
20
-1.31922
11
1.81894
21
-1.32676
0
LINE
8
BLACK
6
CONTINUOUS
10
1.81894
20
-1.32676
11
1.81341
21
-1.33341
0
LINE
8
BLACK
6
CONTINUOUS
10
1.81341
20
-1.33341
11
1.80676
21
-1.33894
0
LINE
8
BLACK
6
CONTINUOUS
10
1.80676
20
-1.33894
11
1.79922
21
-1.34316
0
LINE
8
BLACK
6
CONTINUOUS
10
1.79922
20
-1.34316
11
1.79103
21
-1.34594
0
LINE
8
BLACK
6
CONTINUOUS
10
1.79103
20
-1.34594
11
1.78247
21
-1.34718
0
LINE
8
BLACK
6
CONTINUOUS
10
1.78247
20
-1.34718
11
1.77383
21
-1.34684
0
LINE
8
BLACK
6
CONTINUOUS
10
1.77383
20
-1.34684
11
1.7654
21
-1.34493
0
LINE
8
BLACK
6
CONTINUOUS
10
1.7654
20
-1.34493
11
1.75746
21
-1.34152
0
LINE
8
BLACK
6
CONTINUOUS
10
1.75746
20
-1.34152
11
1.75027
21
-1.33672
0
LINE
8
BLACK
6
CONTINUOUS
10
1.75027
20
-1.33672
11
1.74408
21
-1.33068
0
LINE
8
BLACK
6
CONTINUOUS
10
1.74408
20
-1.33068
11
1.73909
21
-1.32362
0
LINE
8
BLACK
6
CONTINUOUS
10
1.73909
20
-1.32362
11
1.73547
21
-1.31577
0
LINE
8
BLACK
6
CONTINUOUS
10
1.73547
20
-1.31577
11
1.73334
21
-1.30739
0
LINE
8
BLACK
6
CONTINUOUS
10
1.73334
20
-1.30739
11
1.73282
21
-1.29945
0
LINE
8
BLACK
6
CONTINUOUS
10
1.73282
20
-1.29945
11
1.73277
21
-1.29876
0
LINE
8
BLACK
6
CONTINUOUS
10
1.73277
20
-1.29876
11
1.73379
21
-1.29018
0
LINE
8
BLACK
6
CONTINUOUS
10
1.74322
20
-1.31456
11
1.74675
21
-1.32143
0
LINE
8
BLACK
6
CONTINUOUS
10
1.74675
20
-1.32143
11
1.75154
21
-1.32748
0
LINE
8
BLACK
6
CONTINUOUS
10
1.75154
20
-1.32748
11
1.75742
21
-1.33249
0
LINE
8
BLACK
6
CONTINUOUS
10
1.75742
20
-1.33249
11
1.76416
21
-1.33625
0
LINE
8
BLACK
6
CONTINUOUS
10
1.76416
20
-1.33625
11
1.7715
21
-1.33864
0
LINE
8
BLACK
6
CONTINUOUS
10
1.7715
20
-1.33864
11
1.77917
21
-1.33955
0
LINE
8
BLACK
6
CONTINUOUS
10
1.77917
20
-1.33955
11
1.78687
21
-1.33896
0
LINE
8
BLACK
6
CONTINUOUS
10
1.78687
20
-1.33896
11
1.79431
21
-1.33688
0
LINE
8
BLACK
6
CONTINUOUS
10
1.79431
20
-1.33688
11
1.8012
21
-1.3334
0
LINE
8
BLACK
6
CONTINUOUS
10
1.8012
20
-1.3334
11
1.80728
21
-1.32865
0
LINE
8
BLACK
6
CONTINUOUS
10
1.80728
20
-1.32865
11
1.81233
21
-1.3228
0
LINE
8
BLACK
6
CONTINUOUS
10
1.81233
20
-1.3228
11
1.81614
21
-1.31609
0
LINE
8
BLACK
6
CONTINUOUS
10
1.81614
20
-1.31609
11
1.81858
21
-1.30876
0
LINE
8
BLACK
6
CONTINUOUS
10
1.81858
20
-1.30876
11
1.81955
21
-1.3011
0
LINE
8
BLACK
6
CONTINUOUS
10
1.81955
20
-1.3011
11
1.81956
21
-1.3
0
LINE
8
BLACK
6
CONTINUOUS
10
1.81956
20
-1.3
11
1.81881
21
-1.29232
0
LINE
8
BLACK
6
CONTINUOUS
10
1.81881
20
-1.29232
11
1.81658
21
-1.28492
0
LINE
8
BLACK
6
CONTINUOUS
10
1.81658
20
-1.28492
11
1.81295
21
-1.27811
0
LINE
8
BLACK
6
CONTINUOUS
10
1.81295
20
-1.27811
11
1.80807
21
-1.27212
0
LINE
8
BLACK
6
CONTINUOUS
10
1.80807
20
-1.27212
11
1.80212
21
-1.2672
0
LINE
8
BLACK
6
CONTINUOUS
10
1.80212
20
-1.2672
11
1.79533
21
-1.26353
0
LINE
8
BLACK
6
CONTINUOUS
10
1.79533
20
-1.26353
11
1.78795
21
-1.26125
0
LINE
8
BLACK
6
CONTINUOUS
10
1.78795
20
-1.26125
11
1.78028
21
-1.26044
0
LINE
8
BLACK
6
CONTINUOUS
10
1.78028
20
-1.26044
11
1.77259
21
-1.26114
0
LINE
8
BLACK
6
CONTINUOUS
10
1.77259
20
-1.26114
11
1.76518
21
-1.26332
0
LINE
8
BLACK
6
CONTINUOUS
10
1.76518
20
-1.26332
11
1.75834
21
-1.2669
0
LINE
8
BLACK
6
CONTINUOUS
10
1.75834
20
-1.2669
11
1.75232
21
-1.27174
0
LINE
8
BLACK
6
CONTINUOUS
10
1.75232
20
-1.27174
11
1.74736
21
-1.27765
0
LINE
8
BLACK
6
CONTINUOUS
10
1.74736
20
-1.27765
11
1.74364
21
-1.28442
0
LINE
8
BLACK
6
CONTINUOUS
10
1.74364
20
-1.28442
11
1.7413
21
-1.29177
0
LINE
8
BLACK
6
CONTINUOUS
10
1.7413
20
-1.29177
11
1.74044
21
-1.29945
0
LINE
8
BLACK
6
CONTINUOUS
10
1.74044
20
-1.29945
11
1.74109
21
-1.30714
0
LINE
8
BLACK
6
CONTINUOUS
10
1.74109
20
-1.30714
11
1.74322
21
-1.31456
  0
ENDSEC
  0
EOF
