<?xml version="1.0" standalone="no"?>
<!DOCTYPE svg PUBLIC "-//W3C//DTD SVG 1.1//EN" "http://www.w3.org/Graphics/SVG/1.1/DTD/svg11.dtd">
<svg width="178mm" height="113mm" viewBox="0 0 178 113" xmlns="http://www.w3.org/2000/svg" version="1.1">
<title>OpenSCAD Model</title>
<path d="
M 177.04,-0 L 0,-0 L 0,112.964 L 177.04,112.964 z
M 100.513,39.9544 L 98.6474,39.3016 L 96.9739,38.25 L 95.5763,36.8524 L 94.5247,35.1789 L 93.8719,33.3133
 L 93.6506,31.3492 L 93.8719,29.3851 L 94.5247,27.5195 L 95.5763,25.8459 L 96.9739,24.4483 L 98.6474,23.3968
 L 100.513,22.744 L 102.477,22.5227 L 104.441,22.744 L 106.307,23.3968 L 107.98,24.4483 L 109.378,25.8459
 L 110.43,27.5195 L 111.082,29.3851 L 111.304,31.3492 L 111.082,33.3133 L 110.43,35.1789 L 109.378,36.8524
 L 107.98,38.25 L 106.307,39.3016 L 104.441,39.9544 L 102.477,40.1757 z
M 141.075,66.3717 L 139.042,65.9395 L 137.143,65.0939 L 135.461,63.872 L 134.07,62.3271 L 133.03,60.5267
 L 132.388,58.5496 L 132.171,56.4821 L 132.388,54.4146 L 133.03,52.4375 L 134.07,50.6371 L 135.461,49.0922
 L 137.143,47.8702 L 139.042,47.0247 L 141.075,46.5925 L 143.154,46.5925 L 145.188,47.0247 L 147.087,47.8702
 L 148.768,49.0922 L 150.16,50.6371 L 151.199,52.4375 L 151.841,54.4146 L 152.059,56.4821 L 151.841,58.5496
 L 151.199,60.5267 L 150.16,62.3271 L 148.768,63.872 L 147.087,65.0939 L 145.188,65.9395 L 143.154,66.3717
 z
M 37.846,57.6632 L 37.846,46.665 L 59.9186,46.665 L 59.9186,57.6632 z
M 112.084,64.2422 L 110.201,63.6302 L 108.529,62.5691 L 107.173,61.1256 L 106.219,59.3903 L 105.727,57.4722
 L 105.727,55.492 L 106.219,53.5739 L 107.173,51.8386 L 108.529,50.395 L 110.201,49.334 L 112.084,48.722
 L 114.061,48.5977 L 116.006,48.9687 L 117.798,49.8119 L 119.323,51.0742 L 120.487,52.6762 L 121.216,54.5174
 L 121.465,56.4821 L 121.216,58.4467 L 120.487,60.2879 L 119.323,61.89 L 117.798,63.1523 L 116.006,63.9954
 L 114.061,64.3665 z
M 89.9093,64.2422 L 88.0259,63.6302 L 86.3539,62.5691 L 84.9984,61.1256 L 84.0444,59.3903 L 83.5519,57.4722
 L 83.5519,55.492 L 84.0444,53.5739 L 84.9984,51.8386 L 86.3539,50.395 L 88.0259,49.334 L 89.9093,48.722
 L 91.8856,48.5977 L 93.8308,48.9687 L 95.6226,49.8119 L 97.1485,51.0742 L 98.3124,52.6762 L 99.0414,54.5174
 L 99.2896,56.4821 L 99.0414,58.4467 L 98.3124,60.2879 L 97.1485,61.89 L 95.6226,63.1523 L 93.8308,63.9954
 L 91.8856,64.3665 z
M 100.13,86.9649 L 98.5204,85.9131 L 97.3392,84.3955 L 96.7148,82.5766 L 96.7148,80.6534 L 97.3392,78.8345
 L 98.5204,77.3169 L 100.13,76.265 L 101.995,75.7929 L 103.911,75.9518 L 105.672,76.7243 L 107.087,78.0268
 L 108.003,79.7181 L 108.319,81.615 L 108.003,83.5119 L 107.087,85.2032 L 105.672,86.5057 L 103.911,87.2782
 L 101.995,87.437 z
" stroke="black" fill="lightgray" stroke-width="0.5"/>
</svg>
