<?xml version="1.0" standalone="no"?>
<!DOCTYPE svg PUBLIC "-//W3C//DTD SVG 1.1//EN" "http://www.w3.org/Graphics/SVG/1.1/DTD/svg11.dtd">
<svg width="127mm" height="108mm" viewBox="-127 -108 127 108" xmlns="http://www.w3.org/2000/svg" version="1.1">
<title>OpenSCAD Model</title>
<path d="
M -10.0595,-0.277496 L -7.53442,-1.09799 L -5.23494,-2.42543 L -3.26219,-4.20206 L -1.70145,-6.34999 L -0.621658,-8.77542
 L 0,-12.7 L 0,-76.2 L -0.277496,-78.8405 L -1.09799,-81.3656 L -2.42543,-83.665 L -4.20206,-85.6378
 L -6.34999,-87.1985 L -8.24057,-88.0915 L -59.0406,-107.142 L -61.6106,-107.809 L -64.2627,-107.927 L -67.9594,-107.142
 L -118.759,-88.0915 L -121.134,-86.9044 L -123.21,-85.2494 L -124.897,-83.1992 L -126.121,-80.8431 L -126.828,-78.284
 L -127,-76.2 L -127,-12.7 L -126.722,-10.0595 L -125.902,-7.53442 L -124.575,-5.23494 L -122.798,-3.26219
 L -120.65,-1.70145 L -118.225,-0.621658 L -114.3,-0 L -12.7,-0 z
" stroke="black" fill="lightgray" stroke-width="0.5"/>
</svg>
