<?xml version="1.0" standalone="no"?>
<!DOCTYPE svg PUBLIC "-//W3C//DTD SVG 1.1//EN" "http://www.w3.org/Graphics/SVG/1.1/DTD/svg11.dtd">
<svg width="88mm" height="71mm" viewBox="-44 -88 88 71" xmlns="http://www.w3.org/2000/svg" version="1.1">
<title>OpenSCAD Model</title>
<path d="
M 43.2351,-71.3378 L 0,-87.551 L -43.2351,-71.3378 L -43.2351,-17.294 L 43.2351,-17.294 z
M -0.0207616,-83.9582 L -0.0613874,-83.9668 L -0.0993453,-83.9837 L -0.132937,-84.0081 L -0.160733,-84.039 L -0.181494,-84.075
 L -0.194325,-84.1145 L -0.198691,-84.1558 L -0.194325,-84.1971 L -0.181494,-84.2366 L -0.160733,-84.2726 L -0.132937,-84.3034
 L -0.0993453,-84.3279 L -0.0613874,-84.3447 L -0.0207616,-84.3534 L 0.0207616,-84.3534 L 0.0613874,-84.3447 L 0.0993453,-84.3279
 L 0.132937,-84.3034 L 0.160733,-84.2726 L 0.181494,-84.2366 L 0.194325,-84.1971 L 0.198691,-84.1558 L 0.194325,-84.1145
 L 0.181494,-84.075 L 0.160733,-84.039 L 0.132937,-84.0081 L 0.0993453,-83.9837 L 0.0613874,-83.9668 L 0.0207616,-83.9582
 z
M -40.0768,-68.9372 L -40.1174,-68.9458 L -40.1554,-68.9627 L -40.189,-68.9871 L -40.2167,-69.018 L -40.2375,-69.054
 L -40.2504,-69.0935 L -40.2547,-69.1348 L -40.2504,-69.1761 L -40.2375,-69.2156 L -40.2167,-69.2515 L -40.189,-69.2824
 L -40.1554,-69.3068 L -40.1174,-69.3237 L -40.0768,-69.3324 L -40.0352,-69.3324 L -39.9946,-69.3237 L -39.9567,-69.3068
 L -39.9231,-69.2824 L -39.8953,-69.2515 L -39.8745,-69.2156 L -39.8617,-69.1761 L -39.8573,-69.1348 L -39.8617,-69.0935
 L -39.8745,-69.054 L -39.8953,-69.018 L -39.9231,-68.9871 L -39.9567,-68.9627 L -39.9946,-68.9458 L -40.0352,-68.9372
 z
M 40.0352,-68.9372 L 39.9946,-68.9458 L 39.9567,-68.9627 L 39.9231,-68.9871 L 39.8953,-69.018 L 39.8745,-69.054
 L 39.8617,-69.0935 L 39.8573,-69.1348 L 39.8617,-69.1761 L 39.8745,-69.2156 L 39.8953,-69.2515 L 39.9231,-69.2824
 L 39.9567,-69.3068 L 39.9946,-69.3237 L 40.0352,-69.3324 L 40.0768,-69.3324 L 40.1174,-69.3237 L 40.1554,-69.3068
 L 40.189,-69.2824 L 40.2167,-69.2515 L 40.2375,-69.2156 L 40.2504,-69.1761 L 40.2547,-69.1348 L 40.2504,-69.0935
 L 40.2375,-69.054 L 40.2167,-69.018 L 40.189,-68.9871 L 40.1554,-68.9627 L 40.1174,-68.9458 L 40.0768,-68.9372
 z
M 10.9932,-63.3834 L 10.9526,-63.392 L 10.9147,-63.4089 L 10.8811,-63.4333 L 10.8533,-63.4642 L 10.8325,-63.5002
 L 10.8197,-63.5397 L 10.8153,-63.581 L 10.8197,-63.6223 L 10.8325,-63.6618 L 10.8533,-63.6978 L 10.8811,-63.7286
 L 10.9147,-63.753 L 10.9526,-63.77 L 10.9932,-63.7786 L 11.0348,-63.7786 L 11.0754,-63.77 L 11.1134,-63.753
 L 11.147,-63.7286 L 11.1748,-63.6978 L 11.1955,-63.6618 L 11.2084,-63.6223 L 11.2127,-63.581 L 11.2084,-63.5397
 L 11.1955,-63.5002 L 11.1748,-63.4642 L 11.147,-63.4333 L 11.1134,-63.4089 L 11.0754,-63.392 L 11.0348,-63.3834
 z
M -0.0207616,-63.3834 L -0.0613874,-63.392 L -0.0993453,-63.4089 L -0.132937,-63.4333 L -0.160733,-63.4642 L -0.181494,-63.5002
 L -0.194325,-63.5397 L -0.198691,-63.581 L -0.194325,-63.6223 L -0.181494,-63.6618 L -0.160733,-63.6978 L -0.132937,-63.7286
 L -0.0993453,-63.753 L -0.0613874,-63.77 L -0.0207616,-63.7786 L 0.0207616,-63.7786 L 0.0613874,-63.77 L 0.0993453,-63.753
 L 0.132937,-63.7286 L 0.160733,-63.6978 L 0.181494,-63.6618 L 0.194325,-63.6223 L 0.198691,-63.581 L 0.194325,-63.5397
 L 0.181494,-63.5002 L 0.160733,-63.4642 L 0.132937,-63.4333 L 0.0993453,-63.4089 L 0.0613874,-63.392 L 0.0207616,-63.3834
 z
M -11.0348,-63.3834 L -11.0754,-63.392 L -11.1134,-63.4089 L -11.147,-63.4333 L -11.1748,-63.4642 L -11.1955,-63.5002
 L -11.2084,-63.5397 L -11.2127,-63.581 L -11.2084,-63.6223 L -11.1955,-63.6618 L -11.1748,-63.6978 L -11.147,-63.7286
 L -11.1134,-63.753 L -11.0754,-63.77 L -11.0348,-63.7786 L -10.9932,-63.7786 L -10.9526,-63.77 L -10.9147,-63.753
 L -10.8811,-63.7286 L -10.8533,-63.6978 L -10.8325,-63.6618 L -10.8197,-63.6223 L -10.8153,-63.581 L -10.8197,-63.5397
 L -10.8325,-63.5002 L -10.8533,-63.4642 L -10.8811,-63.4333 L -10.9147,-63.4089 L -10.9526,-63.392 L -10.9932,-63.3834
 z
M 25.4116,-34.7719 L 25.371,-34.7806 L 25.333,-34.7975 L 25.2994,-34.8219 L 25.2716,-34.8527 L 25.2509,-34.8887
 L 25.238,-34.9282 L 25.2337,-34.9695 L 25.238,-35.0108 L 25.2509,-35.0503 L 25.2716,-35.0863 L 25.2994,-35.1172
 L 25.333,-35.1416 L 25.371,-35.1585 L 25.4116,-35.1671 L 25.4532,-35.1671 L 25.4938,-35.1585 L 25.5317,-35.1416
 L 25.5653,-35.1172 L 25.5931,-35.0863 L 25.6139,-35.0503 L 25.6267,-35.0108 L 25.6311,-34.9695 L 25.6267,-34.9282
 L 25.6139,-34.8887 L 25.5931,-34.8527 L 25.5653,-34.8219 L 25.5317,-34.7975 L 25.4938,-34.7806 L 25.4532,-34.7719
 z
M -25.4532,-34.7719 L -25.4938,-34.7806 L -25.5317,-34.7975 L -25.5653,-34.8219 L -25.5931,-34.8527 L -25.6139,-34.8887
 L -25.6267,-34.9282 L -25.6311,-34.9695 L -25.6267,-35.0108 L -25.6139,-35.0503 L -25.5931,-35.0863 L -25.5653,-35.1172
 L -25.5317,-35.1416 L -25.4938,-35.1585 L -25.4532,-35.1671 L -25.4116,-35.1671 L -25.371,-35.1585 L -25.333,-35.1416
 L -25.2994,-35.1172 L -25.2716,-35.0863 L -25.2509,-35.0503 L -25.238,-35.0108 L -25.2337,-34.9695 L -25.238,-34.9282
 L -25.2509,-34.8887 L -25.2716,-34.8527 L -25.2994,-34.8219 L -25.333,-34.7975 L -25.371,-34.7806 L -25.4116,-34.7719
 z
M -0.0207616,-34.7719 L -0.0613874,-34.7806 L -0.0993453,-34.7975 L -0.132937,-34.8219 L -0.160733,-34.8527 L -0.181494,-34.8887
 L -0.194325,-34.9282 L -0.198691,-34.9695 L -0.194325,-35.0108 L -0.181494,-35.0503 L -0.160733,-35.0863 L -0.132937,-35.1172
 L -0.0993453,-35.1416 L -0.0613874,-35.1585 L -0.0207616,-35.1671 L 0.0207616,-35.1671 L 0.0613874,-35.1585 L 0.0993453,-35.1416
 L 0.132937,-35.1172 L 0.160733,-35.0863 L 0.181494,-35.0503 L 0.194325,-35.0108 L 0.198691,-34.9695 L 0.194325,-34.9282
 L 0.181494,-34.8887 L 0.160733,-34.8527 L 0.132937,-34.8219 L 0.0993453,-34.7975 L 0.0613874,-34.7806 L 0.0207616,-34.7719
 z
M -40.0768,-20.2755 L -40.1174,-20.2841 L -40.1554,-20.301 L -40.189,-20.3254 L -40.2167,-20.3563 L -40.2375,-20.3922
 L -40.2504,-20.4318 L -40.2547,-20.4731 L -40.2504,-20.5144 L -40.2375,-20.5539 L -40.2167,-20.5898 L -40.189,-20.6207
 L -40.1554,-20.6451 L -40.1174,-20.662 L -40.0768,-20.6707 L -40.0352,-20.6707 L -39.9946,-20.662 L -39.9567,-20.6451
 L -39.9231,-20.6207 L -39.8953,-20.5898 L -39.8745,-20.5539 L -39.8617,-20.5144 L -39.8573,-20.4731 L -39.8617,-20.4318
 L -39.8745,-20.3922 L -39.8953,-20.3563 L -39.9231,-20.3254 L -39.9567,-20.301 L -39.9946,-20.2841 L -40.0352,-20.2755
 z
M 40.0352,-20.2755 L 39.9946,-20.2841 L 39.9567,-20.301 L 39.9231,-20.3254 L 39.8953,-20.3563 L 39.8745,-20.3922
 L 39.8617,-20.4318 L 39.8573,-20.4731 L 39.8617,-20.5144 L 39.8745,-20.5539 L 39.8953,-20.5898 L 39.9231,-20.6207
 L 39.9567,-20.6451 L 39.9946,-20.662 L 40.0352,-20.6707 L 40.0768,-20.6707 L 40.1174,-20.662 L 40.1554,-20.6451
 L 40.189,-20.6207 L 40.2167,-20.5898 L 40.2375,-20.5539 L 40.2504,-20.5144 L 40.2547,-20.4731 L 40.2504,-20.4318
 L 40.2375,-20.3922 L 40.2167,-20.3563 L 40.189,-20.3254 L 40.1554,-20.301 L 40.1174,-20.2841 L 40.0768,-20.2755
 z
" stroke="black" fill="lightgray" stroke-width="0.5"/>
</svg>
