<?xml version="1.0" standalone="no"?>
<!DOCTYPE svg PUBLIC "-//W3C//DTD SVG 1.1//EN" "http://www.w3.org/Graphics/SVG/1.1/DTD/svg11.dtd">
<svg width="122mm" height="102mm" viewBox="-61 -105 122 102" xmlns="http://www.w3.org/2000/svg" version="1.1">
<title>OpenSCAD Model</title>
<path d="
M 53.7434,-3.64117 L 55.5625,-4.45108 L 57.1734,-5.62152 L 58.5059,-7.10133 L 59.5015,-8.82581 L 60.1168,-10.7196
 L 60.325,-12.7 L 60.325,-76.2 L 60.1168,-78.1803 L 59.5015,-80.0742 L 58.5059,-81.7986 L 57.1734,-83.2784
 L 55.5625,-84.4489 L 53.7434,-85.2588 L 2.94337,-104.309 L 0.995621,-104.723 L -0.995621,-104.723 L -2.94337,-104.309
 L -53.7434,-85.2588 L -55.5625,-84.4489 L -57.1734,-83.2784 L -58.5059,-81.7986 L -59.5015,-80.0742 L -60.1168,-78.1803
 L -60.325,-76.2 L -60.325,-12.7 L -60.1168,-10.7196 L -59.5015,-8.82581 L -58.5059,-7.10133 L -57.1734,-5.62152
 L -55.5625,-4.45108 L -53.7434,-3.64117 L -51.7956,-3.22717 L 51.7956,-3.22717 z
M -0.0414581,-94.8553 L -0.122604,-94.8725 L -0.198425,-94.9063 L -0.265549,-94.955 L -0.321045,-95.0167 L -0.362549,-95.0886
 L -0.388168,-95.1675 L -0.396866,-95.25 L -0.388168,-95.3325 L -0.362549,-95.4114 L -0.321045,-95.4833 L -0.265549,-95.5449
 L -0.198425,-95.5937 L -0.122604,-95.6274 L -0.0414581,-95.6447 L 0.0414581,-95.6447 L 0.122604,-95.6274 L 0.198425,-95.5937
 L 0.265549,-95.5449 L 0.321045,-95.4833 L 0.362549,-95.4114 L 0.388168,-95.3325 L 0.396866,-95.25 L 0.388168,-95.1675
 L 0.362549,-95.0886 L 0.321045,-95.0167 L 0.265549,-94.955 L 0.198425,-94.9063 L 0.122604,-94.8725 L 0.0414581,-94.8553
 z
M -50.8415,-75.8053 L -50.9226,-75.8225 L -50.9984,-75.8563 L -51.0656,-75.9051 L -51.121,-75.9667 L -51.1626,-76.0386
 L -51.1882,-76.1175 L -51.1969,-76.2 L -51.1882,-76.2825 L -51.1626,-76.3614 L -51.121,-76.4333 L -51.0656,-76.4949
 L -50.9984,-76.5437 L -50.9226,-76.5774 L -50.8415,-76.5947 L -50.7585,-76.5947 L -50.6774,-76.5774 L -50.6016,-76.5437
 L -50.5344,-76.4949 L -50.4789,-76.4333 L -50.4374,-76.3614 L -50.4118,-76.2825 L -50.4031,-76.2 L -50.4118,-76.1175
 L -50.4374,-76.0386 L -50.4789,-75.9667 L -50.5344,-75.9051 L -50.6016,-75.8563 L -50.6774,-75.8225 L -50.7585,-75.8053
 z
M 50.7585,-75.8053 L 50.6774,-75.8225 L 50.6016,-75.8563 L 50.5344,-75.9051 L 50.4789,-75.9667 L 50.4374,-76.0386
 L 50.4118,-76.1175 L 50.4031,-76.2 L 50.4118,-76.2825 L 50.4374,-76.3614 L 50.4789,-76.4333 L 50.5344,-76.4949
 L 50.6016,-76.5437 L 50.6774,-76.5774 L 50.7585,-76.5947 L 50.8415,-76.5947 L 50.9226,-76.5774 L 50.9984,-76.5437
 L 51.0656,-76.4949 L 51.121,-76.4333 L 51.1626,-76.3614 L 51.1882,-76.2825 L 51.1969,-76.2 L 51.1882,-76.1175
 L 51.1626,-76.0386 L 51.121,-75.9667 L 51.0656,-75.9051 L 50.9984,-75.8563 L 50.9226,-75.8225 L 50.8415,-75.8053
 z
M -50.8415,-12.3053 L -50.9226,-12.3225 L -50.9984,-12.3563 L -51.0656,-12.405 L -51.121,-12.4667 L -51.1626,-12.5386
 L -51.1882,-12.6175 L -51.1969,-12.7 L -51.1882,-12.7825 L -51.1626,-12.8614 L -51.121,-12.9333 L -51.0656,-12.9949
 L -50.9984,-13.0437 L -50.9226,-13.0774 L -50.8415,-13.0947 L -50.7585,-13.0947 L -50.6774,-13.0774 L -50.6016,-13.0437
 L -50.5344,-12.9949 L -50.4789,-12.9333 L -50.4374,-12.8614 L -50.4118,-12.7825 L -50.4031,-12.7 L -50.4118,-12.6175
 L -50.4374,-12.5386 L -50.4789,-12.4667 L -50.5344,-12.405 L -50.6016,-12.3563 L -50.6774,-12.3225 L -50.7585,-12.3053
 z
M 50.7585,-12.3053 L 50.6774,-12.3225 L 50.6016,-12.3563 L 50.5344,-12.405 L 50.4789,-12.4667 L 50.4374,-12.5386
 L 50.4118,-12.6175 L 50.4031,-12.7 L 50.4118,-12.7825 L 50.4374,-12.8614 L 50.4789,-12.9333 L 50.5344,-12.9949
 L 50.6016,-13.0437 L 50.6774,-13.0774 L 50.7585,-13.0947 L 50.8415,-13.0947 L 50.9226,-13.0774 L 50.9984,-13.0437
 L 51.0656,-12.9949 L 51.121,-12.9333 L 51.1626,-12.8614 L 51.1882,-12.7825 L 51.1969,-12.7 L 51.1882,-12.6175
 L 51.1626,-12.5386 L 51.121,-12.4667 L 51.0656,-12.405 L 50.9984,-12.3563 L 50.9226,-12.3225 L 50.8415,-12.3053
 z
" stroke="black" fill="lightgray" stroke-width="0.5"/>
</svg>
